<svg width="50" height="50" viewBox="0 0 50 50" fill="none" xmlns="http://www.w3.org/2000/svg">
<circle cx="25" cy="25" r="25" fill="white"/>
<g clip-path="url(#clip0_509_3018)">
<path d="M38.5938 24.7142L23.9063 30.9381C22.7865 31.4069 21.5365 31.3809 20.4688 30.86L13.2292 27.2142L12.2917 29.0631L19.5574 32.709C20.4167 33.1256 21.3542 33.334 22.2917 33.334C23.1251 33.334 23.9584 33.1777 24.7136 32.8392L39.4011 26.6413C40.1824 26.3027 40.7813 25.6777 41.0938 24.8965C41.4063 24.0892 41.3803 23.2298 41.0157 22.4486C40.3126 20.9381 38.4636 20.235 36.8751 20.9121L35.9636 21.3027L31.5365 23.1777L32.3438 25.1048L36.7709 23.2298L37.6824 22.8392C38.2292 22.6048 38.8803 22.8131 39.1147 23.334C39.2449 23.5944 39.2449 23.8809 39.1407 24.1413C39.0365 24.4017 38.8542 24.61 38.5938 24.7142Z" fill="#5A5B6A"/>
<path d="M10.6771 23.1513L13.125 21.12C14.5312 20.0523 16.25 19.5836 17.9948 19.7919C18.6979 19.87 19.349 20.0523 19.974 20.3388L26.7187 23.3336C26.901 23.4117 27.0573 23.5419 27.1615 23.7242C27.3437 24.0107 27.3698 24.3752 27.2396 24.7138C27.1875 24.818 27.1354 24.8961 27.0833 24.9742C26.7708 25.3127 26.3021 25.4169 25.8854 25.2346L20.6771 22.9169L19.8177 24.818L25.026 27.1357C25.4427 27.318 25.8854 27.4221 26.3021 27.4221C27.1875 27.4221 28.0208 27.0575 28.6458 26.3544C28.8542 26.12 29.0365 25.8596 29.1667 25.5732C29.5833 24.6096 29.5052 23.5159 28.9583 22.6305C28.6198 22.1096 28.151 21.693 27.6042 21.4586L20.8333 18.4377C20.026 18.0732 19.1406 17.8388 18.2552 17.7346C15.9635 17.4742 13.6979 18.0992 11.875 19.4794L8.59375 22.1617V33.594H10.6771V23.1513Z" fill="#5A5B6A"/>
</g>
<defs>
<clipPath id="clip0_509_3018">
<rect width="33.3333" height="33.3333" fill="white" transform="translate(8.33325 8.3335)"/>
</clipPath>
</defs>
</svg>
