<svg width="24" height="24" viewBox="0 0 24 24" fill="none" xmlns="http://www.w3.org/2000/svg">
<g opacity="0.6">
<path d="M21.7875 11.7938L11.2125 16.2751C10.4062 16.6126 9.50622 16.5938 8.73747 16.2188L3.52498 13.5938L2.84998 14.9251L8.08122 17.5501C8.69997 17.8501 9.37497 18.0001 10.05 18.0001C10.65 18.0001 11.25 17.8876 11.7937 17.6438L22.3687 13.1813C22.9312 12.9376 23.3625 12.4876 23.5875 11.9251C23.8125 11.3438 23.7937 10.7251 23.5312 10.1626C23.025 9.07508 21.6937 8.56883 20.55 9.05633L19.8937 9.33758L16.7062 10.6876L17.2875 12.0751L20.475 10.7251L21.1312 10.4438C21.525 10.2751 21.9937 10.4251 22.1625 10.8001C22.2562 10.9876 22.2562 11.1938 22.1812 11.3813C22.1062 11.5688 21.975 11.7188 21.7875 11.7938Z" fill="#B4B4BB"/>
<path d="M1.6875 10.6687L3.45 9.20621C4.4625 8.43746 5.7 8.09996 6.95625 8.24996C7.4625 8.30621 7.93125 8.43746 8.38125 8.64371L13.2375 10.8C13.3687 10.8562 13.4813 10.95 13.5563 11.0812C13.6875 11.2875 13.7062 11.55 13.6125 11.7937C13.575 11.8687 13.5375 11.925 13.5 11.9812C13.275 12.225 12.9375 12.3 12.6375 12.1687L8.8875 10.5L8.26875 11.8687L12.0187 13.5375C12.3187 13.6687 12.6375 13.7437 12.9375 13.7437C13.575 13.7437 14.175 13.4812 14.625 12.975C14.775 12.8062 14.9062 12.6187 15 12.4125C15.3 11.7187 15.2437 10.9312 14.85 10.2937C14.6062 9.91872 14.2688 9.61872 13.875 9.44997L9 7.27496C8.41875 7.01246 7.78125 6.84371 7.14375 6.76871C5.49375 6.58121 3.8625 7.03121 2.55 8.02496L0.1875 9.95621V18.1875H1.6875V10.6687Z" fill="#B4B4BB"/>
</g>
</svg>
