<svg width="50" height="50" viewBox="0 0 50 50" fill="none" xmlns="http://www.w3.org/2000/svg">
<circle cx="25" cy="25" r="25" fill="white"/>
<path d="M22.5 26.25H13.75C13.4185 26.25 13.1005 26.3817 12.8661 26.6161C12.6317 26.8505 12.5 27.1685 12.5 27.5V36.25C12.5 36.5815 12.6317 36.8995 12.8661 37.1339C13.1005 37.3683 13.4185 37.5 13.75 37.5H22.5C22.8315 37.5 23.1495 37.3683 23.3839 37.1339C23.6183 36.8995 23.75 36.5815 23.75 36.25V27.5C23.75 27.1685 23.6183 26.8505 23.3839 26.6161C23.1495 26.3817 22.8315 26.25 22.5 26.25ZM21.25 35H15V28.75H21.25V35ZM36.25 12.5H27.5C27.1685 12.5 26.8505 12.6317 26.6161 12.8661C26.3817 13.1005 26.25 13.4185 26.25 13.75V22.5C26.25 22.8315 26.3817 23.1495 26.6161 23.3839C26.8505 23.6183 27.1685 23.75 27.5 23.75H36.25C36.5815 23.75 36.8995 23.6183 37.1339 23.3839C37.3683 23.1495 37.5 22.8315 37.5 22.5V13.75C37.5 13.4185 37.3683 13.1005 37.1339 12.8661C36.8995 12.6317 36.5815 12.5 36.25 12.5ZM35 21.25H28.75V15H35V21.25ZM36.25 26.25H27.5C27.1685 26.25 26.8505 26.3817 26.6161 26.6161C26.3817 26.8505 26.25 27.1685 26.25 27.5V36.25C26.25 36.5815 26.3817 36.8995 26.6161 37.1339C26.8505 37.3683 27.1685 37.5 27.5 37.5H36.25C36.5815 37.5 36.8995 37.3683 37.1339 37.1339C37.3683 36.8995 37.5 36.5815 37.5 36.25V27.5C37.5 27.1685 37.3683 26.8505 37.1339 26.6161C36.8995 26.3817 36.5815 26.25 36.25 26.25ZM35 35H28.75V28.75H35V35ZM22.5 12.5H13.75C13.4185 12.5 13.1005 12.6317 12.8661 12.8661C12.6317 13.1005 12.5 13.4185 12.5 13.75V22.5C12.5 22.8315 12.6317 23.1495 12.8661 23.3839C13.1005 23.6183 13.4185 23.75 13.75 23.75H22.5C22.8315 23.75 23.1495 23.6183 23.3839 23.3839C23.6183 23.1495 23.75 22.8315 23.75 22.5V13.75C23.75 13.4185 23.6183 13.1005 23.3839 12.8661C23.1495 12.6317 22.8315 12.5 22.5 12.5ZM21.25 21.25H15V15H21.25V21.25Z" fill="#5A5B6A"/>
</svg>
