<svg width="42" height="42" viewBox="0 0 42 42" fill="none" xmlns="http://www.w3.org/2000/svg">
<path d="M31.4166 14.7503H10.5833C10.0308 14.7503 9.50086 14.9698 9.11016 15.3605C8.71946 15.7512 8.49996 16.2811 8.49996 16.8337C8.49996 17.3862 8.71946 17.9161 9.11016 18.3068C9.50086 18.6975 10.0308 18.917 10.5833 18.917H31.4166C31.9692 18.917 32.4991 18.6975 32.8898 18.3068C33.2805 17.9161 33.5 17.3862 33.5 16.8337C33.5 16.2811 33.2805 15.7512 32.8898 15.3605C32.4991 14.9698 31.9692 14.7503 31.4166 14.7503ZM23.0833 23.0837H10.5833C10.0308 23.0837 9.50086 23.3032 9.11016 23.6939C8.71946 24.0846 8.49996 24.6145 8.49996 25.167C8.49996 25.7195 8.71946 26.2494 9.11016 26.6401C9.50086 27.0308 10.0308 27.2503 10.5833 27.2503H23.0833C23.6358 27.2503 24.1657 27.0308 24.5564 26.6401C24.9471 26.2494 25.1666 25.7195 25.1666 25.167C25.1666 24.6145 24.9471 24.0846 24.5564 23.6939C24.1657 23.3032 23.6358 23.0837 23.0833 23.0837ZM21 0.166992C18.2641 0.166992 15.555 0.705862 13.0274 1.75284C10.4998 2.79981 8.20313 4.33438 6.26857 6.26893C2.36157 10.1759 0.166632 15.475 0.166632 21.0003C0.148419 25.811 1.81412 30.4764 4.87497 34.1878L0.708298 38.3545C0.41922 38.6475 0.223394 39.0195 0.145532 39.4236C0.067669 39.8278 0.111258 40.2459 0.270798 40.6253C0.443836 41.0002 0.724349 41.3152 1.07673 41.5303C1.42911 41.7454 1.83747 41.851 2.24996 41.8337H21C26.5253 41.8337 31.8243 39.6387 35.7314 35.7317C39.6384 31.8247 41.8333 26.5257 41.8333 21.0003C41.8333 15.475 39.6384 10.1759 35.7314 6.26893C31.8243 2.36193 26.5253 0.166992 21 0.166992ZM21 37.667H7.2708L9.2083 35.7295C9.59632 35.3392 9.81412 34.8111 9.81412 34.2607C9.81412 33.7104 9.59632 33.1823 9.2083 32.792C6.48035 30.0671 4.78158 26.4806 4.4014 22.6436C4.02123 18.8067 4.98318 14.9566 7.12335 11.7493C9.26353 8.54207 12.4495 6.17607 16.1385 5.05444C19.8275 3.9328 23.7913 4.12492 27.3546 5.59806C30.9178 7.07121 33.8601 9.73423 35.68 13.1334C37.5 16.5326 38.0851 20.4577 37.3356 24.2399C36.5862 28.0221 34.5485 31.4275 31.5698 33.8758C28.5911 36.3242 24.8557 37.664 21 37.667Z" fill="#00A859"/>
</svg>
