<svg width="14" height="8" viewBox="0 0 14 8" fill="none" xmlns="http://www.w3.org/2000/svg">
<path d="M13.25 0.462123C13.0158 0.22931 12.699 0.0986328 12.3687 0.0986328C12.0385 0.0986328 11.7217 0.22931 11.4875 0.462123L7 4.88712L2.575 0.462123C2.34079 0.22931 2.02398 0.0986328 1.69375 0.0986328C1.36351 0.0986328 1.0467 0.22931 0.812497 0.462123C0.695336 0.578327 0.602343 0.716578 0.538882 0.868903C0.475422 1.02123 0.442749 1.18461 0.442749 1.34962C0.442749 1.51464 0.475422 1.67802 0.538882 1.83034C0.602343 1.98267 0.695336 2.12092 0.812497 2.23712L6.1125 7.53712C6.2287 7.65428 6.36695 7.74728 6.51928 7.81074C6.6716 7.8742 6.83498 7.90687 7 7.90687C7.16501 7.90687 7.32839 7.8742 7.48072 7.81074C7.63304 7.74728 7.77129 7.65428 7.8875 7.53712L13.25 2.23712C13.3672 2.12092 13.4602 1.98267 13.5236 1.83034C13.5871 1.67802 13.6197 1.51464 13.6197 1.34962C13.6197 1.18461 13.5871 1.02123 13.5236 0.868903C13.4602 0.716578 13.3672 0.578327 13.25 0.462123Z" fill="#232340"/>
</svg>
