<svg width="15" height="15" viewBox="0 0 15 15" fill="none" xmlns="http://www.w3.org/2000/svg">
<path d="M8.32867 7.02362L14.8284 0.936751C15.0572 0.722449 15.0572 0.375001 14.8284 0.160726C14.5995 -0.053548 14.2285 -0.0535755 13.9997 0.160726L7.49998 6.2476L1.00029 0.160726C0.77145 -0.0535755 0.400436 -0.0535755 0.171628 0.160726C-0.05718 0.375028 -0.0572093 0.722476 0.171628 0.936751L6.67133 7.0236L0.171628 13.1105C-0.0572093 13.3248 -0.0572093 13.6722 0.171628 13.8865C0.286032 13.9936 0.436002 14.0472 0.585972 14.0472C0.735943 14.0472 0.885884 13.9936 1.00032 13.8865L7.49998 7.79965L13.9997 13.8865C14.1141 13.9936 14.2641 14.0472 14.414 14.0472C14.564 14.0472 14.7139 13.9936 14.8284 13.8865C15.0572 13.6722 15.0572 13.3247 14.8284 13.1105L8.32867 7.02362Z" fill="#347345"/>
</svg>
