<svg width="30" height="30" viewBox="0 0 30 30" fill="none" xmlns="http://www.w3.org/2000/svg">
<circle cx="15" cy="15" r="15" fill="white"/>
<path d="M16.3287 15.0236L22.8284 8.93675C23.0572 8.72245 23.0572 8.375 22.8284 8.16073C22.5995 7.94645 22.2285 7.94642 21.9997 8.16073L15.5 14.2476L9.00029 8.16073C8.77145 7.94642 8.40044 7.94642 8.17163 8.16073C7.94282 8.37503 7.94279 8.72248 8.17163 8.93675L14.6713 15.0236L8.17163 21.1105C7.94279 21.3248 7.94279 21.6722 8.17163 21.8865C8.28603 21.9936 8.436 22.0472 8.58597 22.0472C8.73594 22.0472 8.88588 21.9936 9.00032 21.8865L15.5 15.7996L21.9997 21.8865C22.1141 21.9936 22.2641 22.0472 22.414 22.0472C22.564 22.0472 22.7139 21.9936 22.8284 21.8865C23.0572 21.6722 23.0572 21.3247 22.8284 21.1105L16.3287 15.0236Z" fill="#347345"/>
</svg>
