<svg width="100" height="100" viewBox="0 0 100 100" fill="none" xmlns="http://www.w3.org/2000/svg">
<rect width="100" height="100" rx="50" fill="#E0FFE8"/>
<path d="M72.3707 22.3428V88.5863H28.125V22.3428H41.9986V25.0925H58.497V22.3428H72.3707Z" fill="#FFEEA9"/>
<path d="M58.6219 16.8433H41.9985V25.0925H58.6219V16.8433Z" fill="#E0FFE8"/>
<path d="M50.2477 52.7147C54.8036 52.7147 58.4969 49.0214 58.4969 44.4655C58.4969 39.9096 54.8036 36.2163 50.2477 36.2163C45.6918 36.2163 41.9985 39.9096 41.9985 44.4655C41.9985 49.0214 45.6918 52.7147 50.2477 52.7147Z" fill="#ABFFC0"/>
<path d="M63.9963 63.7133H36.499C36.499 57.5889 41.4985 52.7144 47.4979 52.7144H52.9974C59.1218 52.7144 63.9963 57.5889 63.9963 63.7133Z" fill="#E0FFE8"/>
<path d="M72.3706 20.9677H59.9968V16.8431C59.9968 16.0932 59.3718 15.4682 58.6219 15.4682H57.1221C56.8721 14.0934 56.2471 12.9685 55.2472 11.9686C52.6225 9.34381 47.998 9.34381 45.4982 11.9686C44.4983 12.9685 43.8734 14.0934 43.6234 15.4682H42.1235C41.3736 15.4682 40.7487 16.0932 40.7487 16.8431V20.9677H28.3749C27.6249 20.9677 27 21.5926 27 22.3425V88.5861C27 89.336 27.6249 89.9609 28.3749 89.9609H72.4956C73.2455 89.9609 73.8704 89.336 73.8704 88.5861V22.3425C73.7454 21.5926 73.1205 20.9677 72.3706 20.9677ZM47.373 13.8434C48.8729 12.3435 51.6226 12.2185 53.2474 13.8434C53.7474 14.2183 53.9974 14.8433 54.2473 15.3432H46.3731C46.4981 14.8433 46.8731 14.3433 47.373 13.8434ZM43.3734 18.2179H44.7483H55.7472H57.1221V22.3425V23.7174H43.3734V22.3425V18.2179ZM70.9957 87.2112H29.4998V23.7174H40.4987V25.0923C40.4987 25.8422 41.1236 26.4671 41.8735 26.4671H58.4969C59.2468 26.4671 59.8718 25.8422 59.8718 25.0923V23.7174H70.8707V87.2112H70.9957Z" fill="#055F9B"/>
<path d="M59.8718 44.4654C59.8718 39.0909 55.4973 34.8413 50.2478 34.8413C44.9983 34.8413 40.6237 39.2159 40.6237 44.4654C40.6237 47.4651 41.9986 50.0898 44.1234 51.8396C38.8739 53.3395 34.9993 58.089 34.9993 63.7135C34.9993 64.4634 35.6242 65.0883 36.3741 65.0883H63.9964C64.7464 65.0883 65.3713 64.4634 65.3713 63.7135C65.3713 58.089 61.4967 53.3395 56.2472 51.8396C58.497 50.0898 59.8718 47.4651 59.8718 44.4654ZM43.3735 44.4654C43.3735 40.7157 46.4981 37.591 50.2478 37.591C53.9974 37.591 57.1221 40.7157 57.1221 44.4654C57.1221 48.215 53.9974 51.3397 50.2478 51.3397C46.4981 51.3397 43.3735 48.215 43.3735 44.4654ZM52.9975 54.0894C57.872 54.0894 61.8716 57.7141 62.6216 62.3386H37.874C38.4989 57.7141 42.6235 54.0894 47.498 54.0894H52.9975Z" fill="#055F9B"/>
<path d="M63.9964 70.5879H36.4991C35.7492 70.5879 35.1243 71.2128 35.1243 71.9628C35.1243 72.7127 35.7492 73.3376 36.4991 73.3376H63.9964C64.7464 73.3376 65.3713 72.7127 65.3713 71.9628C65.3713 71.2128 64.8714 70.5879 63.9964 70.5879Z" fill="#055F9B"/>
<path d="M63.9964 78.9619H36.4991C35.7492 78.9619 35.1243 79.5869 35.1243 80.3368C35.1243 81.0867 35.7492 81.7116 36.4991 81.7116H63.9964C64.7464 81.7116 65.3713 81.0867 65.3713 80.3368C65.3713 79.5869 64.8714 78.9619 63.9964 78.9619Z" fill="#055F9B"/>
</svg>
