<svg width="106" height="103" viewBox="0 0 106 103" fill="none" xmlns="http://www.w3.org/2000/svg">
<path fill-rule="evenodd" clip-rule="evenodd" d="M8.49327 11.8513C14.3181 10.4264 19.761 9.25082 24.8222 8.32462C30.6442 7.25921 36.59 6.40863 42.6597 5.77287C44.2591 5.60535 45.8633 6.03912 47.1806 6.99531L71.5001 24.648C72.7691 25.5692 73.6922 26.9174 74.1129 28.4642L74.2847 29.1039C75.7485 34.619 77.2914 42.1202 78.9133 51.6073L79.2475 53.5836C80.5785 61.5455 81.5454 68.4513 82.1483 74.3011L82.2006 74.8145C82.5385 78.1778 80.5003 81.3073 77.3672 82.2355C69.575 84.5441 60.3797 86.6786 49.7814 88.6391L49.0034 88.7823C38.5681 90.6919 29.7126 91.9002 22.4368 92.407L21.9645 92.4391C18.7761 92.6498 15.8865 90.499 15.0564 87.2971C12.3879 77.0048 9.89753 65.054 7.58533 51.4446L7.34501 50.0201C5.32944 37.9865 4.00678 27.8619 3.37702 19.6462L3.34078 19.1651C3.09182 15.8017 5.19941 12.7459 8.32769 11.8941L8.49327 11.8513Z" fill="#F7F7F7" stroke="#347345" stroke-width="1.39" stroke-linecap="round"/>
<mask id="mask0_66_430" style="mask-type:alpha" maskUnits="userSpaceOnUse" x="2" y="5" width="81" height="89">
<path fill-rule="evenodd" clip-rule="evenodd" d="M8.49327 11.8513C14.3181 10.4264 19.761 9.25082 24.8222 8.32462C30.6442 7.25921 36.59 6.40863 42.6597 5.77287C44.2591 5.60535 45.8633 6.03912 47.1806 6.99531L71.5001 24.648C72.7691 25.5692 73.6922 26.9174 74.1129 28.4642L74.2847 29.1039C75.7485 34.619 77.2914 42.1202 78.9133 51.6073L79.2475 53.5836C80.5785 61.5455 81.5454 68.4513 82.1483 74.3011L82.2006 74.8145C82.5385 78.1778 80.5003 81.3073 77.3672 82.2355C69.575 84.5441 60.3797 86.6786 49.7814 88.6391L49.0034 88.7823C38.5681 90.6919 29.7126 91.9002 22.4368 92.407L21.9645 92.4391C18.7761 92.6498 15.8865 90.499 15.0564 87.2971C12.3879 77.0048 9.89753 65.054 7.58533 51.4446L7.34501 50.0201C5.32944 37.9865 4.00678 27.8619 3.37702 19.6462L3.34078 19.1651C3.09182 15.8017 5.19941 12.7459 8.32769 11.8941L8.49327 11.8513Z" fill="white" stroke="white" stroke-width="1.39" stroke-linecap="round"/>
</mask>
<g mask="url(#mask0_66_430)">
<path fill-rule="evenodd" clip-rule="evenodd" d="M45.5027 5.46094L72.6605 25.807L53.6402 29.2877C51.4498 29.6885 49.361 28.1706 48.9748 25.8973L45.5027 5.46094Z" fill="white" stroke="#347345" stroke-width="1.39" stroke-linecap="round"/>
<path fill-rule="evenodd" clip-rule="evenodd" d="M24.2452 41.8255C24.2452 41.8255 28.9032 37.1689 32.3148 39.7708C33.6723 40.806 36.4268 43.1557 31.0203 54.2326C27.9527 60.5178 33.581 62.3497 36.9369 57.7607C41.7994 51.1116 43.5832 46.6331 49.4623 48.0284C54.9714 49.3359 56.4592 59.3062 52.1983 64.1323C47.9375 68.9584 41.4465 63.7876 44.4948 58.6054C47.5431 53.4231 52.8196 50.4024 60.6874 51.5065" fill="#F7F7F7"/>
<path d="M24.2452 41.8255C24.2452 41.8255 28.9032 37.1689 32.3148 39.7708C33.6723 40.806 36.4268 43.1557 31.0203 54.2326C27.9527 60.5178 33.581 62.3497 36.9369 57.7607C41.7994 51.1116 43.5832 46.6331 49.4623 48.0284C54.9714 49.3359 56.4592 59.3062 52.1983 64.1323C47.9375 68.9584 41.4465 63.7876 44.4948 58.6054C47.5431 53.4231 52.8196 50.4024 60.6874 51.5065" stroke="#347345" stroke-width="1.39" stroke-linecap="round"/>
</g>
<path fill-rule="evenodd" clip-rule="evenodd" d="M99.8789 39.1916L97.9881 42.3182C91.893 52.3606 86.5977 60.7233 82.1023 67.4066L81.8281 67.8136C76.7589 75.3271 71.4012 82.6309 65.7549 89.725C64.3516 91.4881 62.7162 93.0376 60.8969 94.3279L54.6445 98.762C53.7263 99.4132 52.4733 99.1685 51.8459 98.2156C51.5191 97.7193 51.4141 97.101 51.5576 96.5187L53.4337 88.9054C53.9798 86.6894 54.8236 84.5641 55.9404 82.5922C60.4369 74.6524 65.2174 66.9293 70.2818 59.4229L71.1148 58.1938C76.0088 51.0041 82.3117 42.2827 90.0235 32.0296C91.9957 29.4073 95.6012 28.8473 98.2268 30.7553C100.852 32.6634 101.579 36.3712 99.8789 39.1916Z" fill="white" stroke="#347345" stroke-width="1.39" stroke-linecap="round"/>
</svg>
