<svg width="62" height="48" viewBox="0 0 62 48" fill="none" xmlns="http://www.w3.org/2000/svg">
<path fill-rule="evenodd" clip-rule="evenodd" d="M50.1626 25.2812C44.1647 25.2812 39.311 30.137 39.311 36.1329C39.311 42.131 44.1647 46.9866 50.1626 46.9866C56.1608 46.9866 61.0143 42.131 61.0143 36.1329C61.0143 30.137 56.1608 25.2812 50.1626 25.2812Z" fill="#F36360"/>
<path d="M50.1627 26.1977C47.4178 26.1977 44.9362 27.305 43.1409 29.1003C41.3457 30.9066 40.2255 33.3882 40.2255 36.1329C40.2255 38.8797 41.3457 41.3612 43.1409 43.1547C44.9363 44.9501 47.4178 46.0702 50.1627 46.0702C52.9076 46.0702 55.3891 44.9501 57.1955 43.1547C58.9909 41.3612 60.0999 38.8796 60.0999 36.1329C60.0999 33.3882 58.9909 30.9064 57.1955 29.1003C55.3891 27.305 52.9076 26.1977 50.1627 26.1977ZM41.839 27.8113C43.9719 25.6804 46.9094 24.3672 50.1627 24.3672C53.4157 24.3672 56.3534 25.6804 58.4845 27.8113C60.6156 29.9442 61.9287 32.882 61.9287 36.1331C61.9287 39.3861 60.6156 42.324 58.4845 44.4569C56.3534 46.5769 53.4157 47.901 50.1627 47.901C46.9094 47.901 43.9719 46.5767 41.839 44.4569C39.7209 42.324 38.3965 39.3732 38.3965 36.1331C38.3967 32.882 39.7209 29.9442 41.839 27.8113Z" fill="#4A374F"/>
<path fill-rule="evenodd" clip-rule="evenodd" d="M55.9436 23.7405V5.84287C55.9436 4.50563 55.4019 3.30195 54.521 2.42285L36.5161 20.441L32.9996 23.9464C31.7467 25.1983 30.1091 25.8492 28.4593 25.8492C26.8207 25.8492 25.1831 25.1983 23.9182 23.9464L20.4138 20.441L12.8977 27.9079L2.40767 38.3385C3.27474 39.2046 4.4914 39.7591 5.81566 39.7591H36.974C36.6606 38.6038 36.4936 37.387 36.4936 36.1332C36.4936 32.3517 38.0219 28.9315 40.5034 26.4631C42.972 23.9946 46.3939 22.4645 50.1624 22.4645C52.2343 22.4645 54.1854 22.9226 55.9436 23.7405Z" fill="#FBCD64"/>
<path fill-rule="evenodd" clip-rule="evenodd" d="M12.8976 27.9079L20.4137 20.441L2.39555 2.42285C1.52848 3.30195 0.985977 4.50563 0.985977 5.84287V34.9296C0.985977 36.2539 1.52848 37.4706 2.39555 38.3386L12.8976 27.9079Z" fill="#FBCD64"/>
<path fill-rule="evenodd" clip-rule="evenodd" d="M20.4138 20.4404L23.9182 23.9458C25.1831 25.1977 26.8207 25.8486 28.4593 25.8486C30.1091 25.8486 31.7467 25.1977 32.9996 23.9458L36.5161 20.4404L54.521 2.42227C53.6549 1.55424 52.4253 1.0127 51.114 1.0127H5.81566C4.4914 1.0127 3.27474 1.55424 2.40767 2.42227L20.4138 20.4404Z" fill="#FBCD64"/>
<path d="M37.2634 40.6752H5.81562C5.04507 40.6752 4.29859 40.5176 3.62429 40.2283C2.92511 39.9406 2.28718 39.5179 1.75671 38.9892L3.0457 37.6875C3.40732 38.0491 3.84044 38.3496 4.32265 38.5424C4.7808 38.7353 5.28611 38.8447 5.81562 38.8447H36.757C36.8906 39.4696 37.0576 40.0853 37.2634 40.6752Z" fill="#4A374F"/>
<path d="M3.04577 3.07346C2.68497 3.4333 2.39567 3.86725 2.19073 4.34959C2.00999 4.79461 1.90143 5.30102 1.90143 5.84256V34.9293C1.90143 35.4598 2.00999 35.9662 2.19073 36.4223C2.27509 36.6154 2.37161 36.7971 2.48003 36.977L19.7629 19.7897L21.0519 21.0786L2.39567 39.6271L1.75679 38.9891C1.22728 38.4587 0.79415 37.8319 0.504853 37.1216C0.227587 36.4465 0.0709076 35.7008 0.0709076 34.9293V5.84256C0.0709076 5.07283 0.227587 4.32539 0.504853 3.6392C0.79415 2.93988 1.22728 2.30195 1.75679 1.77148L3.04577 3.07346Z" fill="#4A374F"/>
<path d="M37.1668 19.7897L42.2857 24.9568L42.2617 24.9809H42.2506L42.2375 24.9939L42.2133 25.0051L42.1892 25.0293L42.1651 25.0423L42.1409 25.0665L42.1167 25.0775L42.0927 25.0905L42.0685 25.1147L42.0444 25.1258L42.0201 25.1499L42.009 25.163L41.9832 25.1741V25.187L41.9609 25.1983L41.935 25.2113L41.9128 25.2334L41.8869 25.2465L41.8646 25.2707H41.8516L41.8386 25.2817L41.8164 25.3057L41.7904 25.319L41.7793 25.3432L41.6587 25.4264L41.6347 25.4396L41.6105 25.4638L41.5975 25.4748L41.5752 25.4989L41.5493 25.5119L41.5271 25.5361L41.503 25.5473L41.4787 25.5714L41.4676 25.5844L41.4418 25.6086L41.4195 25.6196L41.3936 25.6437L41.3713 25.6568L41.286 25.7402L41.2618 25.7532L41.2378 25.7774L41.2266 25.7885H41.2136L41.2006 25.8127L41.1784 25.8257L41.1525 25.8497L41.1302 25.8741L41.1172 25.8851L41.0931 25.8981V25.9092L41.0689 25.9222L41.0447 25.9463L41.0207 25.9575L41.0077 25.9817L40.9854 26.0059H40.9724L40.9593 26.0189L40.937 26.0429L40.924 26.054L40.8999 26.0783L40.8757 26.1024L40.8515 26.1154L35.8662 21.0799L37.1668 19.7897ZM55.0293 23.3543V5.84256C55.0293 5.30102 54.9198 4.79461 54.7268 4.34959C54.5341 3.86725 54.2466 3.4333 53.8719 3.07346L55.1738 1.77148C55.7023 2.30195 56.1233 2.93988 56.4239 3.6392C56.7022 4.32539 56.8579 5.07283 56.8579 5.84256V24.2092L56.8226 24.1852L56.7985 24.1741L56.7743 24.163L56.7502 24.1498L56.7131 24.1258L56.6908 24.1146H56.6777L56.6647 24.1016L56.6426 24.0906L56.6055 24.0646L56.5814 24.0534L56.5572 24.0423L56.535 24.0293H56.5202L56.4979 24.0053L56.4721 23.9942L56.4368 23.9812L56.4126 23.97L56.3904 23.957L56.3533 23.9329L56.3292 23.9217L56.3051 23.9087L56.2681 23.8977L56.2458 23.8847L56.2198 23.8736L56.1847 23.8495L56.1606 23.8365L56.1363 23.8253L56.101 23.8123H56.088L56.075 23.8013L56.0529 23.7883L56.0157 23.7771L55.9916 23.7641L55.9676 23.74H55.9434L55.9302 23.7289L55.9081 23.716L55.871 23.7047L55.847 23.6918L55.8228 23.6807L55.7857 23.6677L55.6781 23.6194L55.6411 23.6084V23.5954H55.6188L55.5928 23.5713L55.5577 23.5601L55.5335 23.5471L55.4964 23.5359H55.4854L55.4742 23.5229L55.4371 23.5117L55.4148 23.4987L55.3888 23.4875L55.3518 23.4745H55.3295V23.4634L55.2925 23.4504L55.2702 23.4392L55.2331 23.4261L55.2089 23.415L55.1847 23.4021H55.1736L55.1478 23.391H55.1255L55.0885 23.378L55.0643 23.3668L55.0293 23.3543Z" fill="#4A374F"/>
<path d="M55.174 3.0735L33.6489 24.5951C32.9515 25.2943 32.1326 25.8358 31.2656 26.1976C30.3623 26.5704 29.4109 26.7633 28.4595 26.7633C27.5082 26.7633 26.5558 26.5704 25.6645 26.1976C24.7975 25.8358 23.9787 25.2944 23.2804 24.5951L1.10684 2.42258L1.75694 1.78451C2.28741 1.25404 2.92534 0.820098 3.62452 0.530801C4.29881 0.254493 5.0453 0.0986328 5.81585 0.0986328H51.1142C51.8839 0.0986328 52.6184 0.254493 53.3065 0.530801C54.0055 0.820098 54.6436 1.25404 55.174 1.78451L55.8232 2.42258L55.174 3.0735ZM32.3617 23.295L53.1488 2.50598C52.9819 2.39838 52.8002 2.30199 52.6073 2.21859C52.1511 2.03676 51.6429 1.92916 51.1142 1.92916H5.81585C5.28633 1.92916 4.78102 2.03676 4.32288 2.21859C4.12997 2.30199 3.94909 2.39838 3.76835 2.50598L24.5683 23.295C25.0988 23.8367 25.7127 24.2335 26.3637 24.5117C27.0379 24.788 27.7481 24.9328 28.4595 24.9328C29.1819 24.9328 29.8922 24.788 30.5665 24.5117C31.2175 24.2335 31.8192 23.8367 32.3617 23.295Z" fill="#4A374F"/>
<path d="M49.2466 40.7829L49.2595 32.3886L47.5957 33.6165C47.1878 33.9187 46.6202 33.8335 46.3197 33.4236C46.0193 33.0156 46.1048 32.4481 46.5126 32.1476L49.621 29.8347C49.7769 29.7273 49.9586 29.666 50.1626 29.666C50.6671 29.666 51.0789 30.0648 51.0789 30.5693V40.7829H53.4638C53.9683 40.7829 54.3653 41.1798 54.3653 41.6861C54.3653 42.1922 53.9684 42.6021 53.4638 42.6021H46.8744C46.3678 42.6021 45.96 42.1922 45.96 41.6861C45.96 41.1798 46.3677 40.7829 46.8744 40.7829H49.2466Z" fill="#4A374F"/>
</svg>
