<svg width="24" height="24" viewBox="0 0 24 24" fill="none" xmlns="http://www.w3.org/2000/svg">
<path d="M12 7.875C9.525 7.875 7.5 9.9 7.5 12.375C7.5 14.85 9.525 16.875 12 16.875C14.475 16.875 16.5 14.85 16.5 12.375C16.5 9.9 14.475 7.875 12 7.875ZM12 15.375C10.35 15.375 9 14.025 9 12.375C9 10.725 10.35 9.375 12 9.375C13.65 9.375 15 10.725 15 12.375C15 14.025 13.65 15.375 12 15.375Z" fill="#347345"/>
<path d="M12 18.8999C9.20626 18.8999 6.52501 20.0624 4.61251 22.1062L4.10626 22.6499L5.19376 23.6812L5.70001 23.1374C7.35001 21.3749 9.58126 20.3999 12 20.3999C14.4188 20.3999 16.65 21.3749 18.3 23.1374L18.8063 23.6812L19.8938 22.6499L19.3875 22.1062C17.475 20.0812 14.7938 18.8999 12 18.8999Z" fill="#347345"/>
<path d="M18.1875 8.9812V10.4812C19.95 10.4812 21.5812 11.1937 22.8 12.4874L23.8875 11.4562C22.425 9.8812 20.3438 8.9812 18.1875 8.9812Z" fill="#347345"/>
<path d="M21.7688 3.74995C21.7688 1.7812 20.1563 0.168701 18.1875 0.168701C16.2188 0.168701 14.6063 1.7812 14.6063 3.74995C14.6063 5.7187 16.2188 7.3312 18.1875 7.3312C20.1563 7.3312 21.7688 5.7187 21.7688 3.74995ZM16.1063 3.74995C16.1063 2.6062 17.0438 1.6687 18.1875 1.6687C19.3313 1.6687 20.2688 2.6062 20.2688 3.74995C20.2688 4.8937 19.3313 5.8312 18.1875 5.8312C17.0438 5.8312 16.1063 4.8937 16.1063 3.74995Z" fill="#347345"/>
<path d="M5.81249 8.9812C3.65624 8.9812 1.57499 9.8812 0.112488 11.4562L1.19999 12.4874C2.39999 11.1937 4.04999 10.4812 5.81249 10.4812V8.9812Z" fill="#347345"/>
<path d="M9.39376 3.74995C9.39376 1.7812 7.78126 0.168701 5.81251 0.168701C3.84376 0.168701 2.23126 1.7812 2.23126 3.74995C2.23126 5.7187 3.84376 7.3312 5.81251 7.3312C7.78126 7.3312 9.39376 5.7187 9.39376 3.74995ZM5.81251 5.8312C4.66876 5.8312 3.73126 4.8937 3.73126 3.74995C3.73126 2.6062 4.66876 1.6687 5.81251 1.6687C6.95626 1.6687 7.89376 2.6062 7.89376 3.74995C7.89376 4.8937 6.95626 5.8312 5.81251 5.8312Z" fill="#347345"/>
</svg>
