<svg width="31" height="31" viewBox="0 0 31 31" fill="none" xmlns="http://www.w3.org/2000/svg">
<path d="M15.5 0.916748C12.6157 0.916748 9.79616 1.77205 7.39795 3.37448C4.99973 4.97692 3.13055 7.25453 2.02677 9.91928C0.92299 12.584 0.634192 15.5163 1.19689 18.3451C1.75959 21.174 3.14852 23.7725 5.18804 25.8121C7.22755 27.8516 9.82606 29.2405 12.6549 29.8032C15.4838 30.3659 18.4161 30.0771 21.0808 28.9733C23.7456 27.8696 26.0232 26.0004 27.6256 23.6021C29.228 21.2039 30.0833 18.3844 30.0833 15.5001C30.0833 13.585 29.7061 11.6886 28.9733 9.91928C28.2404 8.14995 27.1662 6.5423 25.812 5.18811C24.4578 3.83392 22.8501 2.75972 21.0808 2.02684C19.3115 1.29396 17.4151 0.916748 15.5 0.916748ZM15.5 27.1668C12.4058 27.1667 9.43836 25.9376 7.25043 23.7497C5.06251 21.5617 3.83334 18.5943 3.83334 15.5001C3.83012 12.9091 4.69816 10.3923 6.29793 8.35425L22.6458 24.7022C20.6078 26.3019 18.091 27.17 15.5 27.1668ZM24.7021 22.6459L8.35418 6.298C10.3923 4.69823 12.9091 3.83019 15.5 3.83342C18.5942 3.83342 21.5617 5.06258 23.7496 7.2505C25.9375 9.43843 27.1667 12.4059 27.1667 15.5001C27.1699 18.091 26.3019 20.6078 24.7021 22.6459Z" fill="#E1E1E3"/>
</svg>
