<svg width="41" height="41" viewBox="0 0 41 41" fill="none" xmlns="http://www.w3.org/2000/svg">
<rect x="0.5" y="0.5" width="40" height="40" rx="20" fill="#FF5B5B" fill-opacity="0.1"/>
<path d="M20.5 16.5C19.9696 16.5 19.4609 16.7107 19.0858 17.0858C18.7107 17.4609 18.5 17.9696 18.5 18.5C18.5021 18.849 18.5955 19.1914 18.771 19.4932C18.9464 19.7949 19.1977 20.0455 19.5 20.22V23.5C19.5 23.7652 19.6054 24.0196 19.7929 24.2071C19.9804 24.3946 20.2348 24.5 20.5 24.5C20.7652 24.5 21.0196 24.3946 21.2071 24.2071C21.3946 24.0196 21.5 23.7652 21.5 23.5V20.22C21.8023 20.0455 22.0536 19.7949 22.2291 19.4932C22.4045 19.1914 22.4979 18.849 22.5 18.5C22.5 17.9696 22.2893 17.4609 21.9142 17.0858C21.5391 16.7107 21.0304 16.5 20.5 16.5ZM20.5 10.5C18.5222 10.5 16.5888 11.0865 14.9443 12.1853C13.2998 13.2841 12.0181 14.8459 11.2612 16.6732C10.5043 18.5004 10.3063 20.5111 10.6922 22.4509C11.078 24.3907 12.0304 26.1725 13.4289 27.5711C14.8275 28.9696 16.6093 29.922 18.5491 30.3079C20.4889 30.6937 22.4996 30.4957 24.3268 29.7388C26.1541 28.9819 27.7159 27.7002 28.8147 26.0557C29.9135 24.4112 30.5 22.4778 30.5 20.5C30.5 19.1868 30.2413 17.8864 29.7388 16.6732C29.2363 15.4599 28.4997 14.3575 27.5711 13.4289C26.6425 12.5003 25.5401 11.7638 24.3268 11.2612C23.1136 10.7587 21.8132 10.5 20.5 10.5ZM20.5 28.5C18.9178 28.5 17.371 28.0308 16.0554 27.1518C14.7398 26.2727 13.7145 25.0233 13.109 23.5615C12.5035 22.0997 12.345 20.4911 12.6537 18.9393C12.9624 17.3874 13.7243 15.962 14.8432 14.8431C15.962 13.7243 17.3874 12.9624 18.9393 12.6537C20.4911 12.345 22.0997 12.5035 23.5615 13.109C25.0233 13.7145 26.2727 14.7398 27.1518 16.0554C28.0308 17.371 28.5 18.9177 28.5 20.5C28.5 22.6217 27.6572 24.6566 26.1569 26.1569C24.6566 27.6571 22.6217 28.5 20.5 28.5Z" fill="#F44336"/></svg>
