<svg width="18" height="18" viewBox="0 0 18 18" fill="none" xmlns="http://www.w3.org/2000/svg">
<path d="M18 16.875C18 17.496 17.496 18 16.875 18H1.125C0.504 18 0 17.496 0 16.875V1.125C0 0.504 0.504 0 1.125 0H16.875C17.496 0 18 0.504 18 1.125V16.875Z" fill="#B4B4BB"/>
<path d="M12.375 18V11.25H14.625L15.1875 8.4375H12.375V7.3125C12.375 6.1875 12.9386 5.625 14.0625 5.625H15.1875V2.8125C14.625 2.8125 13.9275 2.8125 12.9375 2.8125C10.8703 2.8125 9.5625 4.43306 9.5625 6.75V8.4375H7.3125V11.25H9.5625V18H12.375Z" fill="white"/>
</svg>
