<svg width="50" height="50" viewBox="0 0 50 50" fill="none" xmlns="http://www.w3.org/2000/svg">
<circle cx="25" cy="25" r="25" fill="white"/>
<path d="M36.1 12.9414H36.1001C36.4637 12.9414 36.8126 13.0845 37.0715 13.3397C37.3304 13.595 37.4784 13.9419 37.4835 14.3054L37.4835 14.3066L37.6001 22.0052C37.6001 22.0055 37.6001 22.0059 37.6001 22.0062C37.6025 22.1902 37.568 22.3729 37.4985 22.5433C37.4289 22.714 37.3256 22.869 37.1949 22.999L37.1927 23.0012L23.551 36.6512L23.5503 36.6519C23.4218 36.7807 23.2692 36.883 23.1011 36.9527C22.933 37.0225 22.7528 37.0584 22.5709 37.0584C22.3889 37.0584 22.2087 37.0225 22.0406 36.9527C21.8726 36.883 21.7199 36.7807 21.5914 36.6519L21.5905 36.651L13.9111 28.9716C13.9105 28.971 13.9099 28.9704 13.9093 28.9698C13.6513 28.7079 13.5066 28.355 13.5066 27.9872C13.5066 27.6196 13.6512 27.2668 13.9091 27.0049L27.5898 13.3492L27.5898 13.3492L27.5944 13.3446C27.72 13.2175 27.8695 13.1165 28.0342 13.0474C28.1984 12.9784 28.3745 12.9424 28.5525 12.9414H36.1ZM24.2584 37.3581L37.9 23.7081L20.8834 37.3581C21.1048 37.5801 21.3678 37.7562 21.6573 37.8763C21.9469 37.9965 22.2574 38.0584 22.5709 38.0584C22.8844 38.0584 23.1948 37.9965 23.4844 37.8763C23.774 37.7562 24.037 37.5801 24.2584 37.3581ZM36.3516 15.0035L35.5615 15.5567L36.3516 15.0035C36.0507 14.5738 35.6298 14.2424 35.1415 14.0508C34.6533 13.8591 34.1193 13.8157 33.6065 13.926C33.0937 14.0363 32.6248 14.2954 32.2585 14.6709C31.8922 15.0463 31.6447 15.5215 31.5471 16.0369C31.4495 16.5522 31.5061 17.085 31.7097 17.5684C31.9134 18.0518 32.2551 18.4644 32.692 18.7545C33.129 19.0447 33.6419 19.1996 34.1664 19.1997C34.5223 19.1999 34.8746 19.1287 35.2025 18.9906C35.5305 18.8524 35.8275 18.65 36.076 18.3953L35.3602 17.6969L36.076 18.3953C36.3245 18.1405 36.5195 17.8386 36.6495 17.5074C36.7796 17.1761 36.842 16.8222 36.8331 16.4664C36.8199 15.942 36.6525 15.4332 36.3516 15.0035Z" stroke="#5A5B6A" stroke-width="2"/>
<path d="M26.034 20.3104C26.0271 20.2192 26.0025 20.1303 25.9613 20.0488C25.9202 19.9672 25.8634 19.8945 25.7943 19.8349C25.7251 19.7753 25.6449 19.7299 25.5582 19.7014C25.4716 19.6728 25.3801 19.6616 25.2892 19.6685C25.1982 19.6753 25.1094 19.7 25.028 19.7412C24.9465 19.7824 24.874 19.8392 24.8145 19.9085C24.7549 19.9778 24.7096 20.0581 24.6811 20.1449C24.6526 20.2318 24.6414 20.3233 24.6483 20.4145L25.3411 29.6929C25.3553 29.8758 25.4412 30.0458 25.5802 30.1654C25.7191 30.2851 25.8997 30.3447 26.0825 30.3313C26.2577 30.319 26.4217 30.2405 26.5413 30.1117C26.6609 29.9828 26.7272 29.8133 26.7268 29.6373C26.7307 29.619 26.7307 29.6001 26.7268 29.5818L26.034 20.3104ZM29.5882 22.3507C29.1771 22.3507 28.7753 22.4728 28.4335 22.7015C28.0917 22.9303 27.8252 23.2554 27.6679 23.6358C27.5106 24.0163 27.4694 24.4349 27.5496 24.8387C27.6298 25.2426 27.8278 25.6135 28.1185 25.9047C28.4092 26.1959 28.7795 26.3941 29.1827 26.4745C29.5859 26.5548 30.0038 26.5136 30.3836 26.356C30.7634 26.1984 31.0881 25.9316 31.3165 25.5892C31.5448 25.2468 31.6667 24.8443 31.6667 24.4326C31.6667 23.8804 31.4478 23.3509 31.058 22.9604C30.6682 22.57 30.1395 22.3507 29.5882 22.3507ZM29.5882 25.1265C29.4512 25.1265 29.3172 25.0858 29.2033 25.0096C29.0894 24.9333 29.0006 24.8249 28.9481 24.6981C28.8957 24.5713 28.882 24.4318 28.9087 24.2972C28.9354 24.1626 29.0014 24.0389 29.0983 23.9419C29.1952 23.8448 29.3187 23.7787 29.4531 23.7519C29.5875 23.7251 29.7268 23.7389 29.8534 23.7914C29.98 23.8439 30.0882 23.9329 30.1643 24.047C30.2404 24.1611 30.2811 24.2953 30.2811 24.4326C30.2811 24.6166 30.2081 24.7931 30.0781 24.9233C29.9482 25.0534 29.772 25.1265 29.5882 25.1265ZM21.7453 23.2598C21.3342 23.2598 20.9323 23.3819 20.5905 23.6106C20.2487 23.8394 19.9823 24.1645 19.825 24.545C19.6676 24.9254 19.6265 25.344 19.7067 25.7478C19.7869 26.1517 19.9848 26.5226 20.2755 26.8138C20.5662 27.105 20.9366 27.3032 21.3398 27.3836C21.743 27.4639 22.1609 27.4227 22.5407 27.2651C22.9205 27.1075 23.2451 26.8407 23.4735 26.4983C23.7019 26.1559 23.8238 25.7534 23.8238 25.3417C23.8238 24.7895 23.6048 24.26 23.215 23.8695C22.8252 23.4791 22.2965 23.2598 21.7453 23.2598ZM21.7453 26.0356C21.6082 26.0356 21.4743 25.9949 21.3603 25.9187C21.2464 25.8424 21.1576 25.734 21.1052 25.6072C21.0527 25.4804 21.039 25.3409 21.0657 25.2063C21.0925 25.0717 21.1585 24.948 21.2554 24.851C21.3523 24.7539 21.4757 24.6878 21.6101 24.661C21.7445 24.6343 21.8838 24.648 22.0104 24.7005C22.137 24.753 22.2452 24.842 22.3213 24.9561C22.3975 25.0702 22.4381 25.2044 22.4381 25.3417C22.4381 25.5257 22.3651 25.7022 22.2352 25.8324C22.1053 25.9625 21.929 26.0356 21.7453 26.0356Z" fill="#5A5B6A"/>
</svg>
