<svg width="50" height="50" viewBox="0 0 50 50" fill="none" xmlns="http://www.w3.org/2000/svg">
<circle cx="25" cy="25" r="25" fill="#EEFFF2"/>
<path d="M40.0003 19.7765L24.9726 26.9146L9.94739 19.7765L24.9726 12.6362L40.0003 19.7765Z" fill="white"/>
<path d="M24.9725 27.7982C24.8428 27.7982 24.7137 27.7697 24.5934 27.7127L9.56821 20.5742C9.26017 20.428 9.06395 20.1171 9.0636 19.776C9.0636 19.4349 9.25982 19.124 9.56786 18.9778L24.5934 11.8379C24.8333 11.724 25.1121 11.724 25.3516 11.8379L40.3793 18.9781C40.6873 19.1244 40.8839 19.4353 40.8839 19.7764C40.8839 20.1175 40.6873 20.4283 40.3793 20.5746L25.3516 27.7127C25.2313 27.7697 25.1023 27.7982 24.9725 27.7982ZM12.0058 19.7764L24.9725 25.9369L37.9417 19.7764L24.9725 13.6141L12.0058 19.7764Z" fill="#00A859"/>
<path d="M24.9725 33.8168C24.8427 33.8168 24.7137 33.7883 24.5934 33.7313L9.56818 26.5929C9.12756 26.3833 8.93978 25.8562 9.14937 25.4156C9.35895 24.9749 9.88572 24.7875 10.3267 24.9967L24.9728 31.9552L39.6215 24.9967C40.0631 24.7875 40.5895 24.9749 40.7988 25.4156C41.008 25.8565 40.8206 26.3833 40.38 26.5929L25.3516 33.7313C25.2313 33.7883 25.1022 33.8168 24.9725 33.8168Z" fill="#00A859"/>
<path d="M24.9725 39.8375C24.8427 39.8375 24.7133 39.809 24.5934 39.7521L9.56818 32.6129C9.12756 32.4033 8.93978 31.8762 9.14937 31.4356C9.35895 30.995 9.88572 30.8075 10.3267 31.0168L24.9728 37.9759L39.6215 31.0168C40.0631 30.8075 40.5895 30.9953 40.7988 31.4356C41.008 31.8762 40.8206 32.4033 40.38 32.6129L25.3516 39.7521C25.2313 39.809 25.1022 39.8375 24.9725 39.8375Z" fill="#00A859"/>
</svg>
