<svg width="50" height="50" viewBox="0 0 50 50" fill="none" xmlns="http://www.w3.org/2000/svg">
<circle cx="25" cy="25" r="25" fill="#EEFFF2"/>
<path d="M25 27C27.7614 27 30 24.7614 30 22C30 19.2386 27.7614 17 25 17C22.2386 17 20 19.2386 20 22C20 24.7614 22.2386 27 25 27Z" stroke="#00A859" stroke-width="2" stroke-linecap="round" stroke-linejoin="round"/>
<path d="M32 37C32 35.1435 31.2625 33.363 29.9497 32.0503C28.637 30.7375 26.8565 30 25 30C23.1435 30 21.363 30.7375 20.0503 32.0503C18.7375 33.363 18 35.1435 18 37H32Z" stroke="#00A859" stroke-width="2" stroke-linecap="round" stroke-linejoin="round"/>
<path d="M33 23C33.8523 23 34.6904 22.7821 35.4348 22.3671C36.1792 21.9521 36.8052 21.3537 37.2533 20.6287C37.7013 19.9037 37.9566 19.0762 37.9949 18.2247C38.0333 17.3733 37.8533 16.5262 37.4721 15.7639C37.091 15.0016 36.5213 14.3494 35.8172 13.8692C35.1131 13.389 34.2979 13.0967 33.449 13.0202C32.6002 12.9437 31.7459 13.0854 30.9672 13.4319C30.1885 13.7784 29.5114 14.3182 29 15" stroke="#00A859" stroke-width="2" stroke-linecap="round" stroke-linejoin="round"/>
<path d="M34 33H40C40 31.1435 39.2625 29.363 37.9497 28.0503C36.637 26.7375 34.8565 26 33 26" stroke="#00A859" stroke-width="2" stroke-linecap="round" stroke-linejoin="round"/>
<path d="M21 15C20.4886 14.3182 19.8115 13.7784 19.0328 13.4319C18.2541 13.0854 17.3998 12.9437 16.551 13.0202C15.7021 13.0967 14.8869 13.389 14.1828 13.8692C13.4787 14.3494 12.909 15.0016 12.5279 15.7639C12.1467 16.5262 11.9667 17.3733 12.0051 18.2247C12.0434 19.0762 12.2987 19.9037 12.7467 20.6287C13.1948 21.3537 13.8208 21.9521 14.5652 22.3671C15.3096 22.7821 16.1477 23 17 23" stroke="#00A859" stroke-width="2" stroke-linecap="round" stroke-linejoin="round"/>
<path d="M17 26C15.1435 26 13.363 26.7375 12.0503 28.0503C10.7375 29.363 10 31.1435 10 33H16" stroke="#00A859" stroke-width="2" stroke-linecap="round" stroke-linejoin="round"/>
</svg>
