<svg width="50" height="50" viewBox="0 0 50 50" fill="none" xmlns="http://www.w3.org/2000/svg">
<circle cx="25" cy="25" r="25" fill="#EEFFF2"/>
<path fill-rule="evenodd" clip-rule="evenodd" d="M38.164 19.472C36.914 19.144 33.975 19.148 29.676 19.034C29.879 18.096 29.926 17.25 29.926 15.748C29.926 12.16 27.312 9 25 9C23.367 9 22.021 10.335 22 11.977C21.978 13.991 21.355 17.469 18 19.233C17.754 19.363 17.05 19.71 16.947 19.755L17 19.8C16.475 19.347 15.747 19 15 19H12C10.346 19 9 20.346 9 22V38C9 39.654 10.346 41 12 41H15C16.19 41 17.186 40.281 17.668 39.273C17.68 39.277 17.701 39.283 17.715 39.285C17.781 39.303 17.859 39.322 17.954 39.347C17.972 39.352 17.981 39.354 18 39.359C18.576 39.502 19.685 39.767 22.055 40.312C22.563 40.428 25.247 41 28.027 41H33.494C35.16 41 36.361 40.359 37.076 39.072C37.086 39.052 37.316 38.603 37.504 37.996C37.645 37.539 37.697 36.892 37.527 36.236C38.601 35.498 38.947 34.382 39.172 33.656C39.549 32.465 39.436 31.57 39.174 30.929C39.778 30.359 40.293 29.49 40.51 28.163C40.645 27.341 40.5 26.495 40.121 25.791C40.687 25.155 40.945 24.355 40.975 23.615L40.987 23.406C40.994 23.275 41 23.194 41 22.906C41 21.643 40.125 20.032 38.164 19.472ZM16 38C16 38.553 15.553 39 15 39H12C11.447 39 11 38.553 11 38V22C11 21.447 11.447 21 12 21H15C15.553 21 16 21.447 16 22V38ZM38.977 23.535C38.957 24.029 38.75 25 37 25C35.5 25 35 25 35 25C34.723 25 34.5 25.224 34.5 25.5C34.5 25.776 34.723 26 35 26C35 26 35.438 26 36.938 26C38.438 26 38.635 27.244 38.538 27.844C38.414 28.59 38.064 30 36.375 30C34.688 30 34 30 34 30C33.723 30 33.5 30.223 33.5 30.5C33.5 30.775 33.723 31 34 31C34 31 35.188 31 35.969 31C37.657 31 37.508 32.287 37.266 33.055C36.947 34.064 36.752 35 34.625 35C33.906 35 32.994 35 32.994 35C32.717 35 32.494 35.223 32.494 35.5C32.494 35.775 32.717 36 32.994 36C32.994 36 33.687 36 34.562 36C35.656 36 35.707 37.035 35.593 37.406C35.468 37.812 35.32 38.113 35.314 38.127C35.012 38.672 34.525 39 33.494 39H28.027C25.281 39 22.557 38.377 22.487 38.361C18.333 37.404 18.114 37.33 17.853 37.256C17.853 37.256 17.007 37.113 17.007 36.375L17 22.563C17 22.094 17.299 21.67 17.794 21.521C17.856 21.497 17.94 21.471 18 21.446C22.568 19.554 23.959 15.406 24 12C24.006 11.521 24.375 11 25 11C26.057 11 27.926 13.122 27.926 15.748C27.926 18.119 27.83 18.529 27 21C37 21 36.93 21.144 37.812 21.375C38.906 21.688 39 22.594 39 22.906C39 23.249 38.99 23.199 38.977 23.535Z" fill="#00A859"/>
<path fill-rule="evenodd" clip-rule="evenodd" d="M13.5 35C12.672 35 12 35.672 12 36.5C12 37.328 12.672 38 13.5 38C14.328 38 15 37.328 15 36.5C15 35.672 14.328 35 13.5 35ZM13.5 37C13.225 37 13 36.775 13 36.5C13 36.225 13.225 36 13.5 36C13.775 36 14 36.225 14 36.5C14 36.775 13.775 37 13.5 37Z" fill="#00A859"/>
</svg>
