<svg width="50" height="50" viewBox="0 0 50 50" fill="none" xmlns="http://www.w3.org/2000/svg">
<circle cx="25" cy="25" r="25" fill="#EEFFF2"/>
<path d="M25 9C18.924 9 14 13.924 14 20C14 24.031 17.688 28.303 19.031 32.055C21.034 37.65 20.812 41 25 41C29.25 41 28.965 37.666 30.969 32.078C32.316 28.318 36 24 36 20C36 13.924 31.074 9 25 9ZM27.592 36.176L22.634 36.795C22.457 36.283 22.267 35.684 22.036 34.902C22.033 34.892 22.029 34.881 22.027 34.871L28.215 34.098C28.127 34.393 28.033 34.703 27.951 34.981C27.82 35.43 27.703 35.82 27.592 36.176ZM21.736 33.908C21.554 33.306 21.349 32.672 21.121 32H28.887C28.764 32.359 28.641 32.719 28.535 33.059L21.736 33.908ZM25 39C23.987 39 23.521 38.883 23.003 37.75L27.241 37.219C26.627 38.873 26.18 39 25 39ZM29.672 30H20.339C19.841 28.92 19.243 27.84 18.653 26.783C17.348 24.448 16 22.033 16 20C16 15.037 20.037 11 25 11C29.963 11 34 15.037 34 20C34 22.018 32.65 24.446 31.344 26.795C30.76 27.848 30.166 28.926 29.672 30Z" fill="#00A859"/>
<path d="M25 14C21.691 14 19 16.691 19 20C19 20.276 19.224 20.5 19.5 20.5C19.776 20.5 20 20.276 20 20C20 17.243 22.243 15 25 15C25.276 15 25.5 14.776 25.5 14.5C25.5 14.224 25.275 14 25 14Z" fill="#00A859"/>
</svg>
