<svg width="50" height="50" viewBox="0 0 50 50" fill="none" xmlns="http://www.w3.org/2000/svg">
<circle cx="25" cy="25" r="25" fill="#EEFFF2"/>
<path d="M30 30H20L19 40H31L30 30Z" stroke="#00A859" stroke-width="2" stroke-linecap="round" stroke-linejoin="round"/>
<path d="M17 40H33" stroke="#00A859" stroke-width="2" stroke-linecap="round" stroke-linejoin="round"/>
<path d="M18 10H32V19C32 20.8565 31.2625 22.637 29.9497 23.9497C28.637 25.2625 26.8565 26 25 26V26C23.1435 26 21.363 25.2625 20.0503 23.9497C18.7375 22.637 18 20.8565 18 19V10Z" stroke="#00A859" stroke-width="2" stroke-linecap="round" stroke-linejoin="round"/>
<path d="M25 26V30" stroke="#00A859" stroke-width="2" stroke-linecap="round" stroke-linejoin="round"/>
<path d="M32 10H38V14C38 15.5913 37.3679 17.1174 36.2426 18.2426C35.1174 19.3679 33.5913 20 32 20" stroke="#00A859" stroke-width="2" stroke-linecap="round" stroke-linejoin="round"/>
<path d="M18 10H12V14C12 15.5913 12.6321 17.1174 13.7574 18.2426C14.8826 19.3679 16.4087 20 18 20" stroke="#00A859" stroke-width="2" stroke-linecap="round" stroke-linejoin="round"/>
<path d="M25 22C25.7956 22 26.5587 21.6839 27.1213 21.1213C27.6839 20.5587 28 19.7956 28 19" stroke="#00A859" stroke-width="2" stroke-linecap="round" stroke-linejoin="round"/>
</svg>
