<svg width="18" height="18" viewBox="0 0 18 18" fill="none" xmlns="http://www.w3.org/2000/svg">
<g clip-path="url(#clip0_39_6811)">
<path fill-rule="evenodd" clip-rule="evenodd" d="M15.8008 0C17.0146 0 18 0.98543 18 2.19916V15.8008C18 17.0146 17.0146 18 15.8008 18H2.19916C0.98543 18 0 17.0146 0 15.8008V2.19916C0 0.98543 0.985394 0 2.19916 0H15.8008V0ZM9 2.84766C7.32913 2.84766 7.1196 2.85472 6.46341 2.88468C5.80855 2.91456 5.36133 3.01855 4.96997 3.17067C4.56539 3.32789 4.2223 3.53827 3.88027 3.88027C3.53823 4.2223 3.32786 4.56543 3.17064 4.96997C3.01855 5.36133 2.91456 5.80855 2.88464 6.46341C2.85472 7.1196 2.84766 7.32913 2.84766 9C2.84766 10.6709 2.85472 10.8804 2.88464 11.5366C2.91456 12.1914 3.01855 12.6387 3.17064 13.03C3.32786 13.4346 3.53823 13.7777 3.88027 14.1197C4.2223 14.4618 4.56539 14.6721 4.96997 14.8294C5.36133 14.9814 5.80855 15.0854 6.46341 15.1153C7.1196 15.1453 7.32913 15.1523 9 15.1523C10.6709 15.1523 10.8804 15.1453 11.5366 15.1153C12.1914 15.0854 12.6387 14.9814 13.03 14.8294C13.4346 14.6721 13.7777 14.4618 14.1197 14.1197C14.4618 13.7777 14.6721 13.4346 14.8294 13.03C14.9814 12.6387 15.0854 12.1914 15.1153 11.5366C15.1453 10.8804 15.1523 10.6709 15.1523 9C15.1523 7.32913 15.1453 7.1196 15.1153 6.46341C15.0854 5.80855 14.9814 5.36133 14.8294 4.96997C14.6721 4.56543 14.4618 4.2223 14.1197 3.88027C13.7777 3.53827 13.4346 3.32789 13.03 3.17067C12.6387 3.01855 12.1914 2.91456 11.5366 2.88468C10.8804 2.85472 10.6709 2.84766 9 2.84766ZM9 3.9562C10.6427 3.9562 10.8373 3.96246 11.4861 3.99206C12.0859 4.01945 12.4117 4.11968 12.6285 4.20388C12.9157 4.3155 13.1206 4.44885 13.3359 4.66411C13.5512 4.87941 13.6845 5.08437 13.7961 5.37152C13.8804 5.58833 13.9806 5.91409 14.0079 6.51393C14.0375 7.16266 14.0438 7.35725 14.0438 9C14.0438 10.6427 14.0375 10.8373 14.0079 11.4861C13.9806 12.0859 13.8804 12.4117 13.7961 12.6285C13.6845 12.9157 13.5512 13.1206 13.3359 13.3359C13.1206 13.5512 12.9157 13.6845 12.6285 13.7961C12.4117 13.8804 12.0859 13.9806 11.4861 14.0079C10.8374 14.0375 10.6429 14.0438 9 14.0438C7.35715 14.0438 7.16259 14.0375 6.51393 14.0079C5.91409 13.9806 5.58833 13.8804 5.37152 13.7961C5.08433 13.6845 4.87941 13.5512 4.66411 13.3359C4.44881 13.1206 4.31546 12.9157 4.20388 12.6285C4.11964 12.4117 4.01941 12.0859 3.99203 11.4861C3.96243 10.8373 3.95617 10.6427 3.95617 9C3.95617 7.35725 3.96243 7.16266 3.99203 6.51393C4.01941 5.91409 4.11964 5.58833 4.20388 5.37152C4.31546 5.08437 4.44881 4.87941 4.66411 4.66411C4.87941 4.44885 5.08433 4.3155 5.37152 4.20388C5.58833 4.11968 5.91409 4.01945 6.51393 3.99206C7.16266 3.96246 7.35725 3.9562 9 3.9562ZM9 5.84068C7.25516 5.84068 5.84068 7.25516 5.84068 9C5.84068 10.7448 7.25516 12.1593 9 12.1593C10.7448 12.1593 12.1593 10.7448 12.1593 9C12.1593 7.25516 10.7448 5.84068 9 5.84068ZM9 11.0508C7.86737 11.0508 6.94923 10.1326 6.94923 9C6.94923 7.86737 7.86737 6.94923 9 6.94923C10.1326 6.94923 11.0508 7.86737 11.0508 9C11.0508 10.1326 10.1326 11.0508 9 11.0508ZM13.0224 5.71588C13.0224 6.12362 12.6919 6.45412 12.2841 6.45412C11.8764 6.45412 11.5459 6.12362 11.5459 5.71588C11.5459 5.30814 11.8764 4.9776 12.2841 4.9776C12.6919 4.9776 13.0224 5.30814 13.0224 5.71588Z" fill="#B4B4BB"/>
</g>
<defs>
<clipPath id="clip0_39_6811">
<rect width="18" height="18" fill="white"/>
</clipPath>
</defs>
</svg>
