<svg width="100" height="100" viewBox="0 0 100 100" fill="none" xmlns="http://www.w3.org/2000/svg">
<rect width="100" height="100" rx="50" fill="#E0FFE8"/>
<path d="M44.275 36.7753L47.5 33.5253V62.5003C47.5 63.1634 47.7634 63.7993 48.2322 64.2681C48.7011 64.7369 49.337 65.0003 50 65.0003C50.663 65.0003 51.2989 64.7369 51.7678 64.2681C52.2366 63.7993 52.5 63.1634 52.5 62.5003V33.5253L55.725 36.7753C55.9574 37.0097 56.2339 37.1956 56.5386 37.3226C56.8432 37.4495 57.17 37.5148 57.5 37.5148C57.83 37.5148 58.1568 37.4495 58.4614 37.3226C58.7661 37.1956 59.0426 37.0097 59.275 36.7753C59.5093 36.5429 59.6953 36.2664 59.8222 35.9618C59.9492 35.6571 60.0145 35.3304 60.0145 35.0003C60.0145 34.6703 59.9492 34.3435 59.8222 34.0389C59.6953 33.7342 59.5093 33.4577 59.275 33.2253L51.775 25.7253C51.5426 25.491 51.2661 25.305 50.9614 25.1781C50.6568 25.0512 50.33 24.9858 50 24.9858C49.67 24.9858 49.3432 25.0512 49.0386 25.1781C48.7339 25.305 48.4574 25.491 48.225 25.7253L40.725 33.2253C40.2542 33.6961 39.9898 34.3346 39.9898 35.0003C39.9898 35.6661 40.2542 36.3046 40.725 36.7753C41.1958 37.2461 41.8342 37.5106 42.5 37.5106C43.1658 37.5106 43.8042 37.2461 44.275 36.7753ZM65 42.5003H60C59.337 42.5003 58.7011 42.7637 58.2322 43.2326C57.7634 43.7014 57.5 44.3373 57.5 45.0003C57.5 45.6634 57.7634 46.2993 58.2322 46.7681C58.7011 47.2369 59.337 47.5003 60 47.5003H65C65.663 47.5003 66.2989 47.7637 66.7678 48.2326C67.2366 48.7014 67.5 49.3373 67.5 50.0003V67.5003C67.5 68.1634 67.2366 68.7993 66.7678 69.2681C66.2989 69.7369 65.663 70.0003 65 70.0003H35C34.337 70.0003 33.7011 69.7369 33.2322 69.2681C32.7634 68.7993 32.5 68.1634 32.5 67.5003V50.0003C32.5 49.3373 32.7634 48.7014 33.2322 48.2326C33.7011 47.7637 34.337 47.5003 35 47.5003H40C40.663 47.5003 41.2989 47.2369 41.7678 46.7681C42.2366 46.2993 42.5 45.6634 42.5 45.0003C42.5 44.3373 42.2366 43.7014 41.7678 43.2326C41.2989 42.7637 40.663 42.5003 40 42.5003H35C33.0109 42.5003 31.1032 43.2905 29.6967 44.697C28.2902 46.1036 27.5 48.0112 27.5 50.0003V67.5003C27.5 69.4895 28.2902 71.3971 29.6967 72.8036C31.1032 74.2102 33.0109 75.0003 35 75.0003H65C66.9891 75.0003 68.8968 74.2102 70.3033 72.8036C71.7098 71.3971 72.5 69.4895 72.5 67.5003V50.0003C72.5 48.0112 71.7098 46.1036 70.3033 44.697C68.8968 43.2905 66.9891 42.5003 65 42.5003Z" fill="#055F9B"/>
</svg>
