<svg width="18" height="18" viewBox="0 0 18 18" fill="none" xmlns="http://www.w3.org/2000/svg">
<path fill-rule="evenodd" clip-rule="evenodd" d="M18 2.25C18 1.00818 16.9918 0 15.75 0H2.25C1.00818 0 0 1.00818 0 2.25V15.75C0 16.9918 1.00818 18 2.25 18H15.75C16.9918 18 18 16.9918 18 15.75V2.25Z" fill="#B4B4BB"/>
<path d="M5.16142 6.27979H2.14642V15.3488H5.16142V6.27979Z" fill="white"/>
<path d="M3.67425 1.90723C2.64273 1.90723 1.96875 2.58539 1.96875 3.47425C1.96875 4.34443 2.62223 5.0413 3.63435 5.0413H3.65382C4.7051 5.0413 5.35947 4.34443 5.35947 3.47425C5.33995 2.58539 4.70517 1.90723 3.67425 1.90723Z" fill="white"/>
<path d="M12.5606 6.06689C10.9614 6.06689 10.245 6.9464 9.84388 7.56416V6.28015H6.82965C6.86962 7.13083 6.82965 15.3491 6.82965 15.3491H9.84384V10.2843C9.84384 10.0133 9.86332 9.74223 9.94323 9.54849C10.1608 9.00708 10.6571 8.44627 11.4899 8.44627C12.5801 8.44627 13.0169 9.27821 13.0169 10.4968V15.3491H16.0312V10.1484C16.0312 7.36275 14.544 6.06689 12.5606 6.06689Z" fill="white"/>
</svg>
