<svg width="30" height="30" viewBox="0 0 30 30" fill="none" xmlns="http://www.w3.org/2000/svg">
<path fill-rule="evenodd" clip-rule="evenodd" d="M30 3.75C30 1.68029 28.3197 0 26.25 0H3.75C1.68029 0 0 1.68029 0 3.75V26.25C0 28.3197 1.68029 30 3.75 30H26.25C28.3197 30 30 28.3197 30 26.25V3.75Z" fill="#2867B2"/>
<path d="M8.59922 10.4878H3.57422V25.6028H8.59922V10.4878Z" fill="white"/>
<path d="M6.12375 3.19287C4.40455 3.19287 3.28125 4.32314 3.28125 5.80457C3.28125 7.25488 4.37039 8.41633 6.05725 8.41633H6.08971C7.84184 8.41633 8.93244 7.25488 8.93244 5.80457C8.89992 4.32314 7.84195 3.19287 6.12375 3.19287Z" fill="white"/>
<path d="M20.9334 10.1357C18.268 10.1357 17.0741 11.6016 16.4055 12.6312V10.4912H11.3818C11.4485 11.909 11.3818 25.6061 11.3818 25.6061H16.4055V17.1648C16.4055 16.713 16.4379 16.2613 16.5711 15.9384C16.9337 15.0361 17.7609 14.1014 19.1488 14.1014C20.966 14.1014 21.6939 15.4879 21.6939 17.519V25.6061H26.7178V16.9383C26.7178 12.2955 24.239 10.1357 20.9334 10.1357Z" fill="white"/>
</svg>
