<svg width="100" height="100" viewBox="0 0 100 100" fill="none" xmlns="http://www.w3.org/2000/svg">
<rect width="100" height="100" rx="50" fill="#E0FFE8"/>
<path d="M40 67.5C49.665 67.5 57.5 59.665 57.5 50C57.5 40.335 49.665 32.5 40 32.5C30.335 32.5 22.5 40.335 22.5 50C22.5 59.665 30.335 67.5 40 67.5Z" fill="#FFEEA9" stroke="#055F9B" stroke-width="3" stroke-linecap="round" stroke-linejoin="round"/>
<path d="M67.5 32.5C73.0228 32.5 77.5 28.0228 77.5 22.5C77.5 16.9772 73.0228 12.5 67.5 12.5C61.9772 12.5 57.5 16.9772 57.5 22.5C57.5 28.0228 61.9772 32.5 67.5 32.5Z" fill="#FFEEA9" stroke="#055F9B" stroke-width="3" stroke-linecap="round" stroke-linejoin="round"/>
<path d="M67.5 87.5C73.0228 87.5 77.5 83.0228 77.5 77.5C77.5 71.9772 73.0228 67.5 67.5 67.5C61.9772 67.5 57.5 71.9772 57.5 77.5C57.5 83.0228 61.9772 87.5 67.5 87.5Z" fill="#FFEEA9" stroke="#055F9B" stroke-width="3" stroke-linecap="round" stroke-linejoin="round"/>
<path d="M52.5 37.5L60 30" stroke="#055F9B" stroke-width="3" stroke-linecap="round" stroke-linejoin="round"/>
<path d="M52.5 62.5L60 70" stroke="#055F9B" stroke-width="3" stroke-linecap="round" stroke-linejoin="round"/>
</svg>
