<svg width="42" height="34" viewBox="0 0 42 34" fill="none" xmlns="http://www.w3.org/2000/svg">
<path d="M35.5833 0.333008H6.41663C4.75902 0.333008 3.16931 0.991488 1.99721 2.16359C0.825107 3.33569 0.166626 4.9254 0.166626 6.58301V27.4163C0.166626 29.0739 0.825107 30.6637 1.99721 31.8358C3.16931 33.0079 4.75902 33.6663 6.41663 33.6663H35.5833C37.2409 33.6663 38.8306 33.0079 40.0027 31.8358C41.1748 30.6637 41.8333 29.0739 41.8333 27.4163V6.58301C41.8333 4.9254 41.1748 3.33569 40.0027 2.16359C38.8306 0.991488 37.2409 0.333008 35.5833 0.333008ZM6.41663 4.49967H35.5833C36.1358 4.49967 36.6657 4.71917 37.0564 5.10987C37.4471 5.50057 37.6666 6.03047 37.6666 6.58301L21 16.7497L4.33329 6.58301C4.33329 6.03047 4.55279 5.50057 4.94349 5.10987C5.33419 4.71917 5.86409 4.49967 6.41663 4.49967ZM37.6666 27.4163C37.6666 27.9689 37.4471 28.4988 37.0564 28.8895C36.6657 29.2802 36.1358 29.4997 35.5833 29.4997H6.41663C5.86409 29.4997 5.33419 29.2802 4.94349 28.8895C4.55279 28.4988 4.33329 27.9689 4.33329 27.4163V11.333L19.9166 20.8538C20.2333 21.0367 20.5926 21.133 20.9583 21.133C21.324 21.133 21.6833 21.0367 22 20.8538L37.6666 11.333V27.4163Z" fill="#00A859"/>
</svg>
