<svg width="70" height="70" viewBox="0 0 70 70" fill="none" xmlns="http://www.w3.org/2000/svg">
<path d="M35 0C15.75 0 0 15.75 0 35C0 54.25 15.75 70 35 70C54.25 70 70 54.25 70 35C70 15.75 54.25 0 35 0ZM35 11.6667C41.4167 11.6667 46.6667 18.0833 46.6667 26.25C46.6667 34.4167 41.4167 40.8333 35 40.8333C28.5833 40.8333 23.3333 34.4167 23.3333 26.25C23.3333 18.0833 28.5833 11.6667 35 11.6667ZM54.25 56.875C49.2917 61.25 42.2917 64.1667 35 64.1667C27.7083 64.1667 20.7083 61.25 15.75 56.875C14.5833 55.7083 14.2917 53.9583 15.4583 52.7917C18.6667 49 23.0417 46.375 27.7083 44.9167C30.0417 46.0833 32.375 46.6667 35 46.6667C37.625 46.6667 39.9583 46.0833 42.2917 44.9167C47.25 46.375 51.3333 49 54.5417 52.7917C55.7083 53.9583 55.7083 55.7083 54.25 56.875Z" fill="#E1E1E3"/>
</svg>
