<svg width="30" height="30" viewBox="0 0 30 30" fill="none" xmlns="http://www.w3.org/2000/svg">
<path d="M24.9996 21.2485H27.4996V23.7485H2.49963V21.2485H4.99963V12.4985C4.99963 9.84637 6.0532 7.30283 7.92857 5.42747C9.80393 3.5521 12.3475 2.49854 14.9996 2.49854C17.6518 2.49854 20.1953 3.5521 22.0707 5.42747C23.9461 7.30283 24.9996 9.84637 24.9996 12.4985V21.2485ZM22.4996 21.2485V12.4985C22.4996 10.5094 21.7095 8.60176 20.3029 7.19523C18.8964 5.78871 16.9888 4.99853 14.9996 4.99853C13.0105 4.99853 11.1029 5.78871 9.69633 7.19523C8.28981 8.60176 7.49963 10.5094 7.49963 12.4985V21.2485H22.4996ZM11.2496 26.2485H18.7496V28.7485H11.2496V26.2485Z" fill="#347345"/>
<path d="M28.3 6.60019C28.3 9.30639 26.1062 11.5002 23.4 11.5002C20.6938 11.5002 18.5 9.30639 18.5 6.60019C18.5 3.894 20.6938 1.7002 23.4 1.7002C26.1062 1.7002 28.3 3.894 28.3 6.60019Z" fill="#F44336" stroke="#FFEED9"/>
</svg>
