<svg width="428" height="228" viewBox="0 0 428 228" fill="none" xmlns="http://www.w3.org/2000/svg">
<path d="M228 114C228 138.074 220.379 161.531 206.228 181.008C192.077 200.484 172.124 214.981 149.228 222.42C126.332 229.86 101.668 229.86 78.7721 222.42C55.8759 214.981 35.9227 200.484 21.7721 181.008L114 114H228Z" fill="#8A4217"/>
<path d="M64.682 216.78C47.3701 208.473 32.4369 195.928 21.2682 180.308L114 114L64.682 216.78Z" fill="#6E2900"/>
<path d="M78.3287 5.72461C95.474 0.0761186 113.716 -1.42003 131.552 1.3593C149.388 4.13863 166.31 11.114 180.924 21.7113C195.538 32.3085 207.426 46.2247 215.61 62.3145C223.794 78.4044 228.041 96.2077 228 114.259L114 114L78.3287 5.72461Z" fill="#EC7E3D"/>
<path d="M22.0562 181.397C11.4203 166.887 4.36937 150.066 1.47994 132.309C-1.40949 114.553 -0.0553638 96.364 5.43159 79.2308C10.9185 62.0975 20.3825 46.5061 33.0498 33.7313C45.717 20.9565 61.2279 11.361 78.3141 5.72943L114 114L22.0562 181.397Z" fill="#FF9F67"/>
<path d="M292.232 63V59.402H291.14V58.506H292.232V57.358H291.14V56.462H292.232V53.004H293.688L295.018 56.462H296.67V53.004H297.776V56.462H298.868V57.358H297.776V58.506H298.868V59.402H297.776V63H296.306L294.976 59.402H293.324V63H292.232ZM293.324 58.506H294.64L294.22 57.358H293.296L293.324 58.506ZM296.67 61.026H296.726L296.684 59.402H296.096L296.67 61.026ZM293.296 56.462H293.884L293.296 54.726H293.24L293.296 56.462ZM295.76 58.506H296.698L296.67 57.358H295.34L295.76 58.506ZM299.88 57.834C299.88 56.2287 300.141 54.978 300.664 54.082C301.186 53.1767 302.101 52.724 303.408 52.724C304.705 52.724 305.615 53.1767 306.138 54.082C306.66 54.978 306.922 56.2287 306.922 57.834C306.922 59.4673 306.66 60.7367 306.138 61.642C305.615 62.5473 304.705 63 303.408 63C302.101 63 301.186 62.5473 300.664 61.642C300.141 60.7367 299.88 59.4673 299.88 57.834ZM305.662 57.834C305.662 57.022 305.606 56.336 305.494 55.776C305.391 55.2067 305.172 54.7493 304.836 54.404C304.509 54.0587 304.033 53.886 303.408 53.886C302.773 53.886 302.288 54.0587 301.952 54.404C301.625 54.7493 301.406 55.2067 301.294 55.776C301.191 56.336 301.14 57.022 301.14 57.834C301.14 58.674 301.191 59.3787 301.294 59.948C301.406 60.5173 301.625 60.9747 301.952 61.32C302.288 61.6653 302.773 61.838 303.408 61.838C304.033 61.838 304.509 61.6653 304.836 61.32C305.172 60.9747 305.391 60.5173 305.494 59.948C305.606 59.3787 305.662 58.674 305.662 57.834ZM317.933 57.33V58.408H312.347V57.33H317.933ZM324.211 63V59.402H323.119V58.506H324.211V57.358H323.119V56.462H324.211V53.004H325.667L326.997 56.462H328.649V53.004H329.755V56.462H330.847V57.358H329.755V58.506H330.847V59.402H329.755V63H328.285L326.955 59.402H325.303V63H324.211ZM325.303 58.506H326.619L326.199 57.358H325.275L325.303 58.506ZM328.649 61.026H328.705L328.663 59.402H328.075L328.649 61.026ZM325.275 56.462H325.863L325.275 54.726H325.219L325.275 56.462ZM327.739 58.506H328.677L328.649 57.358H327.319L327.739 58.506ZM331.522 54.04V52.878H334.154V63H332.866V54.04H331.522ZM336.343 57.834C336.343 56.2287 336.604 54.978 337.127 54.082C337.649 53.1767 338.564 52.724 339.871 52.724C341.168 52.724 342.078 53.1767 342.601 54.082C343.123 54.978 343.385 56.2287 343.385 57.834C343.385 59.4673 343.123 60.7367 342.601 61.642C342.078 62.5473 341.168 63 339.871 63C338.564 63 337.649 62.5473 337.127 61.642C336.604 60.7367 336.343 59.4673 336.343 57.834ZM342.125 57.834C342.125 57.022 342.069 56.336 341.957 55.776C341.854 55.2067 341.635 54.7493 341.299 54.404C340.972 54.0587 340.496 53.886 339.871 53.886C339.236 53.886 338.751 54.0587 338.415 54.404C338.088 54.7493 337.869 55.2067 337.757 55.776C337.654 56.336 337.603 57.022 337.603 57.834C337.603 58.674 337.654 59.3787 337.757 59.948C337.869 60.5173 338.088 60.9747 338.415 61.32C338.751 61.6653 339.236 61.838 339.871 61.838C340.496 61.838 340.972 61.6653 341.299 61.32C341.635 60.9747 341.854 60.5173 341.957 59.948C342.069 59.3787 342.125 58.674 342.125 57.834ZM345.134 57.834C345.134 56.2287 345.395 54.978 345.918 54.082C346.44 53.1767 347.355 52.724 348.662 52.724C349.959 52.724 350.869 53.1767 351.392 54.082C351.914 54.978 352.176 56.2287 352.176 57.834C352.176 59.4673 351.914 60.7367 351.392 61.642C350.869 62.5473 349.959 63 348.662 63C347.355 63 346.44 62.5473 345.918 61.642C345.395 60.7367 345.134 59.4673 345.134 57.834ZM350.916 57.834C350.916 57.022 350.86 56.336 350.748 55.776C350.645 55.2067 350.426 54.7493 350.09 54.404C349.763 54.0587 349.287 53.886 348.662 53.886C348.027 53.886 347.542 54.0587 347.206 54.404C346.879 54.7493 346.66 55.2067 346.548 55.776C346.445 56.336 346.394 57.022 346.394 57.834C346.394 58.674 346.445 59.3787 346.548 59.948C346.66 60.5173 346.879 60.9747 347.206 61.32C347.542 61.6653 348.027 61.838 348.662 61.838C349.287 61.838 349.763 61.6653 350.09 61.32C350.426 60.9747 350.645 60.5173 350.748 59.948C350.86 59.3787 350.916 58.674 350.916 57.834ZM355.451 61.236L353.883 65.002H353.029L354.051 61.236H355.451ZM356.7 57.834C356.7 56.2287 356.961 54.978 357.484 54.082C358.007 53.1767 358.921 52.724 360.228 52.724C361.525 52.724 362.435 53.1767 362.958 54.082C363.481 54.978 363.742 56.2287 363.742 57.834C363.742 59.4673 363.481 60.7367 362.958 61.642C362.435 62.5473 361.525 63 360.228 63C358.921 63 358.007 62.5473 357.484 61.642C356.961 60.7367 356.7 59.4673 356.7 57.834ZM362.482 57.834C362.482 57.022 362.426 56.336 362.314 55.776C362.211 55.2067 361.992 54.7493 361.656 54.404C361.329 54.0587 360.853 53.886 360.228 53.886C359.593 53.886 359.108 54.0587 358.772 54.404C358.445 54.7493 358.226 55.2067 358.114 55.776C358.011 56.336 357.96 57.022 357.96 57.834C357.96 58.674 358.011 59.3787 358.114 59.948C358.226 60.5173 358.445 60.9747 358.772 61.32C359.108 61.6653 359.593 61.838 360.228 61.838C360.853 61.838 361.329 61.6653 361.656 61.32C361.992 60.9747 362.211 60.5173 362.314 59.948C362.426 59.3787 362.482 58.674 362.482 57.834ZM365.491 57.834C365.491 56.2287 365.752 54.978 366.275 54.082C366.798 53.1767 367.712 52.724 369.019 52.724C370.316 52.724 371.226 53.1767 371.749 54.082C372.272 54.978 372.533 56.2287 372.533 57.834C372.533 59.4673 372.272 60.7367 371.749 61.642C371.226 62.5473 370.316 63 369.019 63C367.712 63 366.798 62.5473 366.275 61.642C365.752 60.7367 365.491 59.4673 365.491 57.834ZM371.273 57.834C371.273 57.022 371.217 56.336 371.105 55.776C371.002 55.2067 370.783 54.7493 370.447 54.404C370.12 54.0587 369.644 53.886 369.019 53.886C368.384 53.886 367.899 54.0587 367.563 54.404C367.236 54.7493 367.017 55.2067 366.905 55.776C366.802 56.336 366.751 57.022 366.751 57.834C366.751 58.674 366.802 59.3787 366.905 59.948C367.017 60.5173 367.236 60.9747 367.563 61.32C367.899 61.6653 368.384 61.838 369.019 61.838C369.644 61.838 370.12 61.6653 370.447 61.32C370.783 60.9747 371.002 60.5173 371.105 59.948C371.217 59.3787 371.273 58.674 371.273 57.834ZM374.282 57.834C374.282 56.2287 374.543 54.978 375.066 54.082C375.589 53.1767 376.503 52.724 377.81 52.724C379.107 52.724 380.017 53.1767 380.54 54.082C381.063 54.978 381.324 56.2287 381.324 57.834C381.324 59.4673 381.063 60.7367 380.54 61.642C380.017 62.5473 379.107 63 377.81 63C376.503 63 375.589 62.5473 375.066 61.642C374.543 60.7367 374.282 59.4673 374.282 57.834ZM380.064 57.834C380.064 57.022 380.008 56.336 379.896 55.776C379.793 55.2067 379.574 54.7493 379.238 54.404C378.911 54.0587 378.435 53.886 377.81 53.886C377.175 53.886 376.69 54.0587 376.354 54.404C376.027 54.7493 375.808 55.2067 375.696 55.776C375.593 56.336 375.542 57.022 375.542 57.834C375.542 58.674 375.593 59.3787 375.696 59.948C375.808 60.5173 376.027 60.9747 376.354 61.32C376.69 61.6653 377.175 61.838 377.81 61.838C378.435 61.838 378.911 61.6653 379.238 61.32C379.574 60.9747 379.793 60.5173 379.896 59.948C380.008 59.3787 380.064 58.674 380.064 57.834Z" fill="#5A5B6A"/>
<rect x="268" y="51" width="15" height="15" rx="1" fill="#FF9F67"/>
<path d="M292.232 100V96.402H291.14V95.506H292.232V94.358H291.14V93.462H292.232V90.004H293.688L295.018 93.462H296.67V90.004H297.776V93.462H298.868V94.358H297.776V95.506H298.868V96.402H297.776V100H296.306L294.976 96.402H293.324V100H292.232ZM293.324 95.506H294.64L294.22 94.358H293.296L293.324 95.506ZM296.67 98.026H296.726L296.684 96.402H296.096L296.67 98.026ZM293.296 93.462H293.884L293.296 91.726H293.24L293.296 93.462ZM295.76 95.506H296.698L296.67 94.358H295.34L295.76 95.506ZM299.544 91.04V89.878H302.176V100H300.888V91.04H299.544ZM304.364 94.834C304.364 93.2287 304.625 91.978 305.148 91.082C305.671 90.1767 306.585 89.724 307.892 89.724C309.189 89.724 310.099 90.1767 310.622 91.082C311.145 91.978 311.406 93.2287 311.406 94.834C311.406 96.4673 311.145 97.7367 310.622 98.642C310.099 99.5473 309.189 100 307.892 100C306.585 100 305.671 99.5473 305.148 98.642C304.625 97.7367 304.364 96.4673 304.364 94.834ZM310.146 94.834C310.146 94.022 310.09 93.336 309.978 92.776C309.875 92.2067 309.656 91.7493 309.32 91.404C308.993 91.0587 308.517 90.886 307.892 90.886C307.257 90.886 306.772 91.0587 306.436 91.404C306.109 91.7493 305.89 92.2067 305.778 92.776C305.675 93.336 305.624 94.022 305.624 94.834C305.624 95.674 305.675 96.3787 305.778 96.948C305.89 97.5173 306.109 97.9747 306.436 98.32C306.772 98.6653 307.257 98.838 307.892 98.838C308.517 98.838 308.993 98.6653 309.32 98.32C309.656 97.9747 309.875 97.5173 309.978 96.948C310.09 96.3787 310.146 95.674 310.146 94.834ZM312.819 91.04V89.878H315.451V100H314.163V91.04H312.819ZM319.165 98.236L317.597 102.002H316.743L317.765 98.236H319.165ZM320.415 94.834C320.415 93.2287 320.676 91.978 321.199 91.082C321.722 90.1767 322.636 89.724 323.943 89.724C325.24 89.724 326.15 90.1767 326.673 91.082C327.196 91.978 327.457 93.2287 327.457 94.834C327.457 96.4673 327.196 97.7367 326.673 98.642C326.15 99.5473 325.24 100 323.943 100C322.636 100 321.722 99.5473 321.199 98.642C320.676 97.7367 320.415 96.4673 320.415 94.834ZM326.197 94.834C326.197 94.022 326.141 93.336 326.029 92.776C325.926 92.2067 325.707 91.7493 325.371 91.404C325.044 91.0587 324.568 90.886 323.943 90.886C323.308 90.886 322.823 91.0587 322.487 91.404C322.16 91.7493 321.941 92.2067 321.829 92.776C321.726 93.336 321.675 94.022 321.675 94.834C321.675 95.674 321.726 96.3787 321.829 96.948C321.941 97.5173 322.16 97.9747 322.487 98.32C322.823 98.6653 323.308 98.838 323.943 98.838C324.568 98.838 325.044 98.6653 325.371 98.32C325.707 97.9747 325.926 97.5173 326.029 96.948C326.141 96.3787 326.197 95.674 326.197 94.834ZM329.206 94.834C329.206 93.2287 329.467 91.978 329.99 91.082C330.513 90.1767 331.427 89.724 332.734 89.724C334.031 89.724 334.941 90.1767 335.464 91.082C335.987 91.978 336.248 93.2287 336.248 94.834C336.248 96.4673 335.987 97.7367 335.464 98.642C334.941 99.5473 334.031 100 332.734 100C331.427 100 330.513 99.5473 329.99 98.642C329.467 97.7367 329.206 96.4673 329.206 94.834ZM334.988 94.834C334.988 94.022 334.932 93.336 334.82 92.776C334.717 92.2067 334.498 91.7493 334.162 91.404C333.835 91.0587 333.359 90.886 332.734 90.886C332.099 90.886 331.614 91.0587 331.278 91.404C330.951 91.7493 330.732 92.2067 330.62 92.776C330.517 93.336 330.466 94.022 330.466 94.834C330.466 95.674 330.517 96.3787 330.62 96.948C330.732 97.5173 330.951 97.9747 331.278 98.32C331.614 98.6653 332.099 98.838 332.734 98.838C333.359 98.838 333.835 98.6653 334.162 98.32C334.498 97.9747 334.717 97.5173 334.82 96.948C334.932 96.3787 334.988 95.674 334.988 94.834ZM337.997 94.834C337.997 93.2287 338.258 91.978 338.781 91.082C339.304 90.1767 340.218 89.724 341.525 89.724C342.822 89.724 343.732 90.1767 344.255 91.082C344.778 91.978 345.039 93.2287 345.039 94.834C345.039 96.4673 344.778 97.7367 344.255 98.642C343.732 99.5473 342.822 100 341.525 100C340.218 100 339.304 99.5473 338.781 98.642C338.258 97.7367 337.997 96.4673 337.997 94.834ZM343.779 94.834C343.779 94.022 343.723 93.336 343.611 92.776C343.508 92.2067 343.289 91.7493 342.953 91.404C342.626 91.0587 342.15 90.886 341.525 90.886C340.89 90.886 340.405 91.0587 340.069 91.404C339.742 91.7493 339.523 92.2067 339.411 92.776C339.308 93.336 339.257 94.022 339.257 94.834C339.257 95.674 339.308 96.3787 339.411 96.948C339.523 97.5173 339.742 97.9747 340.069 98.32C340.405 98.6653 340.89 98.838 341.525 98.838C342.15 98.838 342.626 98.6653 342.953 98.32C343.289 97.9747 343.508 97.5173 343.611 96.948C343.723 96.3787 343.779 95.674 343.779 94.834ZM356.05 94.33V95.408H350.464V94.33H356.05ZM362.328 100V96.402H361.236V95.506H362.328V94.358H361.236V93.462H362.328V90.004H363.784L365.114 93.462H366.766V90.004H367.872V93.462H368.964V94.358H367.872V95.506H368.964V96.402H367.872V100H366.402L365.072 96.402H363.42V100H362.328ZM363.42 95.506H364.736L364.316 94.358H363.392L363.42 95.506ZM366.766 98.026H366.822L366.78 96.402H366.192L366.766 98.026ZM363.392 93.462H363.98L363.392 91.726H363.336L363.392 93.462ZM365.856 95.506H366.794L366.766 94.358H365.436L365.856 95.506ZM369.821 98.978C371.007 98.026 371.935 97.2467 372.607 96.64C373.279 96.024 373.844 95.3847 374.301 94.722C374.768 94.05 375.001 93.392 375.001 92.748C375.001 92.1413 374.852 91.6653 374.553 91.32C374.264 90.9653 373.793 90.788 373.139 90.788C372.505 90.788 372.01 90.9887 371.655 91.39C371.31 91.782 371.123 92.3093 371.095 92.972H369.863C369.901 91.9267 370.218 91.1193 370.815 90.55C371.413 89.9807 372.183 89.696 373.125 89.696C374.087 89.696 374.847 89.962 375.407 90.494C375.977 91.026 376.261 91.7587 376.261 92.692C376.261 93.4667 376.028 94.2227 375.561 94.96C375.104 95.688 374.581 96.332 373.993 96.892C373.405 97.4427 372.654 98.0867 371.739 98.824H376.555V99.888H369.821V98.978ZM378.028 94.834C378.028 93.2287 378.289 91.978 378.812 91.082C379.335 90.1767 380.249 89.724 381.556 89.724C382.853 89.724 383.763 90.1767 384.286 91.082C384.809 91.978 385.07 93.2287 385.07 94.834C385.07 96.4673 384.809 97.7367 384.286 98.642C383.763 99.5473 382.853 100 381.556 100C380.249 100 379.335 99.5473 378.812 98.642C378.289 97.7367 378.028 96.4673 378.028 94.834ZM383.81 94.834C383.81 94.022 383.754 93.336 383.642 92.776C383.539 92.2067 383.32 91.7493 382.984 91.404C382.657 91.0587 382.181 90.886 381.556 90.886C380.921 90.886 380.436 91.0587 380.1 91.404C379.773 91.7493 379.554 92.2067 379.442 92.776C379.339 93.336 379.288 94.022 379.288 94.834C379.288 95.674 379.339 96.3787 379.442 96.948C379.554 97.5173 379.773 97.9747 380.1 98.32C380.436 98.6653 380.921 98.838 381.556 98.838C382.181 98.838 382.657 98.6653 382.984 98.32C383.32 97.9747 383.539 97.5173 383.642 96.948C383.754 96.3787 383.81 95.674 383.81 94.834ZM386.819 94.834C386.819 93.2287 387.081 91.978 387.603 91.082C388.126 90.1767 389.041 89.724 390.347 89.724C391.645 89.724 392.555 90.1767 393.077 91.082C393.6 91.978 393.861 93.2287 393.861 94.834C393.861 96.4673 393.6 97.7367 393.077 98.642C392.555 99.5473 391.645 100 390.347 100C389.041 100 388.126 99.5473 387.603 98.642C387.081 97.7367 386.819 96.4673 386.819 94.834ZM392.601 94.834C392.601 94.022 392.545 93.336 392.433 92.776C392.331 92.2067 392.111 91.7493 391.775 91.404C391.449 91.0587 390.973 90.886 390.347 90.886C389.713 90.886 389.227 91.0587 388.891 91.404C388.565 91.7493 388.345 92.2067 388.233 92.776C388.131 93.336 388.079 94.022 388.079 94.834C388.079 95.674 388.131 96.3787 388.233 96.948C388.345 97.5173 388.565 97.9747 388.891 98.32C389.227 98.6653 389.713 98.838 390.347 98.838C390.973 98.838 391.449 98.6653 391.775 98.32C392.111 97.9747 392.331 97.5173 392.433 96.948C392.545 96.3787 392.601 95.674 392.601 94.834ZM397.136 98.236L395.568 102.002H394.714L395.736 98.236H397.136ZM398.386 94.834C398.386 93.2287 398.647 91.978 399.17 91.082C399.692 90.1767 400.607 89.724 401.914 89.724C403.211 89.724 404.121 90.1767 404.644 91.082C405.166 91.978 405.428 93.2287 405.428 94.834C405.428 96.4673 405.166 97.7367 404.644 98.642C404.121 99.5473 403.211 100 401.914 100C400.607 100 399.692 99.5473 399.17 98.642C398.647 97.7367 398.386 96.4673 398.386 94.834ZM404.168 94.834C404.168 94.022 404.112 93.336 404 92.776C403.897 92.2067 403.678 91.7493 403.342 91.404C403.015 91.0587 402.539 90.886 401.914 90.886C401.279 90.886 400.794 91.0587 400.458 91.404C400.131 91.7493 399.912 92.2067 399.8 92.776C399.697 93.336 399.646 94.022 399.646 94.834C399.646 95.674 399.697 96.3787 399.8 96.948C399.912 97.5173 400.131 97.9747 400.458 98.32C400.794 98.6653 401.279 98.838 401.914 98.838C402.539 98.838 403.015 98.6653 403.342 98.32C403.678 97.9747 403.897 97.5173 404 96.948C404.112 96.3787 404.168 95.674 404.168 94.834ZM407.177 94.834C407.177 93.2287 407.438 91.978 407.961 91.082C408.483 90.1767 409.398 89.724 410.705 89.724C412.002 89.724 412.912 90.1767 413.435 91.082C413.957 91.978 414.219 93.2287 414.219 94.834C414.219 96.4673 413.957 97.7367 413.435 98.642C412.912 99.5473 412.002 100 410.705 100C409.398 100 408.483 99.5473 407.961 98.642C407.438 97.7367 407.177 96.4673 407.177 94.834ZM412.959 94.834C412.959 94.022 412.903 93.336 412.791 92.776C412.688 92.2067 412.469 91.7493 412.133 91.404C411.806 91.0587 411.33 90.886 410.705 90.886C410.07 90.886 409.585 91.0587 409.249 91.404C408.922 91.7493 408.703 92.2067 408.591 92.776C408.488 93.336 408.437 94.022 408.437 94.834C408.437 95.674 408.488 96.3787 408.591 96.948C408.703 97.5173 408.922 97.9747 409.249 98.32C409.585 98.6653 410.07 98.838 410.705 98.838C411.33 98.838 411.806 98.6653 412.133 98.32C412.469 97.9747 412.688 97.5173 412.791 96.948C412.903 96.3787 412.959 95.674 412.959 94.834ZM415.968 94.834C415.968 93.2287 416.229 91.978 416.752 91.082C417.274 90.1767 418.189 89.724 419.496 89.724C420.793 89.724 421.703 90.1767 422.226 91.082C422.748 91.978 423.01 93.2287 423.01 94.834C423.01 96.4673 422.748 97.7367 422.226 98.642C421.703 99.5473 420.793 100 419.496 100C418.189 100 417.274 99.5473 416.752 98.642C416.229 97.7367 415.968 96.4673 415.968 94.834ZM421.75 94.834C421.75 94.022 421.694 93.336 421.582 92.776C421.479 92.2067 421.26 91.7493 420.924 91.404C420.597 91.0587 420.121 90.886 419.496 90.886C418.861 90.886 418.376 91.0587 418.04 91.404C417.713 91.7493 417.494 92.2067 417.382 92.776C417.279 93.336 417.228 94.022 417.228 94.834C417.228 95.674 417.279 96.3787 417.382 96.948C417.494 97.5173 417.713 97.9747 418.04 98.32C418.376 98.6653 418.861 98.838 419.496 98.838C420.121 98.838 420.597 98.6653 420.924 98.32C421.26 97.9747 421.479 97.5173 421.582 96.948C421.694 96.3787 421.75 95.674 421.75 94.834Z" fill="#5A5B6A"/>
<rect x="268" y="88" width="15" height="15" rx="1" fill="#EC7E3D"/>
<path d="M292.232 137V133.402H291.14V132.506H292.232V131.358H291.14V130.462H292.232V127.004H293.688L295.018 130.462H296.67V127.004H297.776V130.462H298.868V131.358H297.776V132.506H298.868V133.402H297.776V137H296.306L294.976 133.402H293.324V137H292.232ZM293.324 132.506H294.64L294.22 131.358H293.296L293.324 132.506ZM296.67 135.026H296.726L296.684 133.402H296.096L296.67 135.026ZM293.296 130.462H293.884L293.296 128.726H293.24L293.296 130.462ZM295.76 132.506H296.698L296.67 131.358H295.34L295.76 132.506ZM299.726 135.978C300.911 135.026 301.84 134.247 302.512 133.64C303.184 133.024 303.748 132.385 304.206 131.722C304.672 131.05 304.906 130.392 304.906 129.748C304.906 129.141 304.756 128.665 304.458 128.32C304.168 127.965 303.697 127.788 303.044 127.788C302.409 127.788 301.914 127.989 301.56 128.39C301.214 128.782 301.028 129.309 301 129.972H299.768C299.805 128.927 300.122 128.119 300.72 127.55C301.317 126.981 302.087 126.696 303.03 126.696C303.991 126.696 304.752 126.962 305.312 127.494C305.881 128.026 306.166 128.759 306.166 129.692C306.166 130.467 305.932 131.223 305.466 131.96C305.008 132.688 304.486 133.332 303.898 133.892C303.31 134.443 302.558 135.087 301.644 135.824H306.46V136.888H299.726V135.978ZM307.932 131.834C307.932 130.229 308.194 128.978 308.716 128.082C309.239 127.177 310.154 126.724 311.46 126.724C312.758 126.724 313.668 127.177 314.19 128.082C314.713 128.978 314.974 130.229 314.974 131.834C314.974 133.467 314.713 134.737 314.19 135.642C313.668 136.547 312.758 137 311.46 137C310.154 137 309.239 136.547 308.716 135.642C308.194 134.737 307.932 133.467 307.932 131.834ZM313.714 131.834C313.714 131.022 313.658 130.336 313.546 129.776C313.444 129.207 313.224 128.749 312.888 128.404C312.562 128.059 312.086 127.886 311.46 127.886C310.826 127.886 310.34 128.059 310.004 128.404C309.678 128.749 309.458 129.207 309.346 129.776C309.244 130.336 309.192 131.022 309.192 131.834C309.192 132.674 309.244 133.379 309.346 133.948C309.458 134.517 309.678 134.975 310.004 135.32C310.34 135.665 310.826 135.838 311.46 135.838C312.086 135.838 312.562 135.665 312.888 135.32C313.224 134.975 313.444 134.517 313.546 133.948C313.658 133.379 313.714 132.674 313.714 131.834ZM316.387 128.04V126.878H319.019V137H317.731V128.04H316.387ZM322.734 135.236L321.166 139.002H320.312L321.334 135.236H322.734ZM323.983 131.834C323.983 130.229 324.245 128.978 324.767 128.082C325.29 127.177 326.205 126.724 327.511 126.724C328.809 126.724 329.719 127.177 330.241 128.082C330.764 128.978 331.025 130.229 331.025 131.834C331.025 133.467 330.764 134.737 330.241 135.642C329.719 136.547 328.809 137 327.511 137C326.205 137 325.29 136.547 324.767 135.642C324.245 134.737 323.983 133.467 323.983 131.834ZM329.765 131.834C329.765 131.022 329.709 130.336 329.597 129.776C329.495 129.207 329.275 128.749 328.939 128.404C328.613 128.059 328.137 127.886 327.511 127.886C326.877 127.886 326.391 128.059 326.055 128.404C325.729 128.749 325.509 129.207 325.397 129.776C325.295 130.336 325.243 131.022 325.243 131.834C325.243 132.674 325.295 133.379 325.397 133.948C325.509 134.517 325.729 134.975 326.055 135.32C326.391 135.665 326.877 135.838 327.511 135.838C328.137 135.838 328.613 135.665 328.939 135.32C329.275 134.975 329.495 134.517 329.597 133.948C329.709 133.379 329.765 132.674 329.765 131.834ZM332.774 131.834C332.774 130.229 333.036 128.978 333.558 128.082C334.081 127.177 334.996 126.724 336.302 126.724C337.6 126.724 338.51 127.177 339.032 128.082C339.555 128.978 339.816 130.229 339.816 131.834C339.816 133.467 339.555 134.737 339.032 135.642C338.51 136.547 337.6 137 336.302 137C334.996 137 334.081 136.547 333.558 135.642C333.036 134.737 332.774 133.467 332.774 131.834ZM338.556 131.834C338.556 131.022 338.5 130.336 338.388 129.776C338.286 129.207 338.066 128.749 337.73 128.404C337.404 128.059 336.928 127.886 336.302 127.886C335.668 127.886 335.182 128.059 334.846 128.404C334.52 128.749 334.3 129.207 334.188 129.776C334.086 130.336 334.034 131.022 334.034 131.834C334.034 132.674 334.086 133.379 334.188 133.948C334.3 134.517 334.52 134.975 334.846 135.32C335.182 135.665 335.668 135.838 336.302 135.838C336.928 135.838 337.404 135.665 337.73 135.32C338.066 134.975 338.286 134.517 338.388 133.948C338.5 133.379 338.556 132.674 338.556 131.834ZM341.565 131.834C341.565 130.229 341.827 128.978 342.349 128.082C342.872 127.177 343.787 126.724 345.093 126.724C346.391 126.724 347.301 127.177 347.823 128.082C348.346 128.978 348.607 130.229 348.607 131.834C348.607 133.467 348.346 134.737 347.823 135.642C347.301 136.547 346.391 137 345.093 137C343.787 137 342.872 136.547 342.349 135.642C341.827 134.737 341.565 133.467 341.565 131.834ZM347.347 131.834C347.347 131.022 347.291 130.336 347.179 129.776C347.077 129.207 346.857 128.749 346.521 128.404C346.195 128.059 345.719 127.886 345.093 127.886C344.459 127.886 343.973 128.059 343.637 128.404C343.311 128.749 343.091 129.207 342.979 129.776C342.877 130.336 342.825 131.022 342.825 131.834C342.825 132.674 342.877 133.379 342.979 133.948C343.091 134.517 343.311 134.975 343.637 135.32C343.973 135.665 344.459 135.838 345.093 135.838C345.719 135.838 346.195 135.665 346.521 135.32C346.857 134.975 347.077 134.517 347.179 133.948C347.291 133.379 347.347 132.674 347.347 131.834ZM359.619 131.33V132.408H354.033V131.33H359.619ZM365.896 137V133.402H364.804V132.506H365.896V131.358H364.804V130.462H365.896V127.004H367.352L368.682 130.462H370.334V127.004H371.44V130.462H372.532V131.358H371.44V132.506H372.532V133.402H371.44V137H369.97L368.64 133.402H366.988V137H365.896ZM366.988 132.506H368.304L367.884 131.358H366.96L366.988 132.506ZM370.334 135.026H370.39L370.348 133.402H369.76L370.334 135.026ZM366.96 130.462H367.548L366.96 128.726H366.904L366.96 130.462ZM369.424 132.506H370.362L370.334 131.358H369.004L369.424 132.506ZM373.516 129.426C373.581 128.567 373.912 127.895 374.51 127.41C375.107 126.925 375.882 126.682 376.834 126.682C377.468 126.682 378.014 126.799 378.472 127.032C378.938 127.256 379.288 127.564 379.522 127.956C379.764 128.348 379.886 128.791 379.886 129.286C379.886 129.865 379.718 130.364 379.382 130.784C379.055 131.204 378.626 131.475 378.094 131.596V131.666C378.7 131.815 379.181 132.109 379.536 132.548C379.89 132.987 380.068 133.561 380.068 134.27C380.068 134.802 379.946 135.283 379.704 135.712C379.461 136.132 379.097 136.463 378.612 136.706C378.126 136.949 377.543 137.07 376.862 137.07C375.872 137.07 375.06 136.813 374.426 136.3C373.791 135.777 373.436 135.04 373.362 134.088H374.594C374.659 134.648 374.888 135.105 375.28 135.46C375.672 135.815 376.194 135.992 376.848 135.992C377.501 135.992 377.996 135.824 378.332 135.488C378.677 135.143 378.85 134.699 378.85 134.158C378.85 133.458 378.616 132.954 378.15 132.646C377.683 132.338 376.978 132.184 376.036 132.184H375.714V131.12H376.05C376.908 131.111 377.557 130.971 377.996 130.7C378.434 130.42 378.654 129.991 378.654 129.412C378.654 128.917 378.49 128.521 378.164 128.222C377.846 127.923 377.389 127.774 376.792 127.774C376.213 127.774 375.746 127.923 375.392 128.222C375.037 128.521 374.827 128.922 374.762 129.426H373.516ZM381.788 131.834C381.788 130.229 382.049 128.978 382.572 128.082C383.095 127.177 384.009 126.724 385.316 126.724C386.613 126.724 387.523 127.177 388.046 128.082C388.569 128.978 388.83 130.229 388.83 131.834C388.83 133.467 388.569 134.737 388.046 135.642C387.523 136.547 386.613 137 385.316 137C384.009 137 383.095 136.547 382.572 135.642C382.049 134.737 381.788 133.467 381.788 131.834ZM387.57 131.834C387.57 131.022 387.514 130.336 387.402 129.776C387.299 129.207 387.08 128.749 386.744 128.404C386.417 128.059 385.941 127.886 385.316 127.886C384.681 127.886 384.196 128.059 383.86 128.404C383.533 128.749 383.314 129.207 383.202 129.776C383.099 130.336 383.048 131.022 383.048 131.834C383.048 132.674 383.099 133.379 383.202 133.948C383.314 134.517 383.533 134.975 383.86 135.32C384.196 135.665 384.681 135.838 385.316 135.838C385.941 135.838 386.417 135.665 386.744 135.32C387.08 134.975 387.299 134.517 387.402 133.948C387.514 133.379 387.57 132.674 387.57 131.834ZM390.579 131.834C390.579 130.229 390.84 128.978 391.363 128.082C391.886 127.177 392.8 126.724 394.107 126.724C395.404 126.724 396.314 127.177 396.837 128.082C397.36 128.978 397.621 130.229 397.621 131.834C397.621 133.467 397.36 134.737 396.837 135.642C396.314 136.547 395.404 137 394.107 137C392.8 137 391.886 136.547 391.363 135.642C390.84 134.737 390.579 133.467 390.579 131.834ZM396.361 131.834C396.361 131.022 396.305 130.336 396.193 129.776C396.09 129.207 395.871 128.749 395.535 128.404C395.208 128.059 394.732 127.886 394.107 127.886C393.472 127.886 392.987 128.059 392.651 128.404C392.324 128.749 392.105 129.207 391.993 129.776C391.89 130.336 391.839 131.022 391.839 131.834C391.839 132.674 391.89 133.379 391.993 133.948C392.105 134.517 392.324 134.975 392.651 135.32C392.987 135.665 393.472 135.838 394.107 135.838C394.732 135.838 395.208 135.665 395.535 135.32C395.871 134.975 396.09 134.517 396.193 133.948C396.305 133.379 396.361 132.674 396.361 131.834ZM400.896 135.236L399.328 139.002H398.474L399.496 135.236H400.896ZM402.145 131.834C402.145 130.229 402.407 128.978 402.929 128.082C403.452 127.177 404.367 126.724 405.673 126.724C406.971 126.724 407.881 127.177 408.403 128.082C408.926 128.978 409.187 130.229 409.187 131.834C409.187 133.467 408.926 134.737 408.403 135.642C407.881 136.547 406.971 137 405.673 137C404.367 137 403.452 136.547 402.929 135.642C402.407 134.737 402.145 133.467 402.145 131.834ZM407.927 131.834C407.927 131.022 407.871 130.336 407.759 129.776C407.657 129.207 407.437 128.749 407.101 128.404C406.775 128.059 406.299 127.886 405.673 127.886C405.039 127.886 404.553 128.059 404.217 128.404C403.891 128.749 403.671 129.207 403.559 129.776C403.457 130.336 403.405 131.022 403.405 131.834C403.405 132.674 403.457 133.379 403.559 133.948C403.671 134.517 403.891 134.975 404.217 135.32C404.553 135.665 405.039 135.838 405.673 135.838C406.299 135.838 406.775 135.665 407.101 135.32C407.437 134.975 407.657 134.517 407.759 133.948C407.871 133.379 407.927 132.674 407.927 131.834ZM410.936 131.834C410.936 130.229 411.198 128.978 411.72 128.082C412.243 127.177 413.158 126.724 414.464 126.724C415.762 126.724 416.672 127.177 417.194 128.082C417.717 128.978 417.978 130.229 417.978 131.834C417.978 133.467 417.717 134.737 417.194 135.642C416.672 136.547 415.762 137 414.464 137C413.158 137 412.243 136.547 411.72 135.642C411.198 134.737 410.936 133.467 410.936 131.834ZM416.718 131.834C416.718 131.022 416.662 130.336 416.55 129.776C416.448 129.207 416.228 128.749 415.892 128.404C415.566 128.059 415.09 127.886 414.464 127.886C413.83 127.886 413.344 128.059 413.008 128.404C412.682 128.749 412.462 129.207 412.35 129.776C412.248 130.336 412.196 131.022 412.196 131.834C412.196 132.674 412.248 133.379 412.35 133.948C412.462 134.517 412.682 134.975 413.008 135.32C413.344 135.665 413.83 135.838 414.464 135.838C415.09 135.838 415.566 135.665 415.892 135.32C416.228 134.975 416.448 134.517 416.55 133.948C416.662 133.379 416.718 132.674 416.718 131.834ZM419.727 131.834C419.727 130.229 419.989 128.978 420.511 128.082C421.034 127.177 421.949 126.724 423.255 126.724C424.553 126.724 425.463 127.177 425.985 128.082C426.508 128.978 426.769 130.229 426.769 131.834C426.769 133.467 426.508 134.737 425.985 135.642C425.463 136.547 424.553 137 423.255 137C421.949 137 421.034 136.547 420.511 135.642C419.989 134.737 419.727 133.467 419.727 131.834ZM425.509 131.834C425.509 131.022 425.453 130.336 425.341 129.776C425.239 129.207 425.019 128.749 424.683 128.404C424.357 128.059 423.881 127.886 423.255 127.886C422.621 127.886 422.135 128.059 421.799 128.404C421.473 128.749 421.253 129.207 421.141 129.776C421.039 130.336 420.987 131.022 420.987 131.834C420.987 132.674 421.039 133.379 421.141 133.948C421.253 134.517 421.473 134.975 421.799 135.32C422.135 135.665 422.621 135.838 423.255 135.838C423.881 135.838 424.357 135.665 424.683 135.32C425.019 134.975 425.239 134.517 425.341 133.948C425.453 133.379 425.509 132.674 425.509 131.834Z" fill="#5A5B6A"/>
<rect x="268" y="125" width="15" height="15" rx="1" fill="#8A4217"/>
<path d="M292.232 174V170.402H291.14V169.506H292.232V168.358H291.14V167.462H292.232V164.004H293.688L295.018 167.462H296.67V164.004H297.776V167.462H298.868V168.358H297.776V169.506H298.868V170.402H297.776V174H296.306L294.976 170.402H293.324V174H292.232ZM293.324 169.506H294.64L294.22 168.358H293.296L293.324 169.506ZM296.67 172.026H296.726L296.684 170.402H296.096L296.67 172.026ZM293.296 167.462H293.884L293.296 165.726H293.24L293.296 167.462ZM295.76 169.506H296.698L296.67 168.358H295.34L295.76 169.506ZM299.852 166.426C299.917 165.567 300.248 164.895 300.846 164.41C301.443 163.925 302.218 163.682 303.17 163.682C303.804 163.682 304.35 163.799 304.808 164.032C305.274 164.256 305.624 164.564 305.858 164.956C306.1 165.348 306.222 165.791 306.222 166.286C306.222 166.865 306.054 167.364 305.718 167.784C305.391 168.204 304.962 168.475 304.43 168.596V168.666C305.036 168.815 305.517 169.109 305.872 169.548C306.226 169.987 306.404 170.561 306.404 171.27C306.404 171.802 306.282 172.283 306.04 172.712C305.797 173.132 305.433 173.463 304.948 173.706C304.462 173.949 303.879 174.07 303.198 174.07C302.208 174.07 301.396 173.813 300.762 173.3C300.127 172.777 299.772 172.04 299.698 171.088H300.93C300.995 171.648 301.224 172.105 301.616 172.46C302.008 172.815 302.53 172.992 303.184 172.992C303.837 172.992 304.332 172.824 304.668 172.488C305.013 172.143 305.186 171.699 305.186 171.158C305.186 170.458 304.952 169.954 304.486 169.646C304.019 169.338 303.314 169.184 302.372 169.184H302.05V168.12H302.386C303.244 168.111 303.893 167.971 304.332 167.7C304.77 167.42 304.99 166.991 304.99 166.412C304.99 165.917 304.826 165.521 304.5 165.222C304.182 164.923 303.725 164.774 303.128 164.774C302.549 164.774 302.082 164.923 301.728 165.222C301.373 165.521 301.163 165.922 301.098 166.426H299.852ZM308.124 168.834C308.124 167.229 308.385 165.978 308.908 165.082C309.431 164.177 310.345 163.724 311.652 163.724C312.949 163.724 313.859 164.177 314.382 165.082C314.905 165.978 315.166 167.229 315.166 168.834C315.166 170.467 314.905 171.737 314.382 172.642C313.859 173.547 312.949 174 311.652 174C310.345 174 309.431 173.547 308.908 172.642C308.385 171.737 308.124 170.467 308.124 168.834ZM313.906 168.834C313.906 168.022 313.85 167.336 313.738 166.776C313.635 166.207 313.416 165.749 313.08 165.404C312.753 165.059 312.277 164.886 311.652 164.886C311.017 164.886 310.532 165.059 310.196 165.404C309.869 165.749 309.65 166.207 309.538 166.776C309.435 167.336 309.384 168.022 309.384 168.834C309.384 169.674 309.435 170.379 309.538 170.948C309.65 171.517 309.869 171.975 310.196 172.32C310.532 172.665 311.017 172.838 311.652 172.838C312.277 172.838 312.753 172.665 313.08 172.32C313.416 171.975 313.635 171.517 313.738 170.948C313.85 170.379 313.906 169.674 313.906 168.834ZM316.579 165.04V163.878H319.211V174H317.923V165.04H316.579ZM322.925 172.236L321.357 176.002H320.503L321.525 172.236H322.925ZM324.175 168.834C324.175 167.229 324.436 165.978 324.959 165.082C325.481 164.177 326.396 163.724 327.703 163.724C329 163.724 329.91 164.177 330.433 165.082C330.955 165.978 331.217 167.229 331.217 168.834C331.217 170.467 330.955 171.737 330.433 172.642C329.91 173.547 329 174 327.703 174C326.396 174 325.481 173.547 324.959 172.642C324.436 171.737 324.175 170.467 324.175 168.834ZM329.957 168.834C329.957 168.022 329.901 167.336 329.789 166.776C329.686 166.207 329.467 165.749 329.131 165.404C328.804 165.059 328.328 164.886 327.703 164.886C327.068 164.886 326.583 165.059 326.247 165.404C325.92 165.749 325.701 166.207 325.589 166.776C325.486 167.336 325.435 168.022 325.435 168.834C325.435 169.674 325.486 170.379 325.589 170.948C325.701 171.517 325.92 171.975 326.247 172.32C326.583 172.665 327.068 172.838 327.703 172.838C328.328 172.838 328.804 172.665 329.131 172.32C329.467 171.975 329.686 171.517 329.789 170.948C329.901 170.379 329.957 169.674 329.957 168.834ZM332.966 168.834C332.966 167.229 333.227 165.978 333.75 165.082C334.272 164.177 335.187 163.724 336.494 163.724C337.791 163.724 338.701 164.177 339.224 165.082C339.746 165.978 340.008 167.229 340.008 168.834C340.008 170.467 339.746 171.737 339.224 172.642C338.701 173.547 337.791 174 336.494 174C335.187 174 334.272 173.547 333.75 172.642C333.227 171.737 332.966 170.467 332.966 168.834ZM338.748 168.834C338.748 168.022 338.692 167.336 338.58 166.776C338.477 166.207 338.258 165.749 337.922 165.404C337.595 165.059 337.119 164.886 336.494 164.886C335.859 164.886 335.374 165.059 335.038 165.404C334.711 165.749 334.492 166.207 334.38 166.776C334.277 167.336 334.226 168.022 334.226 168.834C334.226 169.674 334.277 170.379 334.38 170.948C334.492 171.517 334.711 171.975 335.038 172.32C335.374 172.665 335.859 172.838 336.494 172.838C337.119 172.838 337.595 172.665 337.922 172.32C338.258 171.975 338.477 171.517 338.58 170.948C338.692 170.379 338.748 169.674 338.748 168.834ZM341.757 168.834C341.757 167.229 342.018 165.978 342.541 165.082C343.063 164.177 343.978 163.724 345.285 163.724C346.582 163.724 347.492 164.177 348.015 165.082C348.537 165.978 348.799 167.229 348.799 168.834C348.799 170.467 348.537 171.737 348.015 172.642C347.492 173.547 346.582 174 345.285 174C343.978 174 343.063 173.547 342.541 172.642C342.018 171.737 341.757 170.467 341.757 168.834ZM347.539 168.834C347.539 168.022 347.483 167.336 347.371 166.776C347.268 166.207 347.049 165.749 346.713 165.404C346.386 165.059 345.91 164.886 345.285 164.886C344.65 164.886 344.165 165.059 343.829 165.404C343.502 165.749 343.283 166.207 343.171 166.776C343.068 167.336 343.017 168.022 343.017 168.834C343.017 169.674 343.068 170.379 343.171 170.948C343.283 171.517 343.502 171.975 343.829 172.32C344.165 172.665 344.65 172.838 345.285 172.838C345.91 172.838 346.386 172.665 346.713 172.32C347.049 171.975 347.268 171.517 347.371 170.948C347.483 170.379 347.539 169.674 347.539 168.834ZM361.98 174L360.706 172.712C360.23 173.207 359.721 173.575 359.18 173.818C358.639 174.051 358.027 174.168 357.346 174.168C356.674 174.168 356.077 174.047 355.554 173.804C355.041 173.561 354.639 173.216 354.35 172.768C354.07 172.32 353.93 171.797 353.93 171.2C353.93 170.519 354.121 169.921 354.504 169.408C354.896 168.885 355.47 168.475 356.226 168.176C355.927 167.821 355.713 167.495 355.582 167.196C355.451 166.897 355.386 166.571 355.386 166.216C355.386 165.805 355.489 165.437 355.694 165.11C355.909 164.774 356.212 164.513 356.604 164.326C356.996 164.139 357.449 164.046 357.962 164.046C358.466 164.046 358.905 164.144 359.278 164.34C359.651 164.536 359.931 164.811 360.118 165.166C360.305 165.511 360.389 165.899 360.37 166.328H359.096C359.105 165.945 358.998 165.647 358.774 165.432C358.55 165.208 358.261 165.096 357.906 165.096C357.533 165.096 357.229 165.203 356.996 165.418C356.772 165.623 356.66 165.889 356.66 166.216C356.66 166.496 356.735 166.767 356.884 167.028C357.043 167.289 357.304 167.611 357.668 167.994L360.58 170.92L360.832 170.528L361.784 168.932H363.156L362.008 170.92C361.849 171.2 361.663 171.494 361.448 171.802L363.646 174H361.98ZM357.346 173.076C357.85 173.076 358.303 172.978 358.704 172.782C359.115 172.586 359.502 172.283 359.866 171.872L356.996 168.988C355.801 169.445 355.204 170.169 355.204 171.158C355.204 171.709 355.4 172.166 355.792 172.53C356.193 172.894 356.711 173.076 357.346 173.076ZM368.096 170.136C368.096 169.352 368.255 168.666 368.572 168.078C368.889 167.481 369.323 167.019 369.874 166.692C370.434 166.365 371.055 166.202 371.736 166.202C372.408 166.202 372.991 166.347 373.486 166.636C373.981 166.925 374.349 167.289 374.592 167.728V166.328H375.88V174H374.592V172.572C374.34 173.02 373.962 173.393 373.458 173.692C372.963 173.981 372.385 174.126 371.722 174.126C371.041 174.126 370.425 173.958 369.874 173.622C369.323 173.286 368.889 172.815 368.572 172.208C368.255 171.601 368.096 170.911 368.096 170.136ZM374.592 170.15C374.592 169.571 374.475 169.067 374.242 168.638C374.009 168.209 373.691 167.882 373.29 167.658C372.898 167.425 372.464 167.308 371.988 167.308C371.512 167.308 371.078 167.42 370.686 167.644C370.294 167.868 369.981 168.195 369.748 168.624C369.515 169.053 369.398 169.557 369.398 170.136C369.398 170.724 369.515 171.237 369.748 171.676C369.981 172.105 370.294 172.437 370.686 172.67C371.078 172.894 371.512 173.006 371.988 173.006C372.464 173.006 372.898 172.894 373.29 172.67C373.691 172.437 374.009 172.105 374.242 171.676C374.475 171.237 374.592 170.729 374.592 170.15ZM379.307 167.756C379.568 167.299 379.951 166.925 380.455 166.636C380.959 166.347 381.533 166.202 382.177 166.202C382.868 166.202 383.488 166.365 384.039 166.692C384.59 167.019 385.024 167.481 385.341 168.078C385.658 168.666 385.817 169.352 385.817 170.136C385.817 170.911 385.658 171.601 385.341 172.208C385.024 172.815 384.585 173.286 384.025 173.622C383.474 173.958 382.858 174.126 382.177 174.126C381.514 174.126 380.931 173.981 380.427 173.692C379.932 173.403 379.559 173.034 379.307 172.586V174H378.033V163.64H379.307V167.756ZM384.515 170.136C384.515 169.557 384.398 169.053 384.165 168.624C383.932 168.195 383.614 167.868 383.213 167.644C382.821 167.42 382.387 167.308 381.911 167.308C381.444 167.308 381.01 167.425 380.609 167.658C380.217 167.882 379.9 168.213 379.657 168.652C379.424 169.081 379.307 169.581 379.307 170.15C379.307 170.729 379.424 171.237 379.657 171.676C379.9 172.105 380.217 172.437 380.609 172.67C381.01 172.894 381.444 173.006 381.911 173.006C382.387 173.006 382.821 172.894 383.213 172.67C383.614 172.437 383.932 172.105 384.165 171.676C384.398 171.237 384.515 170.724 384.515 170.136ZM390.84 174.126C390.121 174.126 389.468 173.963 388.88 173.636C388.301 173.309 387.844 172.847 387.508 172.25C387.181 171.643 387.018 170.943 387.018 170.15C387.018 169.366 387.186 168.675 387.522 168.078C387.867 167.471 388.334 167.009 388.922 166.692C389.51 166.365 390.168 166.202 390.896 166.202C391.624 166.202 392.282 166.365 392.87 166.692C393.458 167.009 393.92 167.467 394.256 168.064C394.601 168.661 394.774 169.357 394.774 170.15C394.774 170.943 394.597 171.643 394.242 172.25C393.897 172.847 393.425 173.309 392.828 173.636C392.231 173.963 391.568 174.126 390.84 174.126ZM390.84 173.006C391.297 173.006 391.727 172.899 392.128 172.684C392.529 172.469 392.851 172.147 393.094 171.718C393.346 171.289 393.472 170.766 393.472 170.15C393.472 169.534 393.351 169.011 393.108 168.582C392.865 168.153 392.548 167.835 392.156 167.63C391.764 167.415 391.339 167.308 390.882 167.308C390.415 167.308 389.986 167.415 389.594 167.63C389.211 167.835 388.903 168.153 388.67 168.582C388.437 169.011 388.32 169.534 388.32 170.15C388.32 170.775 388.432 171.303 388.656 171.732C388.889 172.161 389.197 172.483 389.58 172.698C389.963 172.903 390.383 173.006 390.84 173.006ZM399.305 172.824L401.685 166.328H403.043L400.033 174H398.549L395.539 166.328H396.911L399.305 172.824ZM411.297 169.87C411.297 170.113 411.283 170.369 411.255 170.64H405.123C405.169 171.396 405.426 171.989 405.893 172.418C406.369 172.838 406.943 173.048 407.615 173.048C408.165 173.048 408.623 172.922 408.987 172.67C409.36 172.409 409.621 172.063 409.771 171.634H411.143C410.937 172.371 410.527 172.973 409.911 173.44C409.295 173.897 408.529 174.126 407.615 174.126C406.887 174.126 406.233 173.963 405.655 173.636C405.085 173.309 404.637 172.847 404.311 172.25C403.984 171.643 403.821 170.943 403.821 170.15C403.821 169.357 403.979 168.661 404.297 168.064C404.614 167.467 405.057 167.009 405.627 166.692C406.205 166.365 406.868 166.202 407.615 166.202C408.343 166.202 408.987 166.361 409.547 166.678C410.107 166.995 410.536 167.434 410.835 167.994C411.143 168.545 411.297 169.17 411.297 169.87ZM409.981 169.604C409.981 169.119 409.873 168.703 409.659 168.358C409.444 168.003 409.15 167.737 408.777 167.56C408.413 167.373 408.007 167.28 407.559 167.28C406.915 167.28 406.364 167.485 405.907 167.896C405.459 168.307 405.202 168.876 405.137 169.604H409.981Z" fill="#5A5B6A"/>
<rect x="268" y="162" width="15" height="15" rx="1" fill="#6E2900"/>
</svg>
