<svg width="22" height="22" viewBox="0 0 22 22" fill="none" xmlns="http://www.w3.org/2000/svg">
<path d="M10.9999 6.99994C10.2088 6.99994 9.43546 7.23454 8.77766 7.67406C8.11986 8.11359 7.60717 8.7383 7.30442 9.4692C7.00167 10.2001 6.92246 11.0044 7.0768 11.7803C7.23114 12.5562 7.6121 13.269 8.17151 13.8284C8.73092 14.3878 9.44365 14.7687 10.2196 14.9231C10.9955 15.0774 11.7998 14.9982 12.5307 14.6955C13.2616 14.3927 13.8863 13.88 14.3258 13.2222C14.7653 12.5644 14.9999 11.7911 14.9999 10.9999C14.9999 9.93907 14.5785 8.92166 13.8284 8.17151C13.0782 7.42137 12.0608 6.99994 10.9999 6.99994ZM10.9999 12.9999C10.6044 12.9999 10.2177 12.8826 9.8888 12.6629C9.5599 12.4431 9.30355 12.1308 9.15218 11.7653C9.0008 11.3999 8.9612 10.9977 9.03837 10.6098C9.11554 10.2218 9.30602 9.86543 9.58573 9.58573C9.86543 9.30602 10.2218 9.11554 10.6098 9.03837C10.9977 8.9612 11.3999 9.0008 11.7653 9.15218C12.1308 9.30355 12.4431 9.5599 12.6629 9.8888C12.8826 10.2177 12.9999 10.6044 12.9999 10.9999C12.9999 11.5304 12.7892 12.0391 12.4142 12.4142C12.0391 12.7892 11.5304 12.9999 10.9999 12.9999ZM20.7099 10.2899L18.3599 7.99994V4.63994C18.3599 4.37472 18.2546 4.12037 18.067 3.93283C17.8795 3.7453 17.6252 3.63994 17.3599 3.63994H14.0499L11.7099 1.28994C11.617 1.19621 11.5064 1.12182 11.3845 1.07105C11.2627 1.02028 11.132 0.994141 10.9999 0.994141C10.8679 0.994141 10.7372 1.02028 10.6154 1.07105C10.4935 1.12182 10.3829 1.19621 10.2899 1.28994L7.99994 3.63994H4.63994C4.37472 3.63994 4.12037 3.7453 3.93283 3.93283C3.7453 4.12037 3.63994 4.37472 3.63994 4.63994V7.99994L1.28994 10.2899C1.19621 10.3829 1.12182 10.4935 1.07105 10.6154C1.02028 10.7372 0.994141 10.8679 0.994141 10.9999C0.994141 11.132 1.02028 11.2627 1.07105 11.3845C1.12182 11.5064 1.19621 11.617 1.28994 11.7099L3.63994 14.0499V17.3599C3.63994 17.6252 3.7453 17.8795 3.93283 18.067C4.12037 18.2546 4.37472 18.3599 4.63994 18.3599H7.99994L10.3399 20.7099C10.4329 20.8037 10.5435 20.8781 10.6654 20.9288C10.7872 20.9796 10.9179 21.0057 11.0499 21.0057C11.182 21.0057 11.3127 20.9796 11.4345 20.9288C11.5564 20.8781 11.667 20.8037 11.7599 20.7099L14.0999 18.3599H17.4099C17.6752 18.3599 17.9295 18.2546 18.117 18.067C18.3046 17.8795 18.4099 17.6252 18.4099 17.3599V14.0499L20.7599 11.7099C20.8505 11.6137 20.921 11.5005 20.9676 11.3769C21.0141 11.2532 21.0356 11.1215 21.031 10.9895C21.0264 10.8575 20.9956 10.7277 20.9405 10.6076C20.8854 10.4875 20.807 10.3796 20.7099 10.2899ZM16.6599 12.9299C16.5655 13.0226 16.4903 13.133 16.4388 13.2549C16.3873 13.3767 16.3605 13.5076 16.3599 13.6399V16.3599H13.6399C13.5076 16.3605 13.3767 16.3873 13.2549 16.4388C13.133 16.4903 13.0226 16.5655 12.9299 16.6599L10.9999 18.5899L9.06994 16.6599C8.97732 16.5655 8.86688 16.4903 8.745 16.4388C8.62313 16.3873 8.49225 16.3605 8.35994 16.3599H5.63994V13.6399C5.63939 13.5076 5.61259 13.3767 5.56109 13.2549C5.5096 13.133 5.43443 13.0226 5.33994 12.9299L3.40994 10.9999L5.33994 9.06994C5.43443 8.97732 5.5096 8.86688 5.56109 8.745C5.61259 8.62313 5.63939 8.49225 5.63994 8.35994V5.63994H8.35994C8.49225 5.63939 8.62313 5.61259 8.745 5.56109C8.86688 5.5096 8.97732 5.43443 9.06994 5.33994L10.9999 3.40994L12.9299 5.33994C13.0226 5.43443 13.133 5.5096 13.2549 5.56109C13.3767 5.61259 13.5076 5.63939 13.6399 5.63994H16.3599V8.35994C16.3605 8.49225 16.3873 8.62313 16.4388 8.745C16.4903 8.86688 16.5655 8.97732 16.6599 9.06994L18.5899 10.9999L16.6599 12.9299Z" fill="#00A859"/>
</svg>
