<svg width="24" height="24" viewBox="0 0 24 24" fill="none" xmlns="http://www.w3.org/2000/svg">
<circle cx="12" cy="12" r="11.5" fill="white" stroke="#E1E1E3"/>
<path d="M18.4733 10.1933L15.8066 7.52663C15.7444 7.46447 15.6706 7.41516 15.5894 7.38152C15.5082 7.34788 15.4212 7.33057 15.3333 7.33057C15.1557 7.33057 14.9855 7.40109 14.8599 7.52663C14.7344 7.65216 14.6639 7.82243 14.6639 7.99996C14.6639 8.1775 14.7344 8.34776 14.8599 8.47329L16.3933 9.99996H8.6666C8.48979 9.99996 8.32022 10.0702 8.19519 10.1952C8.07017 10.3202 7.99993 10.4898 7.99993 10.6666C7.99993 10.8434 8.07017 11.013 8.19519 11.138C8.32022 11.2631 8.48979 11.3333 8.6666 11.3333H17.9999C18.1315 11.3326 18.26 11.293 18.3692 11.2195C18.4783 11.1459 18.5632 11.0417 18.6133 10.92C18.6643 10.7986 18.6783 10.6647 18.6533 10.5354C18.6284 10.4061 18.5658 10.287 18.4733 10.1933ZM15.3333 12.6666H5.99993C5.86831 12.6673 5.73984 12.7069 5.63069 12.7804C5.52154 12.854 5.43661 12.9582 5.3866 13.08C5.33554 13.2014 5.3216 13.3352 5.34651 13.4645C5.37143 13.5938 5.43409 13.7129 5.5266 13.8066L8.19326 16.4733C8.25524 16.5358 8.32897 16.5854 8.41021 16.6192C8.49145 16.6531 8.57859 16.6705 8.6666 16.6705C8.7546 16.6705 8.84174 16.6531 8.92298 16.6192C9.00422 16.5854 9.07795 16.5358 9.13993 16.4733C9.20242 16.4113 9.25201 16.3376 9.28586 16.2563C9.3197 16.1751 9.33713 16.088 9.33713 16C9.33713 15.912 9.3197 15.8248 9.28586 15.7436C9.25201 15.6623 9.20242 15.5886 9.13993 15.5266L7.6066 14H15.3333C15.5101 14 15.6796 13.9297 15.8047 13.8047C15.9297 13.6797 15.9999 13.5101 15.9999 13.3333C15.9999 13.1565 15.9297 12.9869 15.8047 12.8619C15.6796 12.7369 15.5101 12.6666 15.3333 12.6666Z" fill="#EC7E3D"/>
</svg>
