<svg width="18" height="18" viewBox="0 0 18 18" fill="none" xmlns="http://www.w3.org/2000/svg">
<path d="M15.75 18H2.25C1.008 18 0 16.992 0 15.75V2.25C0 1.008 1.008 0 2.25 0H15.75C16.992 0 18 1.008 18 2.25V15.75C18 16.992 16.992 18 15.75 18Z" fill="#B4B4BB"/>
<path d="M6.91202 13.5717C11.1555 13.5717 13.4775 10.0527 13.4775 7.00624C13.4775 6.90724 13.4775 6.80824 13.473 6.70924C13.923 6.38524 14.3145 5.97573 14.625 5.51223C14.211 5.69673 13.7655 5.81823 13.2975 5.87673C13.7745 5.59323 14.139 5.13873 14.3145 4.59873C13.869 4.86423 13.374 5.05323 12.8475 5.15673C12.4245 4.70673 11.826 4.42773 11.1645 4.42773C9.89102 4.42773 8.85602 5.46273 8.85602 6.73623C8.85602 6.91623 8.87852 7.09173 8.91452 7.26273C6.99752 7.16824 5.29652 6.24573 4.15802 4.85073C3.96002 5.19273 3.84752 5.58873 3.84752 6.01173C3.84752 6.81273 4.25702 7.51924 4.87352 7.93324C4.49552 7.91974 4.14002 7.81624 3.82952 7.64524V7.67674C3.82952 8.79274 4.62602 9.72874 5.67902 9.94024C5.48552 9.99424 5.28302 10.0212 5.07152 10.0212C4.92302 10.0212 4.77902 10.0077 4.63952 9.98074C4.93202 10.8987 5.78702 11.5647 6.79502 11.5827C6.00302 12.2037 5.00852 12.5727 3.92852 12.5727C3.74402 12.5727 3.55952 12.5637 3.37952 12.5412C4.39652 13.1892 5.61152 13.5717 6.91202 13.5717Z" fill="white"/>
</svg>
