<svg width="30" height="30" viewBox="0 0 30 30" fill="none" xmlns="http://www.w3.org/2000/svg">
<path d="M26.25 30H3.75C1.68 30 0 28.32 0 26.25V3.75C0 1.68 1.68 0 3.75 0H26.25C28.32 0 30 1.68 30 3.75V26.25C30 28.32 28.32 30 26.25 30Z" fill="#1DA1F2"/>
<path d="M11.5198 22.6228C18.5923 22.6228 22.4623 16.7578 22.4623 11.6803C22.4623 11.5153 22.4623 11.3503 22.4548 11.1853C23.2048 10.6453 23.8573 9.96281 24.3748 9.19031C23.6848 9.49781 22.9423 9.70031 22.1623 9.79781C22.9573 9.32531 23.5648 8.56781 23.8573 7.66781C23.1148 8.11031 22.2898 8.42531 21.4123 8.59781C20.7073 7.84781 19.7098 7.38281 18.6073 7.38281C16.4848 7.38281 14.7598 9.10781 14.7598 11.2303C14.7598 11.5303 14.7973 11.8228 14.8573 12.1078C11.6623 11.9503 8.82732 10.4128 6.92982 8.08781C6.59982 8.65781 6.41232 9.31781 6.41232 10.0228C6.41232 11.3578 7.09482 12.5353 8.12232 13.2253C7.49232 13.2028 6.89982 13.0303 6.38232 12.7453V12.7978C6.38232 14.6578 7.70982 16.2178 9.46482 16.5703C9.14232 16.6603 8.80482 16.7053 8.45232 16.7053C8.20482 16.7053 7.96482 16.6828 7.73232 16.6378C8.21982 18.1678 9.64482 19.2778 11.3248 19.3078C10.0048 20.3428 8.34732 20.9578 6.54732 20.9578C6.23982 20.9578 5.93232 20.9428 5.63232 20.9053C7.32732 21.9853 9.35232 22.6228 11.5198 22.6228" fill="white"/>
</svg>
