<svg width="50" height="50" viewBox="0 0 50 50" fill="none" xmlns="http://www.w3.org/2000/svg">
<path d="M32.3958 18.7497C32.6552 18.8485 32.9307 18.8979 33.2083 18.8955H41.5416C42.0942 18.8955 42.6241 18.676 43.0148 18.2853C43.4055 17.8946 43.625 17.3647 43.625 16.8122C43.625 16.2597 43.4055 15.7298 43.0148 15.3391C42.6241 14.9484 42.0942 14.7289 41.5416 14.7289H38.2291L45.0833 7.8747C45.3014 7.68794 45.4785 7.45811 45.6036 7.19964C45.7286 6.94117 45.7989 6.65964 45.81 6.37273C45.821 6.08581 45.7727 5.7997 45.668 5.53236C45.5632 5.26502 45.4044 5.02221 45.2013 4.81918C44.9983 4.61615 44.7555 4.45728 44.4881 4.35254C44.2208 4.2478 43.9347 4.19945 43.6478 4.21054C43.3609 4.22162 43.0793 4.29189 42.8209 4.41694C42.5624 4.54199 42.3326 4.71911 42.1458 4.9372L35.2916 11.7705V8.45803C35.2916 7.9055 35.0721 7.37559 34.6814 6.98489C34.2907 6.59419 33.7608 6.3747 33.2083 6.3747C32.6558 6.3747 32.1259 6.59419 31.7352 6.98489C31.3445 7.37559 31.125 7.9055 31.125 8.45803V16.7914C31.1226 17.0689 31.172 17.3445 31.2708 17.6039C31.3732 17.8598 31.5254 18.0928 31.7185 18.2895C31.9116 18.4862 32.1418 18.6426 32.3958 18.7497ZM40.5 27.083C40.0416 27.083 39.5625 26.9372 39.1041 26.833C38.176 26.6285 37.2639 26.357 36.375 26.0205C35.4085 25.6689 34.3461 25.6872 33.3923 26.0718C32.4384 26.4564 31.6606 27.1802 31.2083 28.1039L30.75 29.0414C28.7208 27.9126 26.8562 26.5106 25.2083 24.8747C23.5724 23.2268 22.1704 21.3622 21.0416 19.333L21.9166 18.7497C22.8403 18.2974 23.5641 17.5196 23.9487 16.5657C24.3333 15.6119 24.3516 14.5495 24 13.583C23.6692 12.6922 23.3978 11.7805 23.1875 10.8539C23.0833 10.3955 23 9.91637 22.9375 9.4372C22.6845 7.96974 21.9159 6.64083 20.77 5.68978C19.6242 4.73873 18.1764 4.22805 16.6875 4.2497H10.4375C9.53962 4.24127 8.65049 4.42639 7.83061 4.79247C7.01074 5.15855 6.27936 5.69698 5.68628 6.37112C5.0932 7.04526 4.65233 7.83927 4.39369 8.6991C4.13505 9.55894 4.06471 10.4644 4.18747 11.3539C5.29734 20.0817 9.28336 28.1911 15.5159 34.401C21.7485 40.6109 29.8723 44.5674 38.6041 45.6455H39.3958C40.9321 45.6478 42.4154 45.0841 43.5625 44.0622C44.2216 43.4727 44.7481 42.7501 45.1072 41.942C45.4663 41.134 45.6499 40.2589 45.6458 39.3747V33.1247C45.6203 31.6776 45.0933 30.2842 44.1548 29.1823C43.2164 28.0805 41.9246 27.3385 40.5 27.083ZM41.5416 39.583C41.5413 39.8788 41.4779 40.1712 41.3558 40.4406C41.2336 40.71 41.0555 40.9503 40.8333 41.1455C40.6005 41.3465 40.3283 41.4967 40.0341 41.5864C39.74 41.676 39.4303 41.7033 39.125 41.6664C31.3227 40.666 24.0755 37.0965 18.5265 31.5211C12.9775 25.9457 9.44249 18.6817 8.47913 10.8747C8.44598 10.5695 8.47503 10.2608 8.56455 9.96718C8.65407 9.67356 8.8022 9.40113 8.99997 9.16637C9.1952 8.94414 9.43551 8.76604 9.70492 8.6439C9.97433 8.52177 10.2667 8.45841 10.5625 8.45803H16.8125C17.2969 8.44725 17.77 8.6057 18.1503 8.9061C18.5305 9.2065 18.7942 9.63005 18.8958 10.1039C18.9791 10.6733 19.0833 11.2358 19.2083 11.7914C19.449 12.8896 19.7693 13.9688 20.1666 15.0205L17.25 16.3747C17.0006 16.4891 16.7763 16.6517 16.5899 16.853C16.4035 17.0544 16.2587 17.2906 16.1639 17.548C16.069 17.8055 16.0259 18.0791 16.0371 18.3533C16.0484 18.6274 16.1136 18.8967 16.2291 19.1455C19.2275 25.5679 24.3901 30.7305 30.8125 33.7289C31.3197 33.9372 31.8886 33.9372 32.3958 33.7289C32.6556 33.6359 32.8944 33.4923 33.0982 33.3063C33.3021 33.1204 33.467 32.8958 33.5833 32.6455L34.875 29.7289C35.952 30.114 37.0512 30.434 38.1666 30.6872C38.7222 30.8122 39.2847 30.9164 39.8541 30.9997C40.3279 31.1013 40.7515 31.365 41.0519 31.7452C41.3523 32.1255 41.5107 32.5986 41.5 33.083L41.5416 39.583Z" fill="#00A859"/>
</svg>
