<svg width="100" height="100" viewBox="0 0 100 100" fill="none" xmlns="http://www.w3.org/2000/svg">
<path d="M95.5078 49.9805C95.5078 49.9414 95.5078 49.8828 95.5078 49.8438C95.5078 49.5313 95.5078 49.2188 95.4883 48.9258C95.4883 48.75 95.4688 48.5742 95.4688 48.3789C95.4688 48.2031 95.4492 48.0273 95.4492 47.8516C95.4297 47.6367 95.4297 47.4219 95.4102 47.207C95.4102 47.0703 95.3906 46.9336 95.3906 46.7969C95.3711 46.5625 95.3516 46.3281 95.332 46.0938C95.332 45.9961 95.3125 45.8789 95.3125 45.7813C95.293 45.5273 95.2539 45.2734 95.2344 45C95.2344 44.9414 95.2148 44.8633 95.2148 44.8047C92.6367 22.1094 73.3789 4.47266 50 4.47266C26.6211 4.47266 7.36328 22.1094 4.78516 44.8242C4.78516 44.8828 4.76562 44.9609 4.76562 45.0195C4.74609 45.2734 4.70703 45.5273 4.6875 45.8008C4.66797 45.8984 4.66797 46.0156 4.66797 46.1133C4.64844 46.3477 4.62891 46.582 4.60938 46.8164C4.60938 46.9531 4.58984 47.0898 4.58984 47.2266C4.57031 47.4414 4.57031 47.6563 4.55078 47.8711C4.55078 48.0469 4.53125 48.2227 4.53125 48.3984C4.53125 48.5742 4.51172 48.75 4.51172 48.9453C4.51172 49.2578 4.49219 49.5703 4.49219 49.8633C4.49219 49.9023 4.49219 49.9609 4.49219 50C4.49219 50 4.49219 50 4.49219 50.0195C4.49219 50.0391 4.49219 50.0195 4.49219 50.0391C4.49219 50.0781 4.49219 50.1367 4.49219 50.1758C4.49219 50.4883 4.49219 50.8008 4.51172 51.0938C4.51172 51.2695 4.53125 51.4453 4.53125 51.6406C4.53125 51.8164 4.55078 51.9922 4.55078 52.168C4.57031 52.3828 4.57031 52.5977 4.58984 52.8125C4.58984 52.9492 4.60938 53.0859 4.60938 53.2227C4.62891 53.457 4.64844 53.6914 4.66797 53.9258C4.66797 54.0234 4.6875 54.1406 4.6875 54.2383C4.70703 54.4922 4.74609 54.7461 4.76562 55.0195C4.76562 55.0781 4.78516 55.1563 4.78516 55.2149C7.36328 77.8906 26.6211 95.5274 50 95.5274C73.3789 95.5274 92.6367 77.8906 95.2148 55.1953C95.2148 55.1367 95.2344 55.0586 95.2344 55C95.2539 54.7461 95.293 54.4922 95.3125 54.2188C95.332 54.1211 95.332 54.0039 95.332 53.9063C95.3516 53.6719 95.3711 53.4375 95.3906 53.2031C95.3906 53.0664 95.4102 52.9297 95.4102 52.793C95.4297 52.5781 95.4297 52.3633 95.4492 52.1484C95.4492 51.9727 95.4688 51.7969 95.4688 51.6211C95.4688 51.4453 95.4883 51.2695 95.4883 51.0742C95.4883 50.7617 95.5078 50.4492 95.5078 50.1563C95.5078 50.1172 95.5078 50.0586 95.5078 50.0195C95.5078 50 95.5078 50 95.5078 49.9805C95.5078 50 95.5078 50 95.5078 49.9805Z" fill="#F44336"/>
<path d="M50 81.1523C67.205 81.1523 81.1523 67.205 81.1523 50C81.1523 32.795 67.205 18.8477 50 18.8477C32.795 18.8477 18.8477 32.795 18.8477 50C18.8477 67.205 32.795 81.1523 50 81.1523Z" fill="white"/>
<path d="M35.5273 35.5273L64.4727 64.4727" stroke="#F44336" stroke-width="10" stroke-miterlimit="10"/>
<path d="M35.5273 64.4727L64.4727 35.5273" stroke="#F44336" stroke-width="10" stroke-miterlimit="10"/>
</svg>
