<svg width="13" height="15" viewBox="0 0 13 15" fill="none" xmlns="http://www.w3.org/2000/svg">
<path d="M4.97333 11.0265L5.83333 11.8932V4.16654C5.83333 3.98973 5.90357 3.82016 6.0286 3.69514C6.15362 3.57012 6.32319 3.49988 6.5 3.49988C6.67681 3.49988 6.84638 3.57012 6.9714 3.69514C7.09643 3.82016 7.16667 3.98973 7.16667 4.16654V11.8932L8.02667 11.0265C8.08864 10.9641 8.16238 10.9145 8.24362 10.8806C8.32486 10.8468 8.41199 10.8293 8.5 10.8293C8.58801 10.8293 8.67515 10.8468 8.75638 10.8806C8.83762 10.9145 8.91136 10.9641 8.97333 11.0265C9.03582 11.0885 9.08541 11.1623 9.11926 11.2435C9.15311 11.3247 9.17053 11.4119 9.17053 11.4999C9.17053 11.5879 9.15311 11.675 9.11926 11.7563C9.08541 11.8375 9.03582 11.9112 8.97333 11.9732L6.97333 13.9732C6.91136 14.0357 6.83762 14.0853 6.75638 14.1191C6.67515 14.153 6.58801 14.1704 6.5 14.1704C6.41199 14.1704 6.32486 14.153 6.24362 14.1191C6.16238 14.0853 6.08864 14.0357 6.02667 13.9732L4.02667 11.9732C3.90113 11.8477 3.83061 11.6774 3.83061 11.4999C3.83061 11.3223 3.90113 11.1521 4.02667 11.0265C4.1522 10.901 4.32247 10.8305 4.5 10.8305C4.67753 10.8305 4.8478 10.901 4.97333 11.0265ZM10.5 9.49988H9.16667C8.98986 9.49988 8.82029 9.42964 8.69526 9.30462C8.57024 9.17959 8.5 9.01002 8.5 8.83321C8.5 8.6564 8.57024 8.48683 8.69526 8.36181C8.82029 8.23678 8.98986 8.16654 9.16667 8.16654H10.5C10.6768 8.16654 10.8464 8.09631 10.9714 7.97128C11.0964 7.84626 11.1667 7.67669 11.1667 7.49988V2.83321C11.1667 2.6564 11.0964 2.48683 10.9714 2.36181C10.8464 2.23678 10.6768 2.16654 10.5 2.16654H2.5C2.32319 2.16654 2.15362 2.23678 2.0286 2.36181C1.90357 2.48683 1.83333 2.6564 1.83333 2.83321V7.49988C1.83333 7.67669 1.90357 7.84626 2.0286 7.97128C2.15362 8.09631 2.32319 8.16654 2.5 8.16654H3.83333C4.01014 8.16654 4.17971 8.23678 4.30474 8.36181C4.42976 8.48683 4.5 8.6564 4.5 8.83321C4.5 9.01002 4.42976 9.17959 4.30474 9.30462C4.17971 9.42964 4.01014 9.49988 3.83333 9.49988H2.5C1.96957 9.49988 1.46086 9.28916 1.08579 8.91409C0.710714 8.53902 0.5 8.03031 0.5 7.49988V2.83321C0.5 2.30278 0.710714 1.79407 1.08579 1.419C1.46086 1.04392 1.96957 0.833211 2.5 0.833211H10.5C11.0304 0.833211 11.5391 1.04392 11.9142 1.419C12.2893 1.79407 12.5 2.30278 12.5 2.83321V7.49988C12.5 8.03031 12.2893 8.53902 11.9142 8.91409C11.5391 9.28916 11.0304 9.49988 10.5 9.49988Z" fill="#00A859"/>
</svg>
