<svg width="40" height="40" viewBox="0 0 40 40" fill="none" xmlns="http://www.w3.org/2000/svg">
<path d="M39.399 15.1617C36.7277 4.44747 25.876 -2.07306 15.1605 0.598763C4.44935 3.26997 -2.07123 14.1224 0.601217 24.836C3.27118 35.5515 14.123 42.0727 24.8354 39.4015C35.5502 36.7303 42.0702 25.8766 39.399 15.1617Z" fill="#896AB9"/>
<path d="M13.4212 16.6317C13.3125 16.3617 13.0369 15.9567 12.4156 16.1105C12.4375 16.0786 10.8207 16.5086 10.8207 16.5086L9.73132 13.9968L12.5869 13.2848C13.1181 13.1517 13.6388 13.0124 14.1513 12.8811L13.2431 9.23488L15.435 8.68801L16.3343 12.2955C16.9331 12.133 17.5143 11.983 18.0831 11.8418L17.1868 8.25118L19.3812 7.70431L20.2893 11.3436C24.0312 10.6356 26.8448 10.9211 28.0292 14.3055C28.9836 17.0304 27.9817 18.6024 26.013 19.6273C27.4468 19.9579 28.5267 20.9011 28.8148 22.8492C29.2129 25.5104 27.1867 26.941 24.4161 27.8954L25.3148 31.5004L23.1204 32.0473L22.2455 28.5373C21.6686 28.681 21.0761 28.8167 20.4874 28.9511L21.3686 32.4842L19.1755 33.0311L18.2761 29.4273C17.7986 29.5361 17.3299 29.6436 16.8749 29.7567L16.8774 29.768L13.8511 30.5236L13.2674 28.1799C13.2674 28.1799 14.8955 27.8067 14.8611 27.7836C15.7499 27.5618 15.9105 26.9737 15.8836 26.5074L13.4212 16.6317ZM23.8011 15.8186C23.123 13.0937 18.5349 14.5668 17.0474 14.9361L18.2524 19.7667C19.7399 19.3955 24.5098 18.6605 23.8011 15.8186ZM24.4798 22.8885C23.8611 20.4098 20.0424 21.6691 18.8037 21.9779L19.8962 26.3591C21.1349 26.0504 25.1242 25.4741 24.4798 22.8885Z" fill="white"/>
</svg>
