<svg width="40" height="40" viewBox="0 0 40 40" fill="none" xmlns="http://www.w3.org/2000/svg">
<path d="M39.399 15.1617C36.7277 4.44747 25.876 -2.07306 15.1605 0.598763C4.44935 3.26997 -2.07123 14.1224 0.601217 24.836C3.27118 35.5515 14.123 42.0727 24.8354 39.4015C35.5502 36.7303 42.0702 25.8766 39.399 15.1617Z" fill="#50D74D"/>
<path d="M13.4211 16.6317C13.3124 16.3617 13.0368 15.9567 12.4155 16.1105C12.4374 16.0786 10.8205 16.5086 10.8205 16.5086L9.7312 13.9968L12.5867 13.2848C13.118 13.1517 13.6386 13.0124 14.1511 12.8811L13.243 9.23488L15.4348 8.68801L16.3342 12.2955C16.933 12.133 17.5142 11.983 18.0829 11.8418L17.1867 8.25118L19.3811 7.70431L20.2892 11.3436C24.031 10.6356 26.8447 10.9211 28.0291 14.3055C28.9835 17.0304 27.9816 18.6024 26.0129 19.6273C27.4466 19.9579 28.5266 20.9011 28.8147 22.8492C29.2128 25.5104 27.1866 26.941 24.416 27.8954L25.3147 31.5004L23.1203 32.0473L22.2454 28.5373C21.6685 28.681 21.076 28.8167 20.4873 28.9511L21.3685 32.4842L19.1754 33.0311L18.276 29.4273C17.7985 29.5361 17.3298 29.6436 16.8748 29.7567L16.8773 29.768L13.851 30.5236L13.2672 28.1799C13.2672 28.1799 14.8954 27.8067 14.861 27.7836C15.7498 27.5618 15.9104 26.9737 15.8835 26.5074L13.4211 16.6317ZM23.801 15.8186C23.1229 13.0937 18.5348 14.5668 17.0473 14.9361L18.2523 19.7667C19.7398 19.3955 24.5097 18.6605 23.801 15.8186ZM24.4797 22.8885C23.861 20.4098 20.0423 21.6691 18.8035 21.9779L19.896 26.3591C21.1348 26.0504 25.1241 25.4741 24.4797 22.8885Z" fill="white"/>
</svg>
