<svg width="62" height="62" viewBox="0 0 62 62" fill="none" xmlns="http://www.w3.org/2000/svg">
<g clip-path="url(#clip0_130_5162)">
<path d="M61.0689 23.5007C56.9285 6.89358 40.1083 -3.21324 23.4992 0.928089C6.89699 5.06845 -3.2099 21.8897 0.932387 38.4958C5.07083 55.1049 21.8911 65.2127 38.4953 61.0724C55.1033 56.9319 65.2093 40.1088 61.0689 23.5007Z" fill="black"/>
<path d="M20.8033 25.7792C20.6348 25.3606 20.2076 24.7329 19.2446 24.9713C19.2786 24.9218 16.7725 25.5883 16.7725 25.5883L15.084 21.695L19.5101 20.5915C20.3335 20.3852 21.1405 20.1692 21.9349 19.9657L20.5272 14.3141L23.9246 13.4664L25.3186 19.058C26.2468 18.8062 27.1476 18.5737 28.0292 18.3547L26.64 12.7894L30.0413 11.9417L31.4488 17.5827C37.2487 16.4851 41.6099 16.9278 43.4457 22.1735C44.925 26.3972 43.3721 28.8337 40.3206 30.4224C42.5429 30.9348 44.2168 32.3967 44.6634 35.4162C45.2805 39.5411 42.1398 41.7586 37.8454 43.2379L39.2384 48.8256L35.8371 49.6733L34.4809 44.2328C33.5868 44.4556 32.6684 44.6659 31.7559 44.8742L33.1218 50.3505L29.7225 51.1982L28.3284 45.6124C27.5883 45.781 26.8618 45.9477 26.1565 46.1229L26.1604 46.1404L21.4697 47.3116L20.5648 43.6788C20.5648 43.6788 23.0885 43.1005 23.0352 43.0647C24.4127 42.7207 24.6617 41.8092 24.6201 41.0864L20.8033 25.7792ZM36.8922 24.5188C35.8411 20.2952 28.7296 22.5785 26.424 23.151L28.2917 30.6384C30.5973 30.063 37.9907 28.9238 36.8922 24.5188ZM37.9442 35.4772C36.9851 31.6352 31.0661 33.5872 29.1461 34.0657L30.8395 40.8567C32.7595 40.3781 38.943 39.4849 37.9442 35.4772Z" fill="white"/>
</g>
<defs>
<clipPath id="clip0_130_5162">
<rect width="62" height="62" fill="white" transform="matrix(1 0 0 -1 0 62)"/>
</clipPath>
</defs>
</svg>
