<svg width="44" height="44" viewBox="0 0 44 44" fill="none" xmlns="http://www.w3.org/2000/svg">
<path fill-rule="evenodd" clip-rule="evenodd" d="M30.6353 18.4656C30.6353 19.3812 31.3686 20.1138 32.2853 20.1138C33.2019 20.1138 33.9536 19.3812 33.9536 18.4656C33.9536 17.5499 33.2019 16.7991 32.2853 16.7991C31.3686 16.7991 30.6353 17.5499 30.6353 18.4656ZM27.0786 29.5266C25.7769 30.8269 23.9802 31.6326 22.0002 31.6326C20.0752 31.6326 18.2786 30.8818 16.9036 29.5266C15.5469 28.1532 14.7952 26.3585 14.7952 24.4356C14.7769 22.5311 15.5286 20.7364 16.8852 19.3629C18.2602 17.9894 20.0752 17.2386 22.0002 17.2386C23.9252 17.2386 25.7402 17.9894 27.0969 19.3446C28.4536 20.7181 29.2052 22.5311 29.2052 24.4356C29.1869 26.4317 28.3802 28.2264 27.0786 29.5266ZM22.0002 19.9856C20.8086 19.9856 19.6902 20.4434 18.8286 21.3041C17.9852 22.1465 17.5269 23.2636 17.5452 24.4173V24.4356C17.5452 25.626 18.0036 26.7431 18.8469 27.5855C19.6902 28.4278 20.8086 28.8857 22.0002 28.8857C24.4569 28.8857 26.4369 26.8896 26.4552 24.4356C26.4552 23.2453 25.9969 22.1282 25.1536 21.2858C24.3102 20.4434 23.1919 19.9856 22.0002 19.9856Z" fill="#001755"/>
<path opacity="0.4" d="M31.9737 11.4334L31.7903 11.0305C31.2953 9.98668 30.727 8.77802 30.3787 8.08213C29.5353 6.43396 28.087 5.51831 26.3087 5.5H17.6737C15.8953 5.51831 14.4653 6.43396 13.622 8.08213C13.2553 8.81465 12.632 10.1332 12.1187 11.2137L12.0087 11.4334C11.9537 11.5799 11.807 11.6532 11.6603 11.6532C7.24199 11.6532 3.66699 15.2425 3.66699 19.6376V30.5155C3.66699 34.9107 7.24199 38.5 11.6603 38.5H32.3403C36.7403 38.5 40.3337 34.9107 40.3337 30.5155V19.6376C40.3337 15.2425 36.7403 11.6532 32.3403 11.6532C32.1753 11.6532 32.047 11.5616 31.9737 11.4334Z" fill="#001755"/>
</svg>
