<svg width="701" height="363" viewBox="0 0 701 363" fill="none" xmlns="http://www.w3.org/2000/svg">
<rect x="0.5" y="0.5" width="700" height="362" rx="9.5" fill="white"/>
<path d="M21.233 38V27.8182H24.6733C25.4721 27.8182 26.125 27.9624 26.6321 28.2507C27.1425 28.5357 27.5204 28.9219 27.7656 29.4091C28.0109 29.8963 28.1335 30.4399 28.1335 31.0398C28.1335 31.6397 28.0109 32.1849 27.7656 32.6754C27.5237 33.166 27.1491 33.5571 26.642 33.8487C26.1349 34.1371 25.4853 34.2812 24.6932 34.2812H22.2273V33.1875H24.6534C25.2003 33.1875 25.6394 33.093 25.9709 32.9041C26.3023 32.7152 26.5426 32.46 26.6918 32.1385C26.8442 31.8137 26.9205 31.4474 26.9205 31.0398C26.9205 30.6321 26.8442 30.2675 26.6918 29.946C26.5426 29.6245 26.3007 29.3726 25.9659 29.1903C25.6312 29.0047 25.187 28.9119 24.6335 28.9119H22.4659V38H21.233ZM32.9808 38.1591C32.2914 38.1591 31.6866 37.995 31.1662 37.6669C30.6491 37.3388 30.2448 36.8797 29.9531 36.2898C29.6648 35.6998 29.5206 35.0104 29.5206 34.2216C29.5206 33.4261 29.6648 32.7318 29.9531 32.1385C30.2448 31.5452 30.6491 31.0845 31.1662 30.7564C31.6866 30.4283 32.2914 30.2642 32.9808 30.2642C33.6702 30.2642 34.2734 30.4283 34.7905 30.7564C35.3108 31.0845 35.7152 31.5452 36.0036 32.1385C36.2952 32.7318 36.4411 33.4261 36.4411 34.2216C36.4411 35.0104 36.2952 35.6998 36.0036 36.2898C35.7152 36.8797 35.3108 37.3388 34.7905 37.6669C34.2734 37.995 33.6702 38.1591 32.9808 38.1591ZM32.9808 37.1051C33.5045 37.1051 33.9354 36.9709 34.2734 36.7024C34.6115 36.4339 34.8617 36.081 35.0241 35.6435C35.1866 35.206 35.2678 34.732 35.2678 34.2216C35.2678 33.7112 35.1866 33.2356 35.0241 32.7947C34.8617 32.3539 34.6115 31.9976 34.2734 31.7259C33.9354 31.4541 33.5045 31.3182 32.9808 31.3182C32.4571 31.3182 32.0263 31.4541 31.6882 31.7259C31.3501 31.9976 31.0999 32.3539 30.9375 32.7947C30.7751 33.2356 30.6939 33.7112 30.6939 34.2216C30.6939 34.732 30.7751 35.206 30.9375 35.6435C31.0999 36.081 31.3501 36.4339 31.6882 36.7024C32.0263 36.9709 32.4571 37.1051 32.9808 37.1051ZM38.2321 38V30.3636H39.3656V31.517H39.4451C39.5843 31.1392 39.8362 30.8326 40.2008 30.5973C40.5654 30.362 40.9764 30.2443 41.4338 30.2443C41.5199 30.2443 41.6277 30.246 41.7569 30.2493C41.8862 30.2526 41.984 30.2576 42.0502 30.2642V31.4574C42.0105 31.4474 41.9193 31.4325 41.7768 31.4126C41.6376 31.3894 41.4901 31.3778 41.3343 31.3778C40.9631 31.3778 40.6317 31.4557 40.34 31.6115C40.0517 31.764 39.823 31.9761 39.6539 32.2479C39.4882 32.5163 39.4054 32.8229 39.4054 33.1676V38H38.2321ZM47.2406 30.3636V31.358H43.2832V30.3636H47.2406ZM44.4366 28.5341H45.6099V35.8125C45.6099 36.1439 45.658 36.3925 45.7541 36.5582C45.8535 36.7206 45.9795 36.83 46.1319 36.8864C46.2877 36.9394 46.4518 36.9659 46.6241 36.9659C46.7534 36.9659 46.8594 36.9593 46.9423 36.946C47.0252 36.9295 47.0914 36.9162 47.1412 36.9062L47.3798 37.9602C47.3002 37.9901 47.1892 38.0199 47.0467 38.0497C46.9042 38.0829 46.7235 38.0994 46.5048 38.0994C46.1734 38.0994 45.8485 38.0282 45.5304 37.8857C45.2155 37.7431 44.9537 37.526 44.7449 37.2344C44.5394 36.9427 44.4366 36.5748 44.4366 36.1307V28.5341ZM52.4061 30.3636V31.358H48.2896V30.3636H52.4061ZM49.5225 38V29.3097C49.5225 28.8722 49.6253 28.5076 49.8308 28.2159C50.0363 27.9242 50.3031 27.7055 50.6312 27.5597C50.9593 27.4138 51.3057 27.3409 51.6703 27.3409C51.9586 27.3409 52.194 27.3641 52.3762 27.4105C52.5585 27.4569 52.6944 27.5 52.7839 27.5398L52.4458 28.554C52.3862 28.5341 52.3033 28.5092 52.1973 28.4794C52.0945 28.4496 51.9586 28.4347 51.7896 28.4347C51.4018 28.4347 51.1217 28.5324 50.9494 28.728C50.7804 28.9235 50.6958 29.2102 50.6958 29.5881V38H49.5225ZM56.8382 38.1591C56.1489 38.1591 55.544 37.995 55.0236 37.6669C54.5066 37.3388 54.1022 36.8797 53.8105 36.2898C53.5222 35.6998 53.378 35.0104 53.378 34.2216C53.378 33.4261 53.5222 32.7318 53.8105 32.1385C54.1022 31.5452 54.5066 31.0845 55.0236 30.7564C55.544 30.4283 56.1489 30.2642 56.8382 30.2642C57.5276 30.2642 58.1309 30.4283 58.6479 30.7564C59.1683 31.0845 59.5726 31.5452 59.861 32.1385C60.1526 32.7318 60.2985 33.4261 60.2985 34.2216C60.2985 35.0104 60.1526 35.6998 59.861 36.2898C59.5726 36.8797 59.1683 37.3388 58.6479 37.6669C58.1309 37.995 57.5276 38.1591 56.8382 38.1591ZM56.8382 37.1051C57.3619 37.1051 57.7928 36.9709 58.1309 36.7024C58.4689 36.4339 58.7192 36.081 58.8816 35.6435C59.044 35.206 59.1252 34.732 59.1252 34.2216C59.1252 33.7112 59.044 33.2356 58.8816 32.7947C58.7192 32.3539 58.4689 31.9976 58.1309 31.7259C57.7928 31.4541 57.3619 31.3182 56.8382 31.3182C56.3146 31.3182 55.8837 31.4541 55.5456 31.7259C55.2076 31.9976 54.9573 32.3539 54.7949 32.7947C54.6325 33.2356 54.5513 33.7112 54.5513 34.2216C54.5513 34.732 54.6325 35.206 54.7949 35.6435C54.9573 36.081 55.2076 36.4339 55.5456 36.7024C55.8837 36.9709 56.3146 37.1051 56.8382 37.1051ZM63.2628 27.8182V38H62.0895V27.8182H63.2628ZM65.4118 38V30.3636H66.585V38H65.4118ZM66.0083 29.0909C65.7797 29.0909 65.5824 29.013 65.4167 28.8572C65.2543 28.7015 65.1731 28.5142 65.1731 28.2955C65.1731 28.0767 65.2543 27.8894 65.4167 27.7337C65.5824 27.5779 65.7797 27.5 66.0083 27.5C66.237 27.5 66.4326 27.5779 66.595 27.7337C66.7607 27.8894 66.8436 28.0767 66.8436 28.2955C66.8436 28.5142 66.7607 28.7015 66.595 28.8572C66.4326 29.013 66.237 29.0909 66.0083 29.0909ZM71.8363 38.1591C71.1469 38.1591 70.542 37.995 70.0217 37.6669C69.5046 37.3388 69.1003 36.8797 68.8086 36.2898C68.5202 35.6998 68.3761 35.0104 68.3761 34.2216C68.3761 33.4261 68.5202 32.7318 68.8086 32.1385C69.1003 31.5452 69.5046 31.0845 70.0217 30.7564C70.542 30.4283 71.1469 30.2642 71.8363 30.2642C72.5257 30.2642 73.1289 30.4283 73.646 30.7564C74.1663 31.0845 74.5707 31.5452 74.859 32.1385C75.1507 32.7318 75.2965 33.4261 75.2965 34.2216C75.2965 35.0104 75.1507 35.6998 74.859 36.2898C74.5707 36.8797 74.1663 37.3388 73.646 37.6669C73.1289 37.995 72.5257 38.1591 71.8363 38.1591ZM71.8363 37.1051C72.36 37.1051 72.7908 36.9709 73.1289 36.7024C73.467 36.4339 73.7172 36.081 73.8796 35.6435C74.042 35.206 74.1232 34.732 74.1232 34.2216C74.1232 33.7112 74.042 33.2356 73.8796 32.7947C73.7172 32.3539 73.467 31.9976 73.1289 31.7259C72.7908 31.4541 72.36 31.3182 71.8363 31.3182C71.3126 31.3182 70.8817 31.4541 70.5437 31.7259C70.2056 31.9976 69.9554 32.3539 69.793 32.7947C69.6306 33.2356 69.5494 33.7112 69.5494 34.2216C69.5494 34.732 69.6306 35.206 69.793 35.6435C69.9554 36.081 70.2056 36.4339 70.5437 36.7024C70.8817 36.9709 71.3126 37.1051 71.8363 37.1051ZM86.4341 32.0739L85.3801 32.3722C85.3139 32.1965 85.2161 32.0258 85.0868 31.8601C84.9609 31.6911 84.7885 31.5518 84.5698 31.4425C84.351 31.3331 84.071 31.2784 83.7296 31.2784C83.2623 31.2784 82.8728 31.3861 82.5613 31.6016C82.253 31.8137 82.0989 32.0838 82.0989 32.4119C82.0989 32.7036 82.205 32.9339 82.4171 33.103C82.6292 33.272 82.9606 33.4129 83.4114 33.5256L84.5449 33.804C85.2277 33.9697 85.7364 34.2232 86.0712 34.5646C86.406 34.9027 86.5733 35.3385 86.5733 35.8722C86.5733 36.3097 86.4474 36.7008 86.1955 37.0455C85.9469 37.3902 85.5989 37.6619 85.1515 37.8608C84.704 38.0597 84.1837 38.1591 83.5904 38.1591C82.8115 38.1591 82.1668 37.9901 81.6564 37.652C81.146 37.3139 80.8229 36.8201 80.687 36.1705L81.8006 35.892C81.9067 36.303 82.1072 36.6113 82.4022 36.8168C82.7005 37.0223 83.0899 37.125 83.5705 37.125C84.1174 37.125 84.5516 37.009 84.873 36.777C85.1979 36.5417 85.3603 36.2599 85.3603 35.9318C85.3603 35.6667 85.2675 35.4446 85.0819 35.2656C84.8962 35.0833 84.6112 34.9474 84.2267 34.858L82.954 34.5597C82.2547 34.3939 81.7409 34.1371 81.4128 33.7891C81.088 33.4377 80.9256 32.9986 80.9256 32.4716C80.9256 32.0407 81.0466 31.6596 81.2885 31.3281C81.5338 30.9967 81.8669 30.7365 82.2878 30.5476C82.7121 30.3587 83.1926 30.2642 83.7296 30.2642C84.4853 30.2642 85.0785 30.4299 85.5094 30.7614C85.9436 31.0928 86.2518 31.5303 86.4341 32.0739ZM91.6605 30.3636V31.358H87.7031V30.3636H91.6605ZM88.8565 28.5341H90.0298V35.8125C90.0298 36.1439 90.0779 36.3925 90.174 36.5582C90.2734 36.7206 90.3994 36.83 90.5518 36.8864C90.7076 36.9394 90.8717 36.9659 91.044 36.9659C91.1733 36.9659 91.2794 36.9593 91.3622 36.946C91.4451 36.9295 91.5114 36.9162 91.5611 36.9062L91.7997 37.9602C91.7202 37.9901 91.6091 38.0199 91.4666 38.0497C91.3241 38.0829 91.1435 38.0994 90.9247 38.0994C90.5933 38.0994 90.2685 38.0282 89.9503 37.8857C89.6354 37.7431 89.3736 37.526 89.1648 37.2344C88.9593 36.9427 88.8565 36.5748 88.8565 36.1307V28.5341ZM95.6726 38.179C95.1887 38.179 94.7495 38.0878 94.3551 37.9055C93.9607 37.7199 93.6475 37.4531 93.4155 37.1051C93.1835 36.7538 93.0675 36.3295 93.0675 35.8324C93.0675 35.3949 93.1536 35.0402 93.326 34.7685C93.4983 34.4934 93.7287 34.2779 94.017 34.1222C94.3054 33.9664 94.6236 33.8504 94.9716 33.7741C95.3229 33.6946 95.6759 33.6316 96.0305 33.5852C96.4946 33.5256 96.8707 33.4808 97.1591 33.451C97.4508 33.4179 97.6629 33.3632 97.7955 33.2869C97.9313 33.2107 97.9993 33.0781 97.9993 32.8892V32.8494C97.9993 32.3589 97.8651 31.9777 97.5966 31.706C97.3314 31.4342 96.9287 31.2983 96.3885 31.2983C95.8284 31.2983 95.3892 31.4209 95.071 31.6662C94.7528 31.9115 94.5291 32.1733 94.3999 32.4517L93.2862 32.054C93.4851 31.59 93.7502 31.2287 94.0817 30.9702C94.4164 30.7083 94.781 30.526 95.1754 30.4233C95.5732 30.3172 95.9643 30.2642 96.3487 30.2642C96.594 30.2642 96.8757 30.294 97.1939 30.3537C97.5154 30.41 97.8253 30.5277 98.1236 30.7067C98.4252 30.8857 98.6754 31.1558 98.8743 31.517C99.0732 31.8783 99.1726 32.3622 99.1726 32.9688V38H97.9993V36.9659H97.9396C97.8601 37.1316 97.7275 37.3089 97.5419 37.4979C97.3563 37.6868 97.1094 37.8475 96.8011 37.9801C96.4929 38.1127 96.1167 38.179 95.6726 38.179ZM95.8516 37.125C96.3156 37.125 96.7067 37.0339 97.0249 36.8516C97.3464 36.6693 97.5883 36.4339 97.7507 36.1456C97.9164 35.8572 97.9993 35.554 97.9993 35.2358V34.1619C97.9496 34.2216 97.8402 34.2763 97.6712 34.326C97.5054 34.3724 97.3132 34.4138 97.0945 34.4503C96.879 34.4834 96.6686 34.5133 96.4631 34.5398C96.2609 34.563 96.0968 34.5829 95.9709 34.5994C95.666 34.6392 95.3809 34.7038 95.1158 34.7933C94.8539 34.8795 94.6418 35.0104 94.4794 35.1861C94.3203 35.3584 94.2408 35.5937 94.2408 35.892C94.2408 36.2997 94.3916 36.608 94.6932 36.8168C94.9981 37.0223 95.3842 37.125 95.8516 37.125ZM104.635 30.3636V31.358H100.678V30.3636H104.635ZM101.831 28.5341H103.004V35.8125C103.004 36.1439 103.052 36.3925 103.149 36.5582C103.248 36.7206 103.374 36.83 103.526 36.8864C103.682 36.9394 103.846 36.9659 104.019 36.9659C104.148 36.9659 104.254 36.9593 104.337 36.946C104.42 36.9295 104.486 36.9162 104.536 36.9062L104.774 37.9602C104.695 37.9901 104.584 38.0199 104.441 38.0497C104.299 38.0829 104.118 38.0994 103.899 38.0994C103.568 38.0994 103.243 38.0282 102.925 37.8857C102.61 37.7431 102.348 37.526 102.139 37.2344C101.934 36.9427 101.831 36.5748 101.831 36.1307V28.5341ZM106.4 38V30.3636H107.573V38H106.4ZM106.997 29.0909C106.768 29.0909 106.571 29.013 106.405 28.8572C106.243 28.7015 106.161 28.5142 106.161 28.2955C106.161 28.0767 106.243 27.8894 106.405 27.7337C106.571 27.5779 106.768 27.5 106.997 27.5C107.225 27.5 107.421 27.5779 107.583 27.7337C107.749 27.8894 107.832 28.0767 107.832 28.2955C107.832 28.5142 107.749 28.7015 107.583 28.8572C107.421 29.013 107.225 29.0909 106.997 29.0909ZM115.131 32.0739L114.077 32.3722C114.011 32.1965 113.913 32.0258 113.784 31.8601C113.658 31.6911 113.486 31.5518 113.267 31.4425C113.048 31.3331 112.768 31.2784 112.427 31.2784C111.96 31.2784 111.57 31.3861 111.259 31.6016C110.95 31.8137 110.796 32.0838 110.796 32.4119C110.796 32.7036 110.902 32.9339 111.114 33.103C111.326 33.272 111.658 33.4129 112.109 33.5256L113.242 33.804C113.925 33.9697 114.434 34.2232 114.768 34.5646C115.103 34.9027 115.271 35.3385 115.271 35.8722C115.271 36.3097 115.145 36.7008 114.893 37.0455C114.644 37.3902 114.296 37.6619 113.849 37.8608C113.401 38.0597 112.881 38.1591 112.288 38.1591C111.509 38.1591 110.864 37.9901 110.354 37.652C109.843 37.3139 109.52 36.8201 109.384 36.1705L110.498 35.892C110.604 36.303 110.804 36.6113 111.099 36.8168C111.398 37.0223 111.787 37.125 112.268 37.125C112.815 37.125 113.249 37.009 113.57 36.777C113.895 36.5417 114.058 36.2599 114.058 35.9318C114.058 35.6667 113.965 35.4446 113.779 35.2656C113.594 35.0833 113.308 34.9474 112.924 34.858L111.651 34.5597C110.952 34.3939 110.438 34.1371 110.11 33.7891C109.785 33.4377 109.623 32.9986 109.623 32.4716C109.623 32.0407 109.744 31.6596 109.986 31.3281C110.231 30.9967 110.564 30.7365 110.985 30.5476C111.409 30.3587 111.89 30.2642 112.427 30.2642C113.183 30.2642 113.776 30.4299 114.207 30.7614C114.641 31.0928 114.949 31.5303 115.131 32.0739ZM120.358 30.3636V31.358H116.4V30.3636H120.358ZM117.554 28.5341H118.727V35.8125C118.727 36.1439 118.775 36.3925 118.871 36.5582C118.971 36.7206 119.097 36.83 119.249 36.8864C119.405 36.9394 119.569 36.9659 119.741 36.9659C119.871 36.9659 119.977 36.9593 120.059 36.946C120.142 36.9295 120.209 36.9162 120.258 36.9062L120.497 37.9602C120.417 37.9901 120.306 38.0199 120.164 38.0497C120.021 38.0829 119.841 38.0994 119.622 38.0994C119.291 38.0994 118.966 38.0282 118.648 37.8857C118.333 37.7431 118.071 37.526 117.862 37.2344C117.657 36.9427 117.554 36.5748 117.554 36.1307V28.5341ZM122.123 38V30.3636H123.296V38H122.123ZM122.719 29.0909C122.491 29.0909 122.293 29.013 122.128 28.8572C121.965 28.7015 121.884 28.5142 121.884 28.2955C121.884 28.0767 121.965 27.8894 122.128 27.7337C122.293 27.5779 122.491 27.5 122.719 27.5C122.948 27.5 123.144 27.5779 123.306 27.7337C123.472 27.8894 123.555 28.0767 123.555 28.2955C123.555 28.5142 123.472 28.7015 123.306 28.8572C123.144 29.013 122.948 29.0909 122.719 29.0909ZM128.547 38.1591C127.831 38.1591 127.215 37.9901 126.698 37.652C126.181 37.3139 125.783 36.8482 125.505 36.255C125.226 35.6617 125.087 34.9839 125.087 34.2216C125.087 33.446 125.23 32.7616 125.515 32.1683C125.803 31.5717 126.204 31.1061 126.718 30.7713C127.235 30.4332 127.838 30.2642 128.527 30.2642C129.064 30.2642 129.548 30.3636 129.979 30.5625C130.41 30.7614 130.763 31.0398 131.038 31.3977C131.313 31.7557 131.484 32.1733 131.55 32.6506H130.377C130.287 32.3026 130.088 31.9943 129.78 31.7259C129.475 31.4541 129.064 31.3182 128.547 31.3182C128.09 31.3182 127.689 31.4375 127.344 31.6761C127.003 31.9115 126.736 32.2446 126.544 32.6754C126.355 33.103 126.26 33.6051 126.26 34.1818C126.26 34.7718 126.353 35.2855 126.539 35.723C126.728 36.1605 126.993 36.5002 127.334 36.7422C127.679 36.9841 128.083 37.1051 128.547 37.1051C128.852 37.1051 129.129 37.0521 129.377 36.946C129.626 36.84 129.837 36.6875 130.009 36.4886C130.181 36.2898 130.304 36.0511 130.377 35.7727H131.55C131.484 36.2235 131.32 36.6295 131.058 36.9908C130.799 37.3487 130.456 37.6338 130.029 37.8459C129.605 38.0547 129.111 38.1591 128.547 38.1591ZM138.674 32.0739L137.62 32.3722C137.554 32.1965 137.456 32.0258 137.327 31.8601C137.201 31.6911 137.029 31.5518 136.81 31.4425C136.591 31.3331 136.311 31.2784 135.97 31.2784C135.502 31.2784 135.113 31.3861 134.801 31.6016C134.493 31.8137 134.339 32.0838 134.339 32.4119C134.339 32.7036 134.445 32.9339 134.657 33.103C134.869 33.272 135.201 33.4129 135.652 33.5256L136.785 33.804C137.468 33.9697 137.977 34.2232 138.311 34.5646C138.646 34.9027 138.814 35.3385 138.814 35.8722C138.814 36.3097 138.688 36.7008 138.436 37.0455C138.187 37.3902 137.839 37.6619 137.392 37.8608C136.944 38.0597 136.424 38.1591 135.831 38.1591C135.052 38.1591 134.407 37.9901 133.897 37.652C133.386 37.3139 133.063 36.8201 132.927 36.1705L134.041 35.892C134.147 36.303 134.347 36.6113 134.642 36.8168C134.941 37.0223 135.33 37.125 135.811 37.125C136.358 37.125 136.792 37.009 137.113 36.777C137.438 36.5417 137.6 36.2599 137.6 35.9318C137.6 35.6667 137.508 35.4446 137.322 35.2656C137.136 35.0833 136.851 34.9474 136.467 34.858L135.194 34.5597C134.495 34.3939 133.981 34.1371 133.653 33.7891C133.328 33.4377 133.166 32.9986 133.166 32.4716C133.166 32.0407 133.287 31.6596 133.529 31.3281C133.774 30.9967 134.107 30.7365 134.528 30.5476C134.952 30.3587 135.433 30.2642 135.97 30.2642C136.725 30.2642 137.319 30.4299 137.75 30.7614C138.184 31.0928 138.492 31.5303 138.674 32.0739Z" fill="#667085"/>
<path d="M141.249 174.542C89.7274 172.212 20 208.722 20 208.722V328.354H666.122V174.542C666.122 174.542 616.47 195.973 582.595 192.33C528.522 186.514 559.103 126.166 506.612 115.946C468.591 108.544 443.901 138.202 406.919 128.851C369.708 119.442 382.383 87.2702 347.103 75.1391C267.312 47.7032 332.893 209.866 242.559 208.722C197.951 208.157 185.757 176.554 141.249 174.542Z" fill="url(#paint0_linear_46_140)"/>
<path d="M20.8779 208.956C20.8779 208.956 90.5105 172.383 141.962 174.717C186.41 176.733 198.587 208.39 243.135 208.956C333.346 210.102 267.854 47.6617 347.536 75.1445C382.769 87.2963 370.11 119.523 407.271 128.949C444.203 138.316 468.86 108.607 506.829 116.022C559.249 126.258 528.709 186.71 582.709 192.535C616.538 196.185 666.122 174.717 666.122 174.717" stroke="black" stroke-width="3.49034" stroke-linecap="round"/>
<path d="M20 133.87C20 133.87 73.8188 159.225 110.505 157.252C156.336 154.786 158.824 112.663 204.78 111.536C259.371 110.197 258.627 179.199 311.446 170.164C341.111 165.089 340.296 141.795 369.628 135.964C420.473 125.857 434.325 185.06 487.068 180.633C530.638 176.976 530.148 133.588 573.802 130.381C611.164 127.636 623.903 143.991 667 151.668" stroke="url(#paint1_linear_46_140)" stroke-width="3.49034" stroke-linecap="round"/>
<path opacity="0.5" d="M50.2783 351.889V351.046H50.6996C51.0929 351.046 51.4019 350.93 51.6267 350.698C51.8514 350.46 51.9638 350.136 51.9638 349.729V344.04H52.8066V349.729C52.8066 350.172 52.7188 350.554 52.5432 350.877C52.3746 351.2 52.1323 351.45 51.8163 351.625C51.5003 351.801 51.128 351.889 50.6996 351.889H50.2783ZM56.1757 352.015C55.8175 352.015 55.4979 351.948 55.217 351.815C54.9361 351.675 54.7149 351.485 54.5533 351.246C54.3918 351.007 54.311 350.733 54.311 350.424C54.311 350.129 54.3742 349.863 54.5007 349.624C54.6271 349.378 54.8237 349.171 55.0906 349.002C55.3575 348.834 55.6981 348.714 56.1124 348.644L58.3247 348.275V348.992L56.3021 349.329C55.8947 349.399 55.5998 349.529 55.4172 349.719C55.2416 349.908 55.1538 350.133 55.1538 350.393C55.1538 350.646 55.2521 350.86 55.4488 351.035C55.6524 351.211 55.9123 351.299 56.2283 351.299C56.6146 351.299 56.9517 351.218 57.2396 351.056C57.5276 350.888 57.7523 350.663 57.9139 350.382C58.0754 350.101 58.1562 349.789 58.1562 349.445V348.012C58.1562 347.675 58.0333 347.401 57.7874 347.19C57.5416 346.98 57.2221 346.874 56.8288 346.874C56.4847 346.874 56.1827 346.962 55.9228 347.138C55.663 347.306 55.4698 347.527 55.3434 347.801L54.6271 347.412C54.7324 347.173 54.8975 346.955 55.1222 346.758C55.354 346.562 55.6173 346.407 55.9123 346.295C56.2073 346.175 56.5128 346.116 56.8288 346.116C57.2432 346.116 57.6084 346.197 57.9244 346.358C58.2475 346.52 58.4968 346.744 58.6724 347.032C58.855 347.313 58.9463 347.64 58.9463 348.012V351.889H58.1562V350.762L58.272 350.877C58.1737 351.088 58.0192 351.281 57.8085 351.457C57.6048 351.625 57.3626 351.762 57.0816 351.868C56.8077 351.966 56.5057 352.015 56.1757 352.015ZM60.5714 351.889V346.242H61.3615V347.338L61.1824 347.296C61.3228 346.93 61.5511 346.643 61.8671 346.432C62.1902 346.221 62.5624 346.116 62.9838 346.116C63.3841 346.116 63.7423 346.207 64.0583 346.39C64.3814 346.572 64.6342 346.825 64.8168 347.148C65.0064 347.464 65.1013 347.822 65.1013 348.223V351.889H64.3112V348.528C64.3112 348.184 64.248 347.893 64.1215 347.654C64.0021 347.415 63.8301 347.232 63.6053 347.106C63.3876 346.973 63.1348 346.906 62.8469 346.906C62.5589 346.906 62.3026 346.973 62.0778 347.106C61.8531 347.232 61.6775 347.419 61.5511 347.664C61.4247 347.903 61.3615 348.191 61.3615 348.528V351.889H60.5714Z" fill="#454459"/>
<path opacity="0.5" d="M107.344 351.889V344.04H112.19V344.831H108.186V347.559H111.874V348.349H108.186V351.889H107.344ZM115.714 352.015C115.187 352.015 114.709 351.889 114.281 351.636C113.86 351.376 113.526 351.021 113.28 350.572C113.034 350.122 112.911 349.613 112.911 349.044C112.911 348.476 113.031 347.973 113.27 347.538C113.508 347.095 113.831 346.748 114.239 346.495C114.653 346.242 115.117 346.116 115.629 346.116C116.037 346.116 116.398 346.193 116.714 346.348C117.038 346.495 117.311 346.699 117.536 346.959C117.761 347.211 117.933 347.499 118.052 347.822C118.172 348.138 118.231 348.465 118.231 348.802C118.231 348.872 118.228 348.953 118.221 349.044C118.214 349.129 118.203 349.216 118.189 349.308H113.417V348.57H117.736L117.357 348.886C117.42 348.5 117.375 348.156 117.22 347.854C117.073 347.545 116.858 347.303 116.578 347.127C116.297 346.944 115.981 346.853 115.629 346.853C115.278 346.853 114.952 346.944 114.65 347.127C114.355 347.31 114.123 347.566 113.954 347.896C113.786 348.219 113.719 348.605 113.754 349.055C113.719 349.504 113.789 349.898 113.965 350.235C114.148 350.565 114.393 350.821 114.702 351.004C115.018 351.186 115.355 351.278 115.714 351.278C116.128 351.278 116.476 351.179 116.757 350.983C117.038 350.786 117.266 350.54 117.441 350.245L118.116 350.604C118.003 350.856 117.831 351.092 117.599 351.309C117.368 351.52 117.09 351.692 116.767 351.826C116.451 351.952 116.1 352.015 115.714 352.015ZM122.479 352.015C121.995 352.015 121.556 351.906 121.163 351.689C120.776 351.464 120.485 351.148 120.288 350.74L120.415 350.625V351.889H119.624V343.914H120.415V347.506L120.288 347.285C120.513 346.927 120.811 346.643 121.184 346.432C121.563 346.221 121.995 346.116 122.479 346.116C123.013 346.116 123.487 346.246 123.902 346.506C124.323 346.758 124.653 347.106 124.892 347.548C125.138 347.991 125.26 348.497 125.26 349.065C125.26 349.627 125.138 350.133 124.892 350.582C124.653 351.025 124.323 351.376 123.902 351.636C123.487 351.889 123.013 352.015 122.479 352.015ZM122.437 351.225C122.816 351.225 123.154 351.13 123.449 350.941C123.751 350.751 123.986 350.495 124.154 350.172C124.33 349.842 124.418 349.473 124.418 349.065C124.418 348.651 124.33 348.282 124.154 347.959C123.986 347.636 123.751 347.38 123.449 347.19C123.154 347.001 122.816 346.906 122.437 346.906C122.058 346.906 121.714 347.001 121.405 347.19C121.103 347.38 120.861 347.64 120.678 347.97C120.502 348.293 120.415 348.658 120.415 349.065C120.415 349.473 120.502 349.842 120.678 350.172C120.861 350.495 121.103 350.751 121.405 350.941C121.714 351.13 122.058 351.225 122.437 351.225Z" fill="#454459"/>
<path opacity="0.5" d="M166.676 351.889V344.04H167.414L170.363 348.318H169.953L172.892 344.04H173.629V351.889H172.786V345.178L173.06 345.284L170.174 349.466H170.132L167.256 345.284L167.519 345.178V351.889H166.676ZM176.999 352.015C176.641 352.015 176.322 351.948 176.041 351.815C175.76 351.675 175.539 351.485 175.377 351.246C175.216 351.007 175.135 350.733 175.135 350.424C175.135 350.129 175.198 349.863 175.324 349.624C175.451 349.378 175.648 349.171 175.914 349.002C176.181 348.834 176.522 348.714 176.936 348.644L179.149 348.275V348.992L177.126 349.329C176.719 349.399 176.424 349.529 176.241 349.719C176.065 349.908 175.978 350.133 175.978 350.393C175.978 350.646 176.076 350.86 176.273 351.035C176.476 351.211 176.736 351.299 177.052 351.299C177.438 351.299 177.776 351.218 178.063 351.057C178.351 350.888 178.576 350.663 178.738 350.382C178.899 350.101 178.98 349.789 178.98 349.445V348.012C178.98 347.675 178.857 347.401 178.611 347.19C178.365 346.98 178.046 346.874 177.653 346.874C177.309 346.874 177.007 346.962 176.747 347.138C176.487 347.306 176.294 347.527 176.167 347.801L175.451 347.412C175.556 347.173 175.721 346.955 175.946 346.758C176.178 346.562 176.441 346.407 176.736 346.295C177.031 346.175 177.337 346.116 177.653 346.116C178.067 346.116 178.432 346.197 178.748 346.358C179.071 346.52 179.321 346.744 179.496 347.032C179.679 347.313 179.77 347.64 179.77 348.012V351.889H178.98V350.762L179.096 350.877C178.998 351.088 178.843 351.281 178.632 351.457C178.429 351.625 178.186 351.762 177.905 351.868C177.632 351.966 177.33 352.015 176.999 352.015ZM181.395 351.889V346.242H182.185V347.169L182.08 347.032C182.213 346.765 182.414 346.555 182.68 346.4C182.954 346.246 183.284 346.168 183.671 346.168H184.029V346.959H183.534C183.126 346.959 182.8 347.085 182.554 347.338C182.308 347.591 182.185 347.949 182.185 348.412V351.889H181.395Z" fill="#454459"/>
<path d="M224.712 351.889L227.578 344.04H228.484L231.349 351.889H230.464L229.79 349.971H226.282L225.597 351.889H224.712ZM226.556 349.181H229.495L227.904 344.673H228.157L226.556 349.181ZM232.28 353.996V346.242H233.07V347.506L232.944 347.285C233.168 346.927 233.467 346.643 233.839 346.432C234.218 346.221 234.65 346.116 235.135 346.116C235.669 346.116 236.143 346.246 236.557 346.506C236.978 346.758 237.308 347.106 237.547 347.548C237.793 347.991 237.916 348.497 237.916 349.065C237.916 349.627 237.793 350.133 237.547 350.582C237.308 351.025 236.978 351.376 236.557 351.636C236.143 351.889 235.669 352.015 235.135 352.015C234.65 352.015 234.211 351.906 233.818 351.689C233.432 351.464 233.14 351.148 232.944 350.74L233.07 350.625V353.996H232.28ZM235.093 351.225C235.472 351.225 235.809 351.13 236.104 350.941C236.406 350.751 236.641 350.495 236.81 350.172C236.985 349.842 237.073 349.473 237.073 349.065C237.073 348.651 236.985 348.282 236.81 347.959C236.641 347.636 236.406 347.38 236.104 347.19C235.809 347.001 235.472 346.906 235.093 346.906C234.713 346.906 234.369 347.001 234.06 347.19C233.758 347.38 233.516 347.64 233.333 347.97C233.158 348.293 233.07 348.658 233.07 349.065C233.07 349.473 233.158 349.842 233.333 350.172C233.516 350.495 233.758 350.751 234.06 350.941C234.369 351.13 234.713 351.225 235.093 351.225ZM239.306 351.889V346.242H240.096V347.169L239.991 347.032C240.125 346.765 240.325 346.555 240.592 346.4C240.866 346.246 241.196 346.168 241.582 346.168H241.94V346.959H241.445C241.038 346.959 240.711 347.085 240.465 347.338C240.219 347.591 240.096 347.949 240.096 348.412V351.889H239.306Z" fill="#98A2B3"/>
<path opacity="0.5" d="M283.268 351.889V344.04H284.006L286.956 348.318H286.545L289.484 344.04H290.221V351.889H289.378V345.178L289.652 345.284L286.766 349.466H286.724L283.848 345.284L284.111 345.178V351.889H283.268ZM293.592 352.015C293.233 352.015 292.914 351.948 292.633 351.815C292.352 351.675 292.131 351.485 291.969 351.246C291.808 351.007 291.727 350.733 291.727 350.424C291.727 350.129 291.79 349.863 291.917 349.624C292.043 349.378 292.24 349.171 292.507 349.002C292.773 348.834 293.114 348.714 293.528 348.644L295.741 348.275V348.992L293.718 349.329C293.311 349.399 293.016 349.529 292.833 349.719C292.658 349.908 292.57 350.133 292.57 350.393C292.57 350.646 292.668 350.86 292.865 351.035C293.068 351.211 293.328 351.299 293.644 351.299C294.031 351.299 294.368 351.218 294.656 351.057C294.944 350.888 295.168 350.663 295.33 350.382C295.491 350.101 295.572 349.789 295.572 349.445V348.012C295.572 347.675 295.449 347.401 295.203 347.19C294.958 346.98 294.638 346.874 294.245 346.874C293.901 346.874 293.599 346.962 293.339 347.138C293.079 347.306 292.886 347.527 292.759 347.801L292.043 347.412C292.148 347.173 292.313 346.955 292.538 346.758C292.77 346.562 293.033 346.407 293.328 346.295C293.623 346.175 293.929 346.116 294.245 346.116C294.659 346.116 295.024 346.197 295.34 346.358C295.663 346.52 295.913 346.744 296.088 347.032C296.271 347.313 296.362 347.64 296.362 348.012V351.889H295.572V350.762L295.688 350.877C295.59 351.088 295.435 351.281 295.225 351.457C295.021 351.625 294.779 351.762 294.498 351.868C294.224 351.966 293.922 352.015 293.592 352.015ZM298.103 354.206C297.991 354.206 297.875 354.196 297.756 354.175C297.643 354.161 297.531 354.133 297.419 354.09V353.353C297.489 353.36 297.577 353.371 297.682 353.385C297.794 353.406 297.907 353.416 298.019 353.416C298.363 353.416 298.626 353.343 298.809 353.195C298.992 353.055 299.171 352.781 299.346 352.373L299.705 351.531L299.683 352.226L297.292 346.242H298.145L300.105 351.183H299.884L301.833 346.242H302.707L300.126 352.605C300.014 352.879 299.87 353.139 299.694 353.385C299.525 353.63 299.311 353.827 299.051 353.975C298.792 354.129 298.475 354.206 298.103 354.206Z" fill="#454459"/>
<path opacity="0.5" d="M344.377 351.889V350.572H344.83C345.167 350.572 345.434 350.477 345.631 350.287C345.835 350.091 345.936 349.831 345.936 349.508V344.04H347.38V349.455C347.38 349.94 347.274 350.365 347.064 350.73C346.86 351.095 346.565 351.38 346.179 351.583C345.799 351.787 345.35 351.889 344.83 351.889H344.377ZM350.788 352.015C350.346 352.015 349.96 351.917 349.63 351.72C349.306 351.524 349.057 351.25 348.882 350.898C348.713 350.547 348.629 350.136 348.629 349.666V346.158H350.009V349.55C350.009 349.789 350.054 350 350.146 350.182C350.244 350.358 350.381 350.498 350.557 350.604C350.739 350.702 350.943 350.751 351.168 350.751C351.392 350.751 351.592 350.702 351.768 350.604C351.944 350.498 352.081 350.354 352.179 350.172C352.277 349.989 352.326 349.771 352.326 349.518V346.158H353.706V351.889H352.4V350.762L352.516 350.962C352.383 351.313 352.161 351.576 351.852 351.752C351.55 351.927 351.196 352.015 350.788 352.015ZM354.989 351.889V346.158H356.285V347.285L356.18 347.085C356.313 346.741 356.531 346.481 356.833 346.305C357.142 346.123 357.5 346.031 357.907 346.031C358.329 346.031 358.701 346.123 359.024 346.305C359.354 346.488 359.61 346.744 359.793 347.074C359.976 347.397 360.067 347.773 360.067 348.202V351.889H358.687V348.528C358.687 348.275 358.638 348.058 358.539 347.875C358.441 347.692 358.304 347.552 358.129 347.454C357.96 347.348 357.76 347.296 357.528 347.296C357.303 347.296 357.103 347.348 356.928 347.454C356.752 347.552 356.615 347.692 356.517 347.875C356.418 348.058 356.369 348.275 356.369 348.528V351.889H354.989Z" fill="#1AA84C"/>
<path opacity="0.5" d="M401.841 351.889V351.046H402.263C402.656 351.046 402.965 350.93 403.19 350.698C403.414 350.46 403.527 350.136 403.527 349.729V344.04H404.37V349.729C404.37 350.172 404.282 350.554 404.106 350.877C403.938 351.2 403.695 351.45 403.379 351.625C403.063 351.801 402.691 351.889 402.263 351.889H401.841ZM408.107 352.015C407.714 352.015 407.356 351.924 407.033 351.741C406.71 351.552 406.453 351.292 406.264 350.962C406.081 350.625 405.99 350.238 405.99 349.803V346.242H406.78V349.708C406.78 350.01 406.84 350.277 406.959 350.509C407.086 350.733 407.258 350.909 407.475 351.035C407.7 351.162 407.956 351.225 408.244 351.225C408.532 351.225 408.789 351.162 409.013 351.035C409.238 350.902 409.414 350.716 409.54 350.477C409.666 350.231 409.73 349.94 409.73 349.603V346.242H410.52V351.889H409.73V350.793L409.909 350.835C409.775 351.2 409.547 351.488 409.224 351.699C408.901 351.91 408.529 352.015 408.107 352.015ZM412.145 351.889V343.914H412.935V351.889H412.145Z" fill="#454459"/>
<path opacity="0.5" d="M455.474 352.015C454.934 352.015 454.459 351.878 454.052 351.604C453.645 351.33 453.35 350.958 453.167 350.488L453.831 350.172C453.992 350.516 454.217 350.79 454.505 350.993C454.8 351.197 455.123 351.299 455.474 351.299C455.811 351.299 456.096 351.218 456.328 351.056C456.559 350.888 456.675 350.67 456.675 350.403C456.675 350.207 456.619 350.052 456.507 349.94C456.394 349.82 456.264 349.729 456.117 349.666C455.969 349.603 455.84 349.557 455.727 349.529L454.916 349.297C454.396 349.15 454.021 348.943 453.789 348.676C453.557 348.409 453.441 348.1 453.441 347.749C453.441 347.419 453.525 347.131 453.694 346.885C453.863 346.639 454.091 346.449 454.379 346.316C454.667 346.182 454.986 346.116 455.337 346.116C455.815 346.116 456.247 346.242 456.633 346.495C457.026 346.741 457.304 347.085 457.465 347.527L456.791 347.843C456.651 347.527 456.447 347.282 456.18 347.106C455.92 346.923 455.629 346.832 455.306 346.832C454.99 346.832 454.737 346.913 454.547 347.074C454.358 347.236 454.263 347.44 454.263 347.685C454.263 347.875 454.312 348.026 454.41 348.138C454.509 348.251 454.621 348.335 454.747 348.391C454.881 348.447 454.997 348.49 455.095 348.518L456.033 348.792C456.489 348.925 456.844 349.132 457.097 349.413C457.357 349.694 457.486 350.024 457.486 350.403C457.486 350.712 457.399 350.99 457.223 351.236C457.055 351.481 456.819 351.675 456.517 351.815C456.215 351.948 455.868 352.015 455.474 352.015ZM461.445 352.015C460.918 352.015 460.441 351.889 460.013 351.636C459.591 351.376 459.258 351.021 459.012 350.572C458.766 350.122 458.643 349.613 458.643 349.044C458.643 348.476 458.762 347.973 459.001 347.538C459.24 347.095 459.563 346.748 459.97 346.495C460.385 346.242 460.848 346.116 461.361 346.116C461.768 346.116 462.13 346.193 462.446 346.348C462.769 346.495 463.043 346.699 463.268 346.959C463.492 347.211 463.665 347.499 463.784 347.822C463.903 348.138 463.963 348.465 463.963 348.802C463.963 348.872 463.959 348.953 463.952 349.044C463.945 349.129 463.935 349.216 463.921 349.308H459.149V348.57H463.468L463.089 348.886C463.152 348.5 463.106 348.156 462.952 347.854C462.804 347.545 462.59 347.303 462.309 347.127C462.028 346.944 461.712 346.853 461.361 346.853C461.01 346.853 460.683 346.944 460.381 347.127C460.086 347.31 459.854 347.566 459.686 347.896C459.517 348.219 459.451 348.605 459.486 349.055C459.451 349.504 459.521 349.898 459.696 350.235C459.879 350.565 460.125 350.821 460.434 351.004C460.75 351.186 461.087 351.278 461.445 351.278C461.86 351.278 462.207 351.179 462.488 350.983C462.769 350.786 462.997 350.54 463.173 350.245L463.847 350.604C463.735 350.856 463.563 351.092 463.331 351.309C463.099 351.52 462.822 351.692 462.499 351.826C462.183 351.952 461.831 352.015 461.445 352.015ZM465.356 353.996V346.242H466.146V347.506L466.02 347.285C466.244 346.927 466.543 346.643 466.915 346.432C467.294 346.221 467.726 346.116 468.211 346.116C468.745 346.116 469.219 346.246 469.633 346.506C470.054 346.758 470.385 347.106 470.623 347.548C470.869 347.991 470.992 348.497 470.992 349.065C470.992 349.627 470.869 350.133 470.623 350.582C470.385 351.025 470.054 351.376 469.633 351.636C469.219 351.889 468.745 352.015 468.211 352.015C467.726 352.015 467.287 351.906 466.894 351.689C466.508 351.464 466.216 351.148 466.02 350.74L466.146 350.625V353.996H465.356ZM468.169 351.225C468.548 351.225 468.885 351.13 469.18 350.941C469.482 350.751 469.717 350.495 469.886 350.172C470.061 349.842 470.149 349.473 470.149 349.065C470.149 348.651 470.061 348.282 469.886 347.959C469.717 347.636 469.482 347.38 469.18 347.19C468.885 347.001 468.548 346.906 468.169 346.906C467.79 346.906 467.445 347.001 467.136 347.19C466.834 347.38 466.592 347.64 466.409 347.97C466.234 348.293 466.146 348.658 466.146 349.065C466.146 349.473 466.234 349.842 466.409 350.172C466.592 350.495 466.834 350.751 467.136 350.941C467.445 351.13 467.79 351.225 468.169 351.225ZM474.439 351.952C473.934 351.952 473.544 351.804 473.27 351.509C472.996 351.215 472.859 350.793 472.859 350.245V347.032H471.816V346.242H472.079C472.318 346.242 472.508 346.165 472.648 346.01C472.789 345.849 472.859 345.649 472.859 345.41V344.936H473.649V346.242H474.892V347.032H473.649V350.245C473.649 350.435 473.677 350.604 473.733 350.751C473.79 350.891 473.884 351.004 474.018 351.088C474.158 351.172 474.344 351.215 474.576 351.215C474.632 351.215 474.699 351.211 474.776 351.204C474.854 351.197 474.92 351.19 474.976 351.183V351.889C474.892 351.91 474.797 351.924 474.692 351.931C474.587 351.945 474.502 351.952 474.439 351.952Z" fill="#454459"/>
<path opacity="0.5" d="M518.058 352.015C517.525 352.015 517.04 351.889 516.605 351.636C516.169 351.376 515.822 351.025 515.562 350.582C515.309 350.133 515.183 349.624 515.183 349.055C515.183 348.493 515.309 347.991 515.562 347.548C515.815 347.106 516.155 346.758 516.584 346.506C517.019 346.246 517.511 346.116 518.058 346.116C518.606 346.116 519.094 346.242 519.523 346.495C519.958 346.748 520.299 347.095 520.545 347.538C520.797 347.98 520.924 348.486 520.924 349.055C520.924 349.631 520.794 350.144 520.534 350.593C520.274 351.035 519.927 351.383 519.491 351.636C519.063 351.889 518.585 352.015 518.058 352.015ZM518.058 351.225C518.438 351.225 518.778 351.13 519.08 350.941C519.389 350.751 519.632 350.491 519.807 350.161C519.99 349.831 520.081 349.462 520.081 349.055C520.081 348.648 519.99 348.282 519.807 347.959C519.632 347.636 519.389 347.38 519.08 347.19C518.778 347.001 518.438 346.906 518.058 346.906C517.679 346.906 517.335 347.001 517.026 347.19C516.724 347.38 516.482 347.636 516.299 347.959C516.117 348.282 516.025 348.648 516.025 349.055C516.025 349.462 516.117 349.831 516.299 350.161C516.482 350.491 516.724 350.751 517.026 350.941C517.335 351.13 517.679 351.225 518.058 351.225ZM524.898 352.015C524.343 352.015 523.855 351.885 523.434 351.625C523.013 351.366 522.683 351.014 522.444 350.572C522.205 350.122 522.086 349.617 522.086 349.055C522.086 348.493 522.205 347.991 522.444 347.548C522.683 347.106 523.013 346.758 523.434 346.506C523.855 346.246 524.343 346.116 524.898 346.116C525.249 346.116 525.58 346.179 525.889 346.305C526.198 346.432 526.471 346.604 526.71 346.822C526.949 347.032 527.128 347.278 527.248 347.559L526.531 347.928C526.391 347.626 526.176 347.38 525.889 347.19C525.601 347.001 525.271 346.906 524.898 346.906C524.526 346.906 524.189 347.001 523.887 347.19C523.592 347.373 523.357 347.629 523.181 347.959C523.013 348.282 522.928 348.651 522.928 349.065C522.928 349.473 523.013 349.842 523.181 350.172C523.357 350.495 523.592 350.751 523.887 350.941C524.189 351.13 524.526 351.225 524.898 351.225C525.271 351.225 525.597 351.13 525.878 350.941C526.166 350.751 526.384 350.498 526.531 350.182L527.248 350.572C527.128 350.846 526.949 351.092 526.71 351.309C526.471 351.527 526.198 351.699 525.889 351.826C525.58 351.952 525.249 352.015 524.898 352.015ZM530.794 351.952C530.288 351.952 529.898 351.804 529.624 351.509C529.35 351.215 529.213 350.793 529.213 350.245V347.032H528.17V346.242H528.434C528.673 346.242 528.862 346.165 529.003 346.01C529.143 345.849 529.213 345.649 529.213 345.41V344.936H530.003V346.242H531.247V347.032H530.003V350.245C530.003 350.435 530.032 350.604 530.088 350.751C530.144 350.891 530.239 351.004 530.372 351.088C530.513 351.172 530.699 351.215 530.931 351.215C530.987 351.215 531.053 351.211 531.131 351.204C531.208 351.197 531.275 351.19 531.331 351.183V351.889C531.247 351.91 531.152 351.924 531.046 351.931C530.941 351.945 530.857 351.952 530.794 351.952Z" fill="#454459"/>
<path opacity="0.5" d="M572.052 351.889V346.242H572.843V347.338L572.663 347.296C572.804 346.93 573.032 346.643 573.348 346.432C573.671 346.221 574.044 346.116 574.465 346.116C574.865 346.116 575.223 346.207 575.539 346.39C575.862 346.572 576.115 346.825 576.298 347.148C576.488 347.464 576.582 347.822 576.582 348.223V351.889H575.792V348.528C575.792 348.184 575.729 347.893 575.603 347.654C575.483 347.415 575.311 347.232 575.086 347.106C574.869 346.973 574.616 346.906 574.328 346.906C574.04 346.906 573.784 346.973 573.559 347.106C573.334 347.232 573.159 347.419 573.032 347.664C572.906 347.903 572.843 348.191 572.843 348.528V351.889H572.052ZM580.736 352.015C580.202 352.015 579.717 351.889 579.282 351.636C578.846 351.376 578.499 351.025 578.239 350.582C577.986 350.133 577.86 349.624 577.86 349.055C577.86 348.493 577.986 347.991 578.239 347.548C578.492 347.106 578.832 346.758 579.261 346.506C579.696 346.246 580.188 346.116 580.736 346.116C581.283 346.116 581.771 346.242 582.2 346.495C582.635 346.748 582.976 347.095 583.222 347.538C583.475 347.98 583.601 348.486 583.601 349.055C583.601 349.631 583.471 350.144 583.211 350.593C582.951 351.035 582.604 351.383 582.168 351.636C581.74 351.889 581.262 352.015 580.736 352.015ZM580.736 351.225C581.115 351.225 581.455 351.13 581.757 350.941C582.066 350.751 582.309 350.491 582.484 350.161C582.667 349.831 582.758 349.462 582.758 349.055C582.758 348.648 582.667 348.282 582.484 347.959C582.309 347.636 582.066 347.38 581.757 347.19C581.455 347.001 581.115 346.906 580.736 346.906C580.356 346.906 580.012 347.001 579.703 347.19C579.401 347.38 579.159 347.636 578.976 347.959C578.794 348.282 578.702 348.648 578.702 349.055C578.702 349.462 578.794 349.831 578.976 350.161C579.159 350.491 579.401 350.751 579.703 350.941C580.012 351.13 580.356 351.225 580.736 351.225ZM586.398 351.889L584.196 346.242H585.081L586.935 351.193H586.651L588.515 346.242H589.411L587.188 351.889H586.398Z" fill="#454459"/>
<path opacity="0.5" d="M631.957 352.015C631.43 352.015 630.956 351.889 630.535 351.636C630.114 351.376 629.78 351.025 629.534 350.582C629.295 350.133 629.176 349.627 629.176 349.065C629.176 348.497 629.295 347.991 629.534 347.548C629.78 347.106 630.11 346.758 630.524 346.506C630.946 346.246 631.423 346.116 631.957 346.116C632.442 346.116 632.874 346.221 633.253 346.432C633.632 346.643 633.931 346.927 634.148 347.285L634.022 347.506V343.914H634.812V351.889H634.022V350.625L634.148 350.74C633.952 351.148 633.657 351.464 633.263 351.689C632.877 351.906 632.442 352.015 631.957 352.015ZM631.999 351.225C632.379 351.225 632.719 351.13 633.021 350.941C633.33 350.751 633.572 350.495 633.748 350.172C633.931 349.842 634.022 349.473 634.022 349.065C634.022 348.658 633.931 348.293 633.748 347.97C633.572 347.64 633.33 347.38 633.021 347.19C632.719 347.001 632.379 346.906 631.999 346.906C631.627 346.906 631.29 347.001 630.988 347.19C630.686 347.38 630.447 347.636 630.272 347.959C630.103 348.282 630.019 348.651 630.019 349.065C630.019 349.473 630.103 349.842 630.272 350.172C630.447 350.495 630.682 350.751 630.977 350.941C631.279 351.13 631.62 351.225 631.999 351.225ZM639.005 352.015C638.478 352.015 638 351.889 637.572 351.636C637.151 351.376 636.817 351.021 636.571 350.572C636.325 350.122 636.203 349.613 636.203 349.044C636.203 348.476 636.322 347.973 636.561 347.538C636.799 347.095 637.123 346.748 637.53 346.495C637.944 346.242 638.408 346.116 638.92 346.116C639.328 346.116 639.689 346.193 640.006 346.348C640.329 346.495 640.602 346.699 640.827 346.959C641.052 347.211 641.224 347.499 641.343 347.822C641.463 348.138 641.522 348.465 641.522 348.802C641.522 348.872 641.519 348.953 641.512 349.044C641.505 349.129 641.494 349.216 641.48 349.308H636.708V348.57H641.027L640.648 348.886C640.711 348.5 640.666 348.156 640.511 347.854C640.364 347.545 640.149 347.303 639.869 347.127C639.588 346.944 639.272 346.853 638.92 346.853C638.569 346.853 638.243 346.944 637.941 347.127C637.646 347.31 637.414 347.566 637.245 347.896C637.077 348.219 637.01 348.605 637.045 349.055C637.01 349.504 637.08 349.898 637.256 350.235C637.439 350.565 637.684 350.821 637.993 351.004C638.309 351.186 638.647 351.278 639.005 351.278C639.419 351.278 639.767 351.179 640.048 350.983C640.329 350.786 640.557 350.54 640.732 350.245L641.407 350.604C641.294 350.856 641.122 351.092 640.89 351.309C640.659 351.52 640.381 351.692 640.058 351.826C639.742 351.952 639.391 352.015 639.005 352.015ZM645.497 352.015C644.942 352.015 644.454 351.885 644.032 351.625C643.611 351.366 643.281 351.014 643.042 350.572C642.803 350.122 642.684 349.617 642.684 349.055C642.684 348.493 642.803 347.991 643.042 347.548C643.281 347.106 643.611 346.758 644.032 346.506C644.454 346.246 644.942 346.116 645.497 346.116C645.848 346.116 646.178 346.179 646.487 346.305C646.796 346.432 647.07 346.604 647.308 346.822C647.547 347.032 647.726 347.278 647.846 347.559L647.129 347.928C646.989 347.626 646.775 347.38 646.487 347.19C646.199 347.001 645.869 346.906 645.497 346.906C645.124 346.906 644.787 347.001 644.485 347.19C644.19 347.373 643.955 347.629 643.779 347.959C643.611 348.282 643.527 348.651 643.527 349.065C643.527 349.473 643.611 349.842 643.779 350.172C643.955 350.495 644.19 350.751 644.485 350.941C644.787 351.13 645.124 351.225 645.497 351.225C645.869 351.225 646.195 351.13 646.476 350.941C646.764 350.751 646.982 350.498 647.129 350.182L647.846 350.572C647.726 350.846 647.547 351.092 647.308 351.309C647.07 351.527 646.796 351.699 646.487 351.826C646.178 351.952 645.848 352.015 645.497 352.015Z" fill="#454459"/>
<path opacity="0.3" d="M55.9505 326.658V47.4315" stroke="#171724" stroke-width="0.698067" stroke-linecap="round" stroke-dasharray="0 0.7 9.77 0 0.7 9.77"/>
<path opacity="0.3" d="M113.891 326.658V47.4315" stroke="#171724" stroke-width="0.698067" stroke-linecap="round" stroke-dasharray="0 0.7 9.77 0 0.7 9.77"/>
<path opacity="0.3" d="M171.831 326.658V47.4315" stroke="#171724" stroke-width="0.698067" stroke-linecap="round" stroke-dasharray="0 0.7 9.77 0 0.7 9.77"/>
<path opacity="0.3" d="M229.771 326.658V47.4315" stroke="#171724" stroke-width="0.698067" stroke-linecap="round" stroke-dasharray="0 0.7 9.77 0 0.7 9.77"/>
<path opacity="0.3" d="M287.712 326.658V47.4315" stroke="#171724" stroke-width="0.698067" stroke-linecap="round" stroke-dasharray="0 0.7 9.77 0 0.7 9.77"/>
<path opacity="0.3" d="M345.652 326.658V47.4315" stroke="#171724" stroke-width="0.698067" stroke-linecap="round" stroke-dasharray="0 0.7 9.77 0 0.7 9.77"/>
<path opacity="0.3" d="M403.592 326.658V47.4315" stroke="#171724" stroke-width="0.698067" stroke-linecap="round" stroke-dasharray="0 0.7 9.77 0 0.7 9.77"/>
<path opacity="0.3" d="M461.533 326.658V47.4315" stroke="#171724" stroke-width="0.698067" stroke-linecap="round" stroke-dasharray="0 0.7 9.77 0 0.7 9.77"/>
<path opacity="0.3" d="M519.473 326.658V47.4315" stroke="#171724" stroke-width="0.698067" stroke-linecap="round" stroke-dasharray="0 0.7 9.77 0 0.7 9.77"/>
<path opacity="0.3" d="M577.413 326.658V47.4315" stroke="#171724" stroke-width="0.698067" stroke-linecap="round" stroke-dasharray="0 0.7 9.77 0 0.7 9.77"/>
<path opacity="0.3" d="M635.353 326.658V47.4315" stroke="#171724" stroke-width="0.698067" stroke-linecap="round" stroke-dasharray="0 0.7 9.77 0 0.7 9.77"/>
<g filter="url(#filter0_d_46_140)">
<circle cx="343.725" cy="72.5619" r="13.9613" fill="#101828"/>
<circle cx="343.725" cy="72.5619" r="11.1691" stroke="white" stroke-width="5.58454"/>
</g>
<rect x="0.5" y="0.5" width="700" height="362" rx="9.5" stroke="#EBECEF"/>
<defs>
<filter id="filter0_d_46_140" x="312.312" y="44.6392" width="62.826" height="62.826" filterUnits="userSpaceOnUse" color-interpolation-filters="sRGB">
<feFlood flood-opacity="0" result="BackgroundImageFix"/>
<feColorMatrix in="SourceAlpha" type="matrix" values="0 0 0 0 0 0 0 0 0 0 0 0 0 0 0 0 0 0 127 0" result="hardAlpha"/>
<feOffset dy="3.49034"/>
<feGaussianBlur stdDeviation="8.72584"/>
<feColorMatrix type="matrix" values="0 0 0 0 0 0 0 0 0 0 0 0 0 0 0 0 0 0 0.1 0"/>
<feBlend mode="normal" in2="BackgroundImageFix" result="effect1_dropShadow_46_140"/>
<feBlend mode="normal" in="SourceGraphic" in2="effect1_dropShadow_46_140" result="shape"/>
</filter>
<linearGradient id="paint0_linear_46_140" x1="343.061" y1="72.0122" x2="343.061" y2="328.354" gradientUnits="userSpaceOnUse">
<stop stop-color="#EDFFF3" stop-opacity="0.25"/>
<stop offset="1" stop-color="#87FFB1" stop-opacity="0"/>
</linearGradient>
<linearGradient id="paint1_linear_46_140" x1="343.5" y1="111.517" x2="343.5" y2="180.87" gradientUnits="userSpaceOnUse">
<stop stop-color="#FCB45D"/>
<stop offset="1" stop-color="#F39C12"/>
</linearGradient>
</defs>
</svg>
