<svg width="388" height="207" viewBox="0 0 388 207" fill="none" xmlns="http://www.w3.org/2000/svg">
<g clip-path="url(#clip0_23_106)">
<rect width="388" height="207" rx="10" fill="black"/>
<g opacity="0.3">
<g clip-path="url(#clip1_23_106)">
<rect x="271.392" y="79.3865" width="279" height="163" rx="10.5" transform="rotate(-6.0064 271.392 79.3865)" stroke="#C6BFDF"/>
<rect x="242.933" y="131.519" width="279" height="163" rx="10.5" transform="rotate(-21.636 242.933 131.519)" stroke="#CFC7E9"/>
<rect x="242.68" y="201.352" width="279" height="163" rx="10.5" transform="rotate(-29.1838 242.68 201.352)" stroke="#CFC7E9"/>
</g>
</g>
<path d="M33.233 36V25.8182H36.6733C37.4721 25.8182 38.125 25.9624 38.6321 26.2507C39.1425 26.5357 39.5204 26.9219 39.7656 27.4091C40.0109 27.8963 40.1335 28.4399 40.1335 29.0398C40.1335 29.6397 40.0109 30.1849 39.7656 30.6754C39.5237 31.166 39.1491 31.5571 38.642 31.8487C38.1349 32.1371 37.4853 32.2812 36.6932 32.2812H34.2273V31.1875H36.6534C37.2003 31.1875 37.6394 31.093 37.9709 30.9041C38.3023 30.7152 38.5426 30.46 38.6918 30.1385C38.8442 29.8137 38.9205 29.4474 38.9205 29.0398C38.9205 28.6321 38.8442 28.2675 38.6918 27.946C38.5426 27.6245 38.3007 27.3726 37.9659 27.1903C37.6312 27.0047 37.187 26.9119 36.6335 26.9119H34.4659V36H33.233ZM44.9808 36.1591C44.2914 36.1591 43.6866 35.995 43.1662 35.6669C42.6491 35.3388 42.2448 34.8797 41.9531 34.2898C41.6648 33.6998 41.5206 33.0104 41.5206 32.2216C41.5206 31.4261 41.6648 30.7318 41.9531 30.1385C42.2448 29.5452 42.6491 29.0845 43.1662 28.7564C43.6866 28.4283 44.2914 28.2642 44.9808 28.2642C45.6702 28.2642 46.2734 28.4283 46.7905 28.7564C47.3108 29.0845 47.7152 29.5452 48.0036 30.1385C48.2952 30.7318 48.4411 31.4261 48.4411 32.2216C48.4411 33.0104 48.2952 33.6998 48.0036 34.2898C47.7152 34.8797 47.3108 35.3388 46.7905 35.6669C46.2734 35.995 45.6702 36.1591 44.9808 36.1591ZM44.9808 35.1051C45.5045 35.1051 45.9354 34.9709 46.2734 34.7024C46.6115 34.4339 46.8617 34.081 47.0241 33.6435C47.1866 33.206 47.2678 32.732 47.2678 32.2216C47.2678 31.7112 47.1866 31.2356 47.0241 30.7947C46.8617 30.3539 46.6115 29.9976 46.2734 29.7259C45.9354 29.4541 45.5045 29.3182 44.9808 29.3182C44.4571 29.3182 44.0263 29.4541 43.6882 29.7259C43.3501 29.9976 43.0999 30.3539 42.9375 30.7947C42.7751 31.2356 42.6939 31.7112 42.6939 32.2216C42.6939 32.732 42.7751 33.206 42.9375 33.6435C43.0999 34.081 43.3501 34.4339 43.6882 34.7024C44.0263 34.9709 44.4571 35.1051 44.9808 35.1051ZM50.2321 36V28.3636H51.3656V29.517H51.4451C51.5843 29.1392 51.8362 28.8326 52.2008 28.5973C52.5654 28.362 52.9764 28.2443 53.4338 28.2443C53.5199 28.2443 53.6277 28.246 53.7569 28.2493C53.8862 28.2526 53.984 28.2576 54.0502 28.2642V29.4574C54.0105 29.4474 53.9193 29.4325 53.7768 29.4126C53.6376 29.3894 53.4901 29.3778 53.3343 29.3778C52.9631 29.3778 52.6317 29.4557 52.34 29.6115C52.0517 29.764 51.823 29.9761 51.6539 30.2479C51.4882 30.5163 51.4054 30.8229 51.4054 31.1676V36H50.2321ZM59.2406 28.3636V29.358H55.2832V28.3636H59.2406ZM56.4366 26.5341H57.6099V33.8125C57.6099 34.1439 57.658 34.3925 57.7541 34.5582C57.8535 34.7206 57.9795 34.83 58.1319 34.8864C58.2877 34.9394 58.4518 34.9659 58.6241 34.9659C58.7534 34.9659 58.8594 34.9593 58.9423 34.946C59.0252 34.9295 59.0914 34.9162 59.1412 34.9062L59.3798 35.9602C59.3002 35.9901 59.1892 36.0199 59.0467 36.0497C58.9042 36.0829 58.7235 36.0994 58.5048 36.0994C58.1734 36.0994 57.8485 36.0282 57.5304 35.8857C57.2155 35.7431 56.9537 35.526 56.7449 35.2344C56.5394 34.9427 56.4366 34.5748 56.4366 34.1307V26.5341ZM64.4061 28.3636V29.358H60.2896V28.3636H64.4061ZM61.5225 36V27.3097C61.5225 26.8722 61.6253 26.5076 61.8308 26.2159C62.0363 25.9242 62.3031 25.7055 62.6312 25.5597C62.9593 25.4138 63.3057 25.3409 63.6703 25.3409C63.9586 25.3409 64.194 25.3641 64.3762 25.4105C64.5585 25.4569 64.6944 25.5 64.7839 25.5398L64.4458 26.554C64.3862 26.5341 64.3033 26.5092 64.1973 26.4794C64.0945 26.4496 63.9586 26.4347 63.7896 26.4347C63.4018 26.4347 63.1217 26.5324 62.9494 26.728C62.7804 26.9235 62.6958 27.2102 62.6958 27.5881V36H61.5225ZM68.8382 36.1591C68.1489 36.1591 67.544 35.995 67.0236 35.6669C66.5066 35.3388 66.1022 34.8797 65.8105 34.2898C65.5222 33.6998 65.378 33.0104 65.378 32.2216C65.378 31.4261 65.5222 30.7318 65.8105 30.1385C66.1022 29.5452 66.5066 29.0845 67.0236 28.7564C67.544 28.4283 68.1489 28.2642 68.8382 28.2642C69.5276 28.2642 70.1309 28.4283 70.6479 28.7564C71.1683 29.0845 71.5726 29.5452 71.861 30.1385C72.1526 30.7318 72.2985 31.4261 72.2985 32.2216C72.2985 33.0104 72.1526 33.6998 71.861 34.2898C71.5726 34.8797 71.1683 35.3388 70.6479 35.6669C70.1309 35.995 69.5276 36.1591 68.8382 36.1591ZM68.8382 35.1051C69.3619 35.1051 69.7928 34.9709 70.1309 34.7024C70.4689 34.4339 70.7192 34.081 70.8816 33.6435C71.044 33.206 71.1252 32.732 71.1252 32.2216C71.1252 31.7112 71.044 31.2356 70.8816 30.7947C70.7192 30.3539 70.4689 29.9976 70.1309 29.7259C69.7928 29.4541 69.3619 29.3182 68.8382 29.3182C68.3146 29.3182 67.8837 29.4541 67.5456 29.7259C67.2076 29.9976 66.9573 30.3539 66.7949 30.7947C66.6325 31.2356 66.5513 31.7112 66.5513 32.2216C66.5513 32.732 66.6325 33.206 66.7949 33.6435C66.9573 34.081 67.2076 34.4339 67.5456 34.7024C67.8837 34.9709 68.3146 35.1051 68.8382 35.1051ZM75.2628 25.8182V36H74.0895V25.8182H75.2628ZM77.4118 36V28.3636H78.585V36H77.4118ZM78.0083 27.0909C77.7797 27.0909 77.5824 27.013 77.4167 26.8572C77.2543 26.7015 77.1731 26.5142 77.1731 26.2955C77.1731 26.0767 77.2543 25.8894 77.4167 25.7337C77.5824 25.5779 77.7797 25.5 78.0083 25.5C78.237 25.5 78.4326 25.5779 78.595 25.7337C78.7607 25.8894 78.8436 26.0767 78.8436 26.2955C78.8436 26.5142 78.7607 26.7015 78.595 26.8572C78.4326 27.013 78.237 27.0909 78.0083 27.0909ZM83.8363 36.1591C83.1469 36.1591 82.542 35.995 82.0217 35.6669C81.5046 35.3388 81.1003 34.8797 80.8086 34.2898C80.5202 33.6998 80.3761 33.0104 80.3761 32.2216C80.3761 31.4261 80.5202 30.7318 80.8086 30.1385C81.1003 29.5452 81.5046 29.0845 82.0217 28.7564C82.542 28.4283 83.1469 28.2642 83.8363 28.2642C84.5257 28.2642 85.1289 28.4283 85.646 28.7564C86.1663 29.0845 86.5707 29.5452 86.859 30.1385C87.1507 30.7318 87.2965 31.4261 87.2965 32.2216C87.2965 33.0104 87.1507 33.6998 86.859 34.2898C86.5707 34.8797 86.1663 35.3388 85.646 35.6669C85.1289 35.995 84.5257 36.1591 83.8363 36.1591ZM83.8363 35.1051C84.36 35.1051 84.7908 34.9709 85.1289 34.7024C85.467 34.4339 85.7172 34.081 85.8796 33.6435C86.042 33.206 86.1232 32.732 86.1232 32.2216C86.1232 31.7112 86.042 31.2356 85.8796 30.7947C85.7172 30.3539 85.467 29.9976 85.1289 29.7259C84.7908 29.4541 84.36 29.3182 83.8363 29.3182C83.3126 29.3182 82.8817 29.4541 82.5437 29.7259C82.2056 29.9976 81.9554 30.3539 81.793 30.7947C81.6306 31.2356 81.5494 31.7112 81.5494 32.2216C81.5494 32.732 81.6306 33.206 81.793 33.6435C81.9554 34.081 82.2056 34.4339 82.5437 34.7024C82.8817 34.9709 83.3126 35.1051 83.8363 35.1051ZM93.1841 36V25.8182H94.3574V29.5767H94.4569C94.543 29.4441 94.6623 29.2751 94.8148 29.0696C94.9706 28.8608 95.1926 28.6752 95.481 28.5128C95.7727 28.3471 96.1671 28.2642 96.6642 28.2642C97.3072 28.2642 97.874 28.425 98.3645 28.7464C98.8551 29.0679 99.2379 29.5237 99.513 30.1136C99.7881 30.7036 99.9256 31.3996 99.9256 32.2017C99.9256 33.0104 99.7881 33.7114 99.513 34.3047C99.2379 34.8946 98.8567 35.352 98.3695 35.6768C97.8823 35.9983 97.3205 36.1591 96.6841 36.1591C96.1936 36.1591 95.8008 36.0779 95.5059 35.9155C95.2109 35.7498 94.9838 35.5625 94.8248 35.3537C94.6657 35.1416 94.543 34.9659 94.4569 34.8267H94.3176V36H93.1841ZM94.3375 32.1818C94.3375 32.7585 94.4221 33.2673 94.5911 33.7081C94.7601 34.1456 95.007 34.4886 95.3319 34.7372C95.6567 34.9825 96.0544 35.1051 96.525 35.1051C97.0156 35.1051 97.4249 34.9759 97.753 34.7173C98.0845 34.4555 98.333 34.1042 98.4988 33.6634C98.6678 33.2192 98.7523 32.7254 98.7523 32.1818C98.7523 31.6449 98.6694 31.161 98.5037 30.7301C98.3413 30.2959 98.0944 29.9529 97.763 29.701C97.4348 29.4458 97.0222 29.3182 96.525 29.3182C96.0478 29.3182 95.6467 29.4392 95.3219 29.6811C94.9971 29.9197 94.7518 30.2545 94.5861 30.6854C94.4204 31.1129 94.3375 31.6117 94.3375 32.1818ZM103.968 36.179C103.484 36.179 103.044 36.0878 102.65 35.9055C102.256 35.7199 101.942 35.4531 101.71 35.1051C101.478 34.7538 101.362 34.3295 101.362 33.8324C101.362 33.3949 101.449 33.0402 101.621 32.7685C101.793 32.4934 102.024 32.2779 102.312 32.1222C102.6 31.9664 102.919 31.8504 103.267 31.7741C103.618 31.6946 103.971 31.6316 104.325 31.5852C104.789 31.5256 105.166 31.4808 105.454 31.451C105.746 31.4179 105.958 31.3632 106.09 31.2869C106.226 31.2107 106.294 31.0781 106.294 30.8892V30.8494C106.294 30.3589 106.16 29.9777 105.892 29.706C105.626 29.4342 105.224 29.2983 104.683 29.2983C104.123 29.2983 103.684 29.4209 103.366 29.6662C103.048 29.9115 102.824 30.1733 102.695 30.4517L101.581 30.054C101.78 29.59 102.045 29.2287 102.377 28.9702C102.711 28.7083 103.076 28.526 103.47 28.4233C103.868 28.3172 104.259 28.2642 104.644 28.2642C104.889 28.2642 105.171 28.294 105.489 28.3537C105.81 28.41 106.12 28.5277 106.419 28.7067C106.72 28.8857 106.97 29.1558 107.169 29.517C107.368 29.8783 107.468 30.3622 107.468 30.9688V36H106.294V34.9659H106.235C106.155 35.1316 106.022 35.3089 105.837 35.4979C105.651 35.6868 105.404 35.8475 105.096 35.9801C104.788 36.1127 104.412 36.179 103.968 36.179ZM104.146 35.125C104.61 35.125 105.002 35.0339 105.32 34.8516C105.641 34.6693 105.883 34.4339 106.046 34.1456C106.211 33.8572 106.294 33.554 106.294 33.2358V32.1619C106.244 32.2216 106.135 32.2763 105.966 32.326C105.8 32.3724 105.608 32.4138 105.389 32.4503C105.174 32.4834 104.963 32.5133 104.758 32.5398C104.556 32.563 104.392 32.5829 104.266 32.5994C103.961 32.6392 103.676 32.7038 103.411 32.7933C103.149 32.8795 102.937 33.0104 102.774 33.1861C102.615 33.3584 102.536 33.5937 102.536 33.892C102.536 34.2997 102.686 34.608 102.988 34.8168C103.293 35.0223 103.679 35.125 104.146 35.125ZM110.782 25.8182V36H109.609V25.8182H110.782ZM115.178 36.179C114.695 36.179 114.255 36.0878 113.861 35.9055C113.467 35.7199 113.153 35.4531 112.921 35.1051C112.689 34.7538 112.573 34.3295 112.573 33.8324C112.573 33.3949 112.66 33.0402 112.832 32.7685C113.004 32.4934 113.235 32.2779 113.523 32.1222C113.811 31.9664 114.129 31.8504 114.477 31.7741C114.829 31.6946 115.182 31.6316 115.536 31.5852C116 31.5256 116.377 31.4808 116.665 31.451C116.957 31.4179 117.169 31.3632 117.301 31.2869C117.437 31.2107 117.505 31.0781 117.505 30.8892V30.8494C117.505 30.3589 117.371 29.9777 117.102 29.706C116.837 29.4342 116.435 29.2983 115.894 29.2983C115.334 29.2983 114.895 29.4209 114.577 29.6662C114.259 29.9115 114.035 30.1733 113.906 30.4517L112.792 30.054C112.991 29.59 113.256 29.2287 113.588 28.9702C113.922 28.7083 114.287 28.526 114.681 28.4233C115.079 28.3172 115.47 28.2642 115.855 28.2642C116.1 28.2642 116.382 28.294 116.7 28.3537C117.021 28.41 117.331 28.5277 117.629 28.7067C117.931 28.8857 118.181 29.1558 118.38 29.517C118.579 29.8783 118.678 30.3622 118.678 30.9688V36H117.505V34.9659H117.445C117.366 35.1316 117.233 35.3089 117.048 35.4979C116.862 35.6868 116.615 35.8475 116.307 35.9801C115.999 36.1127 115.623 36.179 115.178 36.179ZM115.357 35.125C115.821 35.125 116.213 35.0339 116.531 34.8516C116.852 34.6693 117.094 34.4339 117.257 34.1456C117.422 33.8572 117.505 33.554 117.505 33.2358V32.1619C117.455 32.2216 117.346 32.2763 117.177 32.326C117.011 32.3724 116.819 32.4138 116.6 32.4503C116.385 32.4834 116.174 32.5133 115.969 32.5398C115.767 32.563 115.603 32.5829 115.477 32.5994C115.172 32.6392 114.887 32.7038 114.622 32.7933C114.36 32.8795 114.148 33.0104 113.985 33.1861C113.826 33.3584 113.747 33.5937 113.747 33.892C113.747 34.2997 113.897 34.608 114.199 34.8168C114.504 35.0223 114.89 35.125 115.357 35.125ZM121.993 31.4062V36H120.82V28.3636H121.953V29.5568H122.053C122.232 29.169 122.504 28.8575 122.868 28.6222C123.233 28.3835 123.703 28.2642 124.28 28.2642C124.797 28.2642 125.25 28.3703 125.637 28.5824C126.025 28.7912 126.327 29.1094 126.542 29.5369C126.758 29.9612 126.865 30.4981 126.865 31.1477V36H125.692V31.2273C125.692 30.6274 125.536 30.16 125.225 29.8253C124.913 29.4872 124.486 29.3182 123.942 29.3182C123.568 29.3182 123.233 29.3994 122.938 29.5618C122.646 29.7242 122.416 29.9612 122.247 30.2727C122.078 30.5843 121.993 30.9621 121.993 31.4062ZM132.112 36.1591C131.396 36.1591 130.779 35.9901 130.262 35.652C129.745 35.3139 129.347 34.8482 129.069 34.255C128.791 33.6617 128.651 32.9839 128.651 32.2216C128.651 31.446 128.794 30.7616 129.079 30.1683C129.367 29.5717 129.768 29.1061 130.282 28.7713C130.799 28.4332 131.402 28.2642 132.092 28.2642C132.629 28.2642 133.113 28.3636 133.544 28.5625C133.974 28.7614 134.327 29.0398 134.602 29.3977C134.878 29.7557 135.048 30.1733 135.115 30.6506H133.941C133.852 30.3026 133.653 29.9943 133.345 29.7259C133.04 29.4541 132.629 29.3182 132.112 29.3182C131.654 29.3182 131.253 29.4375 130.909 29.6761C130.567 29.9115 130.3 30.2446 130.108 30.6754C129.919 31.103 129.825 31.6051 129.825 32.1818C129.825 32.7718 129.918 33.2855 130.103 33.723C130.292 34.1605 130.557 34.5002 130.899 34.7422C131.243 34.9841 131.648 35.1051 132.112 35.1051C132.417 35.1051 132.693 35.0521 132.942 34.946C133.191 34.84 133.401 34.6875 133.573 34.4886C133.746 34.2898 133.868 34.0511 133.941 33.7727H135.115C135.048 34.2235 134.884 34.6295 134.622 34.9908C134.364 35.3487 134.021 35.6338 133.593 35.8459C133.169 36.0547 132.675 36.1591 132.112 36.1591ZM140.031 36.1591C139.296 36.1591 138.661 35.9967 138.127 35.6719C137.597 35.3438 137.188 34.8864 136.899 34.2997C136.614 33.7098 136.472 33.0237 136.472 32.2415C136.472 31.4593 136.614 30.7699 136.899 30.1733C137.188 29.5734 137.589 29.1061 138.102 28.7713C138.619 28.4332 139.223 28.2642 139.912 28.2642C140.31 28.2642 140.703 28.3305 141.09 28.4631C141.478 28.5956 141.831 28.8111 142.149 29.1094C142.468 29.4044 142.721 29.7955 142.91 30.2827C143.099 30.7699 143.193 31.3698 143.193 32.0824V32.5795H137.307V31.5653H142C142 31.1345 141.914 30.75 141.742 30.4119C141.573 30.0739 141.331 29.8071 141.016 29.6115C140.704 29.416 140.336 29.3182 139.912 29.3182C139.445 29.3182 139.04 29.4342 138.699 29.6662C138.361 29.8949 138.101 30.1932 137.919 30.5611C137.736 30.929 137.645 31.3234 137.645 31.7443V32.4205C137.645 32.9972 137.744 33.486 137.943 33.8871C138.146 34.2848 138.426 34.5881 138.784 34.7969C139.142 35.0024 139.557 35.1051 140.031 35.1051C140.34 35.1051 140.618 35.062 140.867 34.9759C141.119 34.8864 141.336 34.7538 141.518 34.5781C141.7 34.3991 141.841 34.1771 141.941 33.9119L143.074 34.2301C142.955 34.6146 142.754 34.9527 142.472 35.2443C142.191 35.5327 141.843 35.758 141.428 35.9205C141.014 36.0795 140.548 36.1591 140.031 36.1591Z" fill="white"/>
<path d="M33.4148 113H32.3068L35.5114 104.273H36.6023L39.8068 113H38.6989L36.0909 105.653H36.0227L33.4148 113ZM33.8239 109.591H38.2898V110.528H33.8239V109.591ZM45.5618 106.455L43.1413 113H42.1186L39.6982 106.455H40.7891L42.5959 111.67H42.6641L44.4709 106.455H45.5618ZM48.6161 113.153C48.2013 113.153 47.8249 113.075 47.4869 112.919C47.1488 112.76 46.8803 112.531 46.6815 112.233C46.4826 111.932 46.3832 111.568 46.3832 111.142C46.3832 110.767 46.457 110.463 46.6048 110.23C46.7525 109.994 46.9499 109.81 47.1971 109.676C47.4442 109.543 47.717 109.443 48.0153 109.378C48.3164 109.31 48.619 109.256 48.9229 109.216C49.3207 109.165 49.6431 109.126 49.8903 109.101C50.1403 109.072 50.3221 109.026 50.4357 108.96C50.5522 108.895 50.6104 108.781 50.6104 108.619V108.585C50.6104 108.165 50.4954 107.838 50.2653 107.605C50.038 107.372 49.6928 107.256 49.2298 107.256C48.7496 107.256 48.3732 107.361 48.1005 107.571C47.8278 107.781 47.636 108.006 47.5252 108.244L46.5707 107.903C46.7411 107.506 46.9684 107.196 47.2525 106.974C47.5394 106.75 47.8519 106.594 48.19 106.506C48.5309 106.415 48.8661 106.369 49.1957 106.369C49.4059 106.369 49.6474 106.395 49.9201 106.446C50.1957 106.494 50.4613 106.595 50.717 106.749C50.9755 106.902 51.19 107.134 51.3604 107.443C51.5309 107.753 51.6161 108.168 51.6161 108.688V113H50.6104V112.114H50.5593C50.4911 112.256 50.3775 112.408 50.2184 112.57C50.0593 112.732 49.8477 112.869 49.5835 112.983C49.3192 113.097 48.9968 113.153 48.6161 113.153ZM48.7695 112.25C49.1673 112.25 49.5025 112.172 49.7752 112.016C50.0508 111.859 50.2582 111.658 50.3974 111.411C50.5394 111.163 50.6104 110.903 50.6104 110.631V109.71C50.5678 109.761 50.4741 109.808 50.3292 109.851C50.1871 109.891 50.0224 109.926 49.8349 109.957C49.6502 109.986 49.4698 110.011 49.2937 110.034C49.1204 110.054 48.9798 110.071 48.8718 110.085C48.6104 110.119 48.3661 110.175 48.1388 110.251C47.9144 110.325 47.7326 110.437 47.5934 110.588C47.457 110.736 47.3888 110.937 47.3888 111.193C47.3888 111.543 47.5181 111.807 47.7766 111.986C48.038 112.162 48.369 112.25 48.7695 112.25ZM53.4517 113V106.455H54.4574V113H53.4517ZM53.9631 105.364C53.767 105.364 53.598 105.297 53.456 105.163C53.3168 105.03 53.2472 104.869 53.2472 104.682C53.2472 104.494 53.3168 104.334 53.456 104.2C53.598 104.067 53.767 104 53.9631 104C54.1591 104 54.3267 104.067 54.4659 104.2C54.608 104.334 54.679 104.494 54.679 104.682C54.679 104.869 54.608 105.03 54.4659 105.163C54.3267 105.297 54.1591 105.364 53.9631 105.364ZM57.305 104.273V113H56.2994V104.273H57.305ZM61.0732 113.153C60.6584 113.153 60.282 113.075 59.9439 112.919C59.6058 112.76 59.3374 112.531 59.1385 112.233C58.9396 111.932 58.8402 111.568 58.8402 111.142C58.8402 110.767 58.9141 110.463 59.0618 110.23C59.2095 109.994 59.407 109.81 59.6541 109.676C59.9013 109.543 60.174 109.443 60.4723 109.378C60.7734 109.31 61.076 109.256 61.38 109.216C61.7777 109.165 62.1001 109.126 62.3473 109.101C62.5973 109.072 62.7791 109.026 62.8928 108.96C63.0092 108.895 63.0675 108.781 63.0675 108.619V108.585C63.0675 108.165 62.9524 107.838 62.7223 107.605C62.495 107.372 62.1499 107.256 61.6868 107.256C61.2067 107.256 60.8303 107.361 60.5575 107.571C60.2848 107.781 60.093 108.006 59.9822 108.244L59.0277 107.903C59.1982 107.506 59.4254 107.196 59.7095 106.974C59.9964 106.75 60.3089 106.594 60.647 106.506C60.9879 106.415 61.3232 106.369 61.6527 106.369C61.8629 106.369 62.1044 106.395 62.3771 106.446C62.6527 106.494 62.9183 106.595 63.174 106.749C63.4325 106.902 63.647 107.134 63.8175 107.443C63.9879 107.753 64.0732 108.168 64.0732 108.688V113H63.0675V112.114H63.0163C62.9482 112.256 62.8345 112.408 62.6754 112.57C62.5163 112.732 62.3047 112.869 62.0405 112.983C61.7763 113.097 61.4538 113.153 61.0732 113.153ZM61.2266 112.25C61.6243 112.25 61.9595 112.172 62.2322 112.016C62.5078 111.859 62.7152 111.658 62.8544 111.411C62.9964 111.163 63.0675 110.903 63.0675 110.631V109.71C63.0249 109.761 62.9311 109.808 62.7862 109.851C62.6442 109.891 62.4794 109.926 62.2919 109.957C62.1072 109.986 61.9268 110.011 61.7507 110.034C61.5774 110.054 61.4368 110.071 61.3288 110.085C61.0675 110.119 60.8232 110.175 60.5959 110.251C60.3714 110.325 60.1896 110.437 60.0504 110.588C59.9141 110.736 59.8459 110.937 59.8459 111.193C59.8459 111.543 59.9751 111.807 60.2337 111.986C60.495 112.162 60.826 112.25 61.2266 112.25ZM66.0451 113V104.273H67.0508V107.494H67.136C67.2099 107.381 67.3121 107.236 67.4428 107.06C67.5763 106.881 67.7667 106.722 68.0138 106.582C68.2638 106.44 68.6019 106.369 69.0281 106.369C69.5792 106.369 70.065 106.507 70.4854 106.783C70.9059 107.058 71.234 107.449 71.4698 107.955C71.7056 108.46 71.8235 109.057 71.8235 109.744C71.8235 110.438 71.7056 111.038 71.4698 111.547C71.234 112.053 70.9073 112.445 70.4897 112.723C70.0721 112.999 69.5906 113.136 69.0451 113.136C68.6246 113.136 68.288 113.067 68.0352 112.928C67.7823 112.786 67.5877 112.625 67.4513 112.446C67.315 112.264 67.2099 112.114 67.136 111.994H67.0167V113H66.0451ZM67.0337 109.727C67.0337 110.222 67.1062 110.658 67.2511 111.036C67.396 111.411 67.6076 111.705 67.886 111.918C68.1644 112.128 68.5053 112.233 68.9087 112.233C69.3292 112.233 69.68 112.122 69.9613 111.901C70.2454 111.676 70.4585 111.375 70.6005 110.997C70.7454 110.616 70.8178 110.193 70.8178 109.727C70.8178 109.267 70.7468 108.852 70.6048 108.483C70.4656 108.111 70.2539 107.817 69.9698 107.601C69.6886 107.382 69.3349 107.273 68.9087 107.273C68.4996 107.273 68.1559 107.376 67.8775 107.584C67.5991 107.788 67.3888 108.075 67.2468 108.445C67.1048 108.811 67.0337 109.239 67.0337 109.727ZM74.3675 104.273V113H73.3619V104.273H74.3675ZM78.9538 113.136C78.3232 113.136 77.7791 112.997 77.3217 112.719C76.8672 112.438 76.5163 112.045 76.2692 111.543C76.0249 111.037 75.9027 110.449 75.9027 109.778C75.9027 109.108 76.0249 108.517 76.2692 108.006C76.5163 107.491 76.8601 107.091 77.3004 106.804C77.7436 106.514 78.2607 106.369 78.8516 106.369C79.1925 106.369 79.5291 106.426 79.8615 106.54C80.1939 106.653 80.4964 106.838 80.7692 107.094C81.0419 107.347 81.2592 107.682 81.4212 108.099C81.5831 108.517 81.6641 109.031 81.6641 109.642V110.068H76.6186V109.199H80.6413C80.6413 108.83 80.5675 108.5 80.4197 108.21C80.2749 107.92 80.0675 107.692 79.7976 107.524C79.5305 107.357 79.2152 107.273 78.8516 107.273C78.451 107.273 78.1044 107.372 77.8118 107.571C77.522 107.767 77.299 108.023 77.1428 108.338C76.9865 108.653 76.9084 108.991 76.9084 109.352V109.932C76.9084 110.426 76.9936 110.845 77.1641 111.189C77.3374 111.53 77.5774 111.79 77.8842 111.969C78.1911 112.145 78.5476 112.233 78.9538 112.233C79.218 112.233 79.4567 112.196 79.6697 112.122C79.8857 112.045 80.0717 111.932 80.228 111.781C80.3842 111.628 80.505 111.437 80.5902 111.21L81.5618 111.483C81.4595 111.812 81.2876 112.102 81.0462 112.352C80.8047 112.599 80.5064 112.793 80.1513 112.932C79.7962 113.068 79.397 113.136 78.9538 113.136ZM86.7053 113V104.273H87.7109V107.494H87.7962C87.87 107.381 87.9723 107.236 88.103 107.06C88.2365 106.881 88.4268 106.722 88.674 106.582C88.924 106.44 89.2621 106.369 89.6882 106.369C90.2393 106.369 90.7251 106.507 91.1456 106.783C91.5661 107.058 91.8942 107.449 92.13 107.955C92.3658 108.46 92.4837 109.057 92.4837 109.744C92.4837 110.438 92.3658 111.038 92.13 111.547C91.8942 112.053 91.5675 112.445 91.1499 112.723C90.7322 112.999 90.2507 113.136 89.7053 113.136C89.2848 113.136 88.9482 113.067 88.6953 112.928C88.4425 112.786 88.2479 112.625 88.1115 112.446C87.9751 112.264 87.87 112.114 87.7962 111.994H87.6768V113H86.7053ZM87.6939 109.727C87.6939 110.222 87.7663 110.658 87.9112 111.036C88.0561 111.411 88.2678 111.705 88.5462 111.918C88.8246 112.128 89.1655 112.233 89.5689 112.233C89.9893 112.233 90.3402 112.122 90.6214 111.901C90.9055 111.676 91.1186 111.375 91.2607 110.997C91.4055 110.616 91.478 110.193 91.478 109.727C91.478 109.267 91.407 108.852 91.2649 108.483C91.1257 108.111 90.9141 107.817 90.63 107.601C90.3487 107.382 89.995 107.273 89.5689 107.273C89.1598 107.273 88.8161 107.376 88.5376 107.584C88.2592 107.788 88.049 108.075 87.907 108.445C87.7649 108.811 87.6939 109.239 87.6939 109.727ZM95.9482 113.153C95.5334 113.153 95.157 113.075 94.8189 112.919C94.4808 112.76 94.2124 112.531 94.0135 112.233C93.8146 111.932 93.7152 111.568 93.7152 111.142C93.7152 110.767 93.7891 110.463 93.9368 110.23C94.0845 109.994 94.282 109.81 94.5291 109.676C94.7763 109.543 95.049 109.443 95.3473 109.378C95.6484 109.31 95.951 109.256 96.255 109.216C96.6527 109.165 96.9751 109.126 97.2223 109.101C97.4723 109.072 97.6541 109.026 97.7678 108.96C97.8842 108.895 97.9425 108.781 97.9425 108.619V108.585C97.9425 108.165 97.8274 107.838 97.5973 107.605C97.37 107.372 97.0249 107.256 96.5618 107.256C96.0817 107.256 95.7053 107.361 95.4325 107.571C95.1598 107.781 94.968 108.006 94.8572 108.244L93.9027 107.903C94.0732 107.506 94.3004 107.196 94.5845 106.974C94.8714 106.75 95.1839 106.594 95.522 106.506C95.8629 106.415 96.1982 106.369 96.5277 106.369C96.7379 106.369 96.9794 106.395 97.2521 106.446C97.5277 106.494 97.7933 106.595 98.049 106.749C98.3075 106.902 98.522 107.134 98.6925 107.443C98.8629 107.753 98.9482 108.168 98.9482 108.688V113H97.9425V112.114H97.8913C97.8232 112.256 97.7095 112.408 97.5504 112.57C97.3913 112.732 97.1797 112.869 96.9155 112.983C96.6513 113.097 96.3288 113.153 95.9482 113.153ZM96.1016 112.25C96.4993 112.25 96.8345 112.172 97.1072 112.016C97.3828 111.859 97.5902 111.658 97.7294 111.411C97.8714 111.163 97.9425 110.903 97.9425 110.631V109.71C97.8999 109.761 97.8061 109.808 97.6612 109.851C97.5192 109.891 97.3544 109.926 97.1669 109.957C96.9822 109.986 96.8018 110.011 96.6257 110.034C96.4524 110.054 96.3118 110.071 96.2038 110.085C95.9425 110.119 95.6982 110.175 95.4709 110.251C95.2464 110.325 95.0646 110.437 94.9254 110.588C94.7891 110.736 94.7209 110.937 94.7209 111.193C94.7209 111.543 94.8501 111.807 95.1087 111.986C95.37 112.162 95.701 112.25 96.1016 112.25ZM101.789 104.273V113H100.784V104.273H101.789ZM104.364 113.068C104.154 113.068 103.974 112.993 103.823 112.842C103.673 112.692 103.597 112.511 103.597 112.301C103.597 112.091 103.673 111.911 103.823 111.76C103.974 111.609 104.154 111.534 104.364 111.534C104.575 111.534 104.755 111.609 104.906 111.76C105.056 111.911 105.131 112.091 105.131 112.301C105.131 112.44 105.096 112.568 105.025 112.685C104.957 112.801 104.864 112.895 104.748 112.966C104.634 113.034 104.506 113.068 104.364 113.068ZM104.364 108.21C104.154 108.21 103.974 108.135 103.823 107.984C103.673 107.834 103.597 107.653 103.597 107.443C103.597 107.233 103.673 107.053 103.823 106.902C103.974 106.751 104.154 106.676 104.364 106.676C104.575 106.676 104.755 106.751 104.906 106.902C105.056 107.053 105.131 107.233 105.131 107.443C105.131 107.582 105.096 107.71 105.025 107.827C104.957 107.943 104.864 108.037 104.748 108.108C104.634 108.176 104.506 108.21 104.364 108.21ZM112.868 114.091V103.182H113.567V114.091H112.868ZM115.22 106.455C115.169 106.023 114.962 105.688 114.598 105.449C114.234 105.21 113.788 105.091 113.26 105.091C112.874 105.091 112.536 105.153 112.246 105.278C111.959 105.403 111.734 105.575 111.572 105.794C111.413 106.013 111.334 106.261 111.334 106.54C111.334 106.773 111.389 106.973 111.5 107.141C111.614 107.305 111.759 107.443 111.935 107.554C112.111 107.662 112.295 107.751 112.489 107.822C112.682 107.891 112.859 107.946 113.021 107.989L113.908 108.227C114.135 108.287 114.388 108.369 114.666 108.474C114.947 108.58 115.216 108.723 115.472 108.905C115.73 109.084 115.943 109.314 116.111 109.595C116.278 109.876 116.362 110.222 116.362 110.631C116.362 111.102 116.239 111.528 115.991 111.909C115.747 112.29 115.389 112.592 114.918 112.817C114.449 113.041 113.879 113.153 113.209 113.153C112.584 113.153 112.043 113.053 111.585 112.851C111.131 112.649 110.773 112.368 110.511 112.007C110.253 111.646 110.107 111.227 110.072 110.75H111.163C111.192 111.08 111.303 111.352 111.496 111.568C111.692 111.781 111.939 111.94 112.237 112.045C112.538 112.148 112.862 112.199 113.209 112.199C113.612 112.199 113.974 112.134 114.295 112.003C114.616 111.869 114.871 111.685 115.058 111.449C115.246 111.21 115.339 110.932 115.339 110.614C115.339 110.324 115.259 110.088 115.097 109.906C114.935 109.724 114.722 109.577 114.457 109.463C114.193 109.349 113.908 109.25 113.601 109.165L112.527 108.858C111.845 108.662 111.305 108.382 110.908 108.018C110.51 107.655 110.311 107.179 110.311 106.591C110.311 106.102 110.443 105.676 110.707 105.312C110.974 104.946 111.332 104.662 111.781 104.46C112.233 104.256 112.737 104.153 113.294 104.153C113.857 104.153 114.357 104.254 114.794 104.456C115.232 104.655 115.578 104.928 115.834 105.274C116.092 105.621 116.229 106.014 116.243 106.455H115.22ZM117.946 113V112.233L120.827 109.08C121.165 108.71 121.444 108.389 121.662 108.116C121.881 107.841 122.043 107.582 122.148 107.341C122.256 107.097 122.31 106.841 122.31 106.574C122.31 106.267 122.236 106.001 122.088 105.777C121.944 105.553 121.745 105.379 121.492 105.257C121.239 105.135 120.955 105.074 120.64 105.074C120.304 105.074 120.012 105.143 119.762 105.283C119.515 105.419 119.323 105.611 119.186 105.858C119.053 106.105 118.986 106.395 118.986 106.727H117.98C117.98 106.216 118.098 105.767 118.334 105.381C118.57 104.994 118.891 104.693 119.297 104.477C119.706 104.261 120.165 104.153 120.674 104.153C121.185 104.153 121.638 104.261 122.033 104.477C122.428 104.693 122.738 104.984 122.962 105.351C123.186 105.717 123.299 106.125 123.299 106.574C123.299 106.895 123.24 107.209 123.124 107.516C123.01 107.82 122.811 108.159 122.527 108.534C122.246 108.906 121.855 109.361 121.355 109.898L119.395 111.994V112.062H123.452V113H117.946ZM128.059 113.119C127.417 113.119 126.87 112.945 126.418 112.595C125.966 112.243 125.621 111.733 125.382 111.065C125.144 110.395 125.025 109.585 125.025 108.636C125.025 107.693 125.144 106.888 125.382 106.22C125.624 105.55 125.971 105.038 126.422 104.686C126.877 104.331 127.422 104.153 128.059 104.153C128.695 104.153 129.239 104.331 129.691 104.686C130.145 105.038 130.492 105.55 130.73 106.22C130.972 106.888 131.093 107.693 131.093 108.636C131.093 109.585 130.973 110.395 130.735 111.065C130.496 111.733 130.151 112.243 129.699 112.595C129.248 112.945 128.701 113.119 128.059 113.119ZM128.059 112.182C128.695 112.182 129.189 111.875 129.542 111.261C129.894 110.648 130.07 109.773 130.07 108.636C130.07 107.881 129.989 107.237 129.827 106.706C129.668 106.175 129.438 105.77 129.137 105.491C128.838 105.213 128.479 105.074 128.059 105.074C127.428 105.074 126.935 105.385 126.58 106.007C126.225 106.626 126.047 107.503 126.047 108.636C126.047 109.392 126.127 110.034 126.286 110.562C126.445 111.091 126.674 111.493 126.972 111.768C127.273 112.044 127.635 112.182 128.059 112.182ZM135.559 113.119C134.917 113.119 134.37 112.945 133.918 112.595C133.466 112.243 133.121 111.733 132.882 111.065C132.644 110.395 132.525 109.585 132.525 108.636C132.525 107.693 132.644 106.888 132.882 106.22C133.124 105.55 133.471 105.038 133.922 104.686C134.377 104.331 134.922 104.153 135.559 104.153C136.195 104.153 136.739 104.331 137.191 104.686C137.645 105.038 137.992 105.55 138.23 106.22C138.472 106.888 138.593 107.693 138.593 108.636C138.593 109.585 138.473 110.395 138.235 111.065C137.996 111.733 137.651 112.243 137.199 112.595C136.748 112.945 136.201 113.119 135.559 113.119ZM135.559 112.182C136.195 112.182 136.689 111.875 137.042 111.261C137.394 110.648 137.57 109.773 137.57 108.636C137.57 107.881 137.489 107.237 137.327 106.706C137.168 106.175 136.938 105.77 136.637 105.491C136.338 105.213 135.979 105.074 135.559 105.074C134.928 105.074 134.435 105.385 134.08 106.007C133.725 106.626 133.547 107.503 133.547 108.636C133.547 109.392 133.627 110.034 133.786 110.562C133.945 111.091 134.174 111.493 134.472 111.768C134.773 112.044 135.135 112.182 135.559 112.182ZM140.657 113.068C140.447 113.068 140.267 112.993 140.116 112.842C139.966 112.692 139.89 112.511 139.89 112.301C139.89 112.091 139.966 111.911 140.116 111.76C140.267 111.609 140.447 111.534 140.657 111.534C140.868 111.534 141.048 111.609 141.199 111.76C141.349 111.911 141.424 112.091 141.424 112.301C141.424 112.44 141.389 112.568 141.318 112.685C141.25 112.801 141.157 112.895 141.041 112.966C140.927 113.034 140.799 113.068 140.657 113.068ZM145.754 113.119C145.112 113.119 144.565 112.945 144.113 112.595C143.662 112.243 143.316 111.733 143.078 111.065C142.839 110.395 142.72 109.585 142.72 108.636C142.72 107.693 142.839 106.888 143.078 106.22C143.319 105.55 143.666 105.038 144.118 104.686C144.572 104.331 145.118 104.153 145.754 104.153C146.39 104.153 146.934 104.331 147.386 104.686C147.841 105.038 148.187 105.55 148.426 106.22C148.667 106.888 148.788 107.693 148.788 108.636C148.788 109.585 148.669 110.395 148.43 111.065C148.191 111.733 147.846 112.243 147.395 112.595C146.943 112.945 146.396 113.119 145.754 113.119ZM145.754 112.182C146.39 112.182 146.885 111.875 147.237 111.261C147.589 110.648 147.765 109.773 147.765 108.636C147.765 107.881 147.684 107.237 147.522 106.706C147.363 106.175 147.133 105.77 146.832 105.491C146.534 105.213 146.174 105.074 145.754 105.074C145.123 105.074 144.63 105.385 144.275 106.007C143.92 106.626 143.743 107.503 143.743 108.636C143.743 109.392 143.822 110.034 143.981 110.562C144.14 111.091 144.369 111.493 144.667 111.768C144.968 112.044 145.331 112.182 145.754 112.182ZM153.254 113.119C152.612 113.119 152.065 112.945 151.613 112.595C151.162 112.243 150.816 111.733 150.578 111.065C150.339 110.395 150.22 109.585 150.22 108.636C150.22 107.693 150.339 106.888 150.578 106.22C150.819 105.55 151.166 105.038 151.618 104.686C152.072 104.331 152.618 104.153 153.254 104.153C153.89 104.153 154.434 104.331 154.886 104.686C155.341 105.038 155.687 105.55 155.926 106.22C156.167 106.888 156.288 107.693 156.288 108.636C156.288 109.585 156.169 110.395 155.93 111.065C155.691 111.733 155.346 112.243 154.895 112.595C154.443 112.945 153.896 113.119 153.254 113.119ZM153.254 112.182C153.89 112.182 154.385 111.875 154.737 111.261C155.089 110.648 155.265 109.773 155.265 108.636C155.265 107.881 155.184 107.237 155.022 106.706C154.863 106.175 154.633 105.77 154.332 105.491C154.034 105.213 153.674 105.074 153.254 105.074C152.623 105.074 152.13 105.385 151.775 106.007C151.42 106.626 151.243 107.503 151.243 108.636C151.243 109.392 151.322 110.034 151.481 110.562C151.64 111.091 151.869 111.493 152.167 111.768C152.468 112.044 152.831 112.182 153.254 112.182Z" fill="#D0D3D9"/>
<path d="M66.0368 161.463V168.611" stroke="white" stroke-width="1.5" stroke-linecap="round" stroke-linejoin="round"/>
<path d="M69.6146 165.037H62.4588" stroke="white" stroke-width="1.5" stroke-linecap="round" stroke-linejoin="round"/>
<path fill-rule="evenodd" clip-rule="evenodd" d="M56.3 165.037C56.3 157.735 58.7347 155.3 66.0368 155.3C73.3389 155.3 75.7737 157.735 75.7737 165.037C75.7737 172.339 73.3389 174.774 66.0368 174.774C58.7347 174.774 56.3 172.339 56.3 165.037Z" stroke="white" stroke-width="1.5" stroke-linecap="round" stroke-linejoin="round"/>
<path d="M99.9658 170.5H96.8238V160.318H100.105C101.093 160.318 101.938 160.522 102.641 160.93C103.343 161.334 103.882 161.916 104.256 162.675C104.631 163.43 104.818 164.335 104.818 165.389C104.818 166.45 104.629 167.363 104.251 168.129C103.873 168.891 103.323 169.478 102.601 169.888C101.878 170.296 101 170.5 99.9658 170.5ZM98.0567 169.406H99.8863C100.728 169.406 101.426 169.244 101.979 168.919C102.533 168.594 102.945 168.132 103.217 167.532C103.489 166.932 103.625 166.218 103.625 165.389C103.625 164.567 103.491 163.86 103.222 163.266C102.954 162.67 102.553 162.212 102.019 161.894C101.485 161.573 100.821 161.412 100.025 161.412H98.0567V169.406ZM109.929 170.659C109.193 170.659 108.558 170.497 108.025 170.172C107.494 169.844 107.085 169.386 106.797 168.8C106.512 168.21 106.369 167.524 106.369 166.741C106.369 165.959 106.512 165.27 106.797 164.673C107.085 164.073 107.486 163.606 108 163.271C108.517 162.933 109.12 162.764 109.81 162.764C110.207 162.764 110.6 162.83 110.988 162.963C111.376 163.096 111.729 163.311 112.047 163.609C112.365 163.904 112.619 164.295 112.807 164.783C112.996 165.27 113.091 165.87 113.091 166.582V167.08H107.204V166.065H111.898C111.898 165.634 111.811 165.25 111.639 164.912C111.47 164.574 111.228 164.307 110.913 164.112C110.602 163.916 110.234 163.818 109.81 163.818C109.342 163.818 108.938 163.934 108.597 164.166C108.258 164.395 107.998 164.693 107.816 165.061C107.634 165.429 107.543 165.823 107.543 166.244V166.92C107.543 167.497 107.642 167.986 107.841 168.387C108.043 168.785 108.323 169.088 108.681 169.297C109.039 169.502 109.455 169.605 109.929 169.605C110.237 169.605 110.516 169.562 110.764 169.476C111.016 169.386 111.233 169.254 111.415 169.078C111.598 168.899 111.739 168.677 111.838 168.412L112.972 168.73C112.852 169.115 112.652 169.453 112.37 169.744C112.088 170.033 111.74 170.258 111.326 170.42C110.912 170.58 110.446 170.659 109.929 170.659ZM114.876 173.364V162.864H116.009V164.077H116.148C116.235 163.944 116.354 163.775 116.506 163.57C116.662 163.361 116.884 163.175 117.172 163.013C117.464 162.847 117.859 162.764 118.356 162.764C118.999 162.764 119.565 162.925 120.056 163.246C120.547 163.568 120.929 164.024 121.204 164.614C121.48 165.204 121.617 165.9 121.617 166.702C121.617 167.51 121.48 168.211 121.204 168.805C120.929 169.395 120.548 169.852 120.061 170.177C119.574 170.498 119.012 170.659 118.376 170.659C117.885 170.659 117.492 170.578 117.197 170.415C116.902 170.25 116.675 170.062 116.516 169.854C116.357 169.642 116.235 169.466 116.148 169.327H116.049V173.364H114.876ZM116.029 166.682C116.029 167.259 116.114 167.767 116.283 168.208C116.452 168.646 116.699 168.989 117.023 169.237C117.348 169.482 117.746 169.605 118.217 169.605C118.707 169.605 119.116 169.476 119.445 169.217C119.776 168.955 120.025 168.604 120.19 168.163C120.359 167.719 120.444 167.225 120.444 166.682C120.444 166.145 120.361 165.661 120.195 165.23C120.033 164.796 119.786 164.453 119.454 164.201C119.126 163.946 118.714 163.818 118.217 163.818C117.739 163.818 117.338 163.939 117.013 164.181C116.689 164.42 116.443 164.754 116.278 165.185C116.112 165.613 116.029 166.112 116.029 166.682ZM126.509 170.659C125.82 170.659 125.215 170.495 124.695 170.167C124.177 169.839 123.773 169.38 123.481 168.79C123.193 168.2 123.049 167.51 123.049 166.722C123.049 165.926 123.193 165.232 123.481 164.638C123.773 164.045 124.177 163.585 124.695 163.256C125.215 162.928 125.82 162.764 126.509 162.764C127.199 162.764 127.802 162.928 128.319 163.256C128.839 163.585 129.244 164.045 129.532 164.638C129.824 165.232 129.969 165.926 129.969 166.722C129.969 167.51 129.824 168.2 129.532 168.79C129.244 169.38 128.839 169.839 128.319 170.167C127.802 170.495 127.199 170.659 126.509 170.659ZM126.509 169.605C127.033 169.605 127.464 169.471 127.802 169.202C128.14 168.934 128.39 168.581 128.552 168.143C128.715 167.706 128.796 167.232 128.796 166.722C128.796 166.211 128.715 165.736 128.552 165.295C128.39 164.854 128.14 164.498 127.802 164.226C127.464 163.954 127.033 163.818 126.509 163.818C125.985 163.818 125.555 163.954 125.217 164.226C124.878 164.498 124.628 164.854 124.466 165.295C124.303 165.736 124.222 166.211 124.222 166.722C124.222 167.232 124.303 167.706 124.466 168.143C124.628 168.581 124.878 168.934 125.217 169.202C125.555 169.471 125.985 169.605 126.509 169.605ZM137.169 164.574L136.116 164.872C136.049 164.696 135.951 164.526 135.822 164.36C135.696 164.191 135.524 164.052 135.305 163.942C135.086 163.833 134.806 163.778 134.465 163.778C133.998 163.778 133.608 163.886 133.297 164.102C132.988 164.314 132.834 164.584 132.834 164.912C132.834 165.204 132.94 165.434 133.152 165.603C133.365 165.772 133.696 165.913 134.147 166.026L135.28 166.304C135.963 166.47 136.472 166.723 136.807 167.065C137.141 167.403 137.309 167.839 137.309 168.372C137.309 168.81 137.183 169.201 136.931 169.545C136.682 169.89 136.334 170.162 135.887 170.361C135.439 170.56 134.919 170.659 134.326 170.659C133.547 170.659 132.902 170.49 132.392 170.152C131.881 169.814 131.558 169.32 131.422 168.67L132.536 168.392C132.642 168.803 132.843 169.111 133.138 169.317C133.436 169.522 133.825 169.625 134.306 169.625C134.853 169.625 135.287 169.509 135.608 169.277C135.933 169.042 136.096 168.76 136.096 168.432C136.096 168.167 136.003 167.945 135.817 167.766C135.632 167.583 135.347 167.447 134.962 167.358L133.689 167.06C132.99 166.894 132.476 166.637 132.148 166.289C131.823 165.938 131.661 165.499 131.661 164.972C131.661 164.541 131.782 164.16 132.024 163.828C132.269 163.497 132.602 163.237 133.023 163.048C133.447 162.859 133.928 162.764 134.465 162.764C135.221 162.764 135.814 162.93 136.245 163.261C136.679 163.593 136.987 164.03 137.169 164.574ZM139.075 170.5V162.864H140.248V170.5H139.075ZM139.671 161.591C139.443 161.591 139.246 161.513 139.08 161.357C138.917 161.201 138.836 161.014 138.836 160.795C138.836 160.577 138.917 160.389 139.08 160.234C139.246 160.078 139.443 160 139.671 160C139.9 160 140.096 160.078 140.258 160.234C140.424 160.389 140.507 160.577 140.507 160.795C140.507 161.014 140.424 161.201 140.258 161.357C140.096 161.513 139.9 161.591 139.671 161.591ZM145.718 162.864V163.858H141.761V162.864H145.718ZM142.914 161.034H144.087V168.312C144.087 168.644 144.136 168.893 144.232 169.058C144.331 169.221 144.457 169.33 144.609 169.386C144.765 169.439 144.929 169.466 145.102 169.466C145.231 169.466 145.337 169.459 145.42 169.446C145.503 169.429 145.569 169.416 145.619 169.406L145.857 170.46C145.778 170.49 145.667 170.52 145.524 170.55C145.382 170.583 145.201 170.599 144.982 170.599C144.651 170.599 144.326 170.528 144.008 170.386C143.693 170.243 143.431 170.026 143.222 169.734C143.017 169.443 142.914 169.075 142.914 168.631V161.034Z" fill="white"/>
<rect x="37.5" y="144.5" width="143" height="41" rx="10.5" stroke="white"/>
<rect x="194" y="145" width="142" height="40" rx="10" fill="#FCB45D"/>
<path d="M225.832 161.175L220.109 166.959L213.599 162.888C212.667 162.304 212.861 160.887 213.916 160.579L229.371 156.053C230.337 155.77 231.233 156.673 230.946 157.642L226.373 173.087C226.06 174.143 224.651 174.332 224.073 173.395L220.106 166.96" stroke="black" stroke-width="1.5" stroke-linecap="round" stroke-linejoin="round"/>
<path d="M248.432 170.5L245.648 160.318H246.901L249.029 168.611H249.128L251.296 160.318H252.688L254.855 168.611H254.955L257.083 160.318H258.335L255.551 170.5H254.279L252.031 162.386H251.952L249.705 170.5H248.432ZM259.713 170.5V162.864H260.886V170.5H259.713ZM260.309 161.591C260.08 161.591 259.883 161.513 259.718 161.357C259.555 161.201 259.474 161.014 259.474 160.795C259.474 160.577 259.555 160.389 259.718 160.234C259.883 160.078 260.08 160 260.309 160C260.538 160 260.733 160.078 260.896 160.234C261.061 160.389 261.144 160.577 261.144 160.795C261.144 161.014 261.061 161.201 260.896 161.357C260.733 161.513 260.538 161.591 260.309 161.591ZM266.356 162.864V163.858H262.398V162.864H266.356ZM263.552 161.034H264.725V168.312C264.725 168.644 264.773 168.893 264.869 169.058C264.969 169.221 265.095 169.33 265.247 169.386C265.403 169.439 265.567 169.466 265.739 169.466C265.869 169.466 265.975 169.459 266.058 169.446C266.14 169.429 266.207 169.416 266.256 169.406L266.495 170.46C266.415 170.49 266.304 170.52 266.162 170.55C266.019 170.583 265.839 170.599 265.62 170.599C265.289 170.599 264.964 170.528 264.646 170.386C264.331 170.243 264.069 170.026 263.86 169.734C263.655 169.443 263.552 169.075 263.552 168.631V161.034ZM269.458 165.906V170.5H268.285V160.318H269.458V164.057H269.558C269.737 163.662 270.005 163.349 270.363 163.117C270.724 162.882 271.205 162.764 271.805 162.764C272.325 162.764 272.781 162.869 273.172 163.077C273.563 163.283 273.866 163.599 274.082 164.027C274.3 164.451 274.41 164.991 274.41 165.648V170.5H273.237V165.727C273.237 165.121 273.079 164.652 272.764 164.32C272.453 163.986 272.02 163.818 271.467 163.818C271.082 163.818 270.737 163.899 270.433 164.062C270.131 164.224 269.892 164.461 269.717 164.773C269.544 165.084 269.458 165.462 269.458 165.906ZM279.44 170.659C278.803 170.659 278.242 170.498 277.754 170.177C277.267 169.852 276.886 169.395 276.611 168.805C276.336 168.211 276.198 167.51 276.198 166.702C276.198 165.9 276.336 165.204 276.611 164.614C276.886 164.024 277.269 163.568 277.759 163.246C278.25 162.925 278.817 162.764 279.46 162.764C279.957 162.764 280.35 162.847 280.638 163.013C280.93 163.175 281.152 163.361 281.304 163.57C281.46 163.775 281.581 163.944 281.667 164.077H281.767V160.318H282.94V170.5H281.806V169.327H281.667C281.581 169.466 281.458 169.642 281.299 169.854C281.14 170.062 280.913 170.25 280.618 170.415C280.323 170.578 279.93 170.659 279.44 170.659ZM279.599 169.605C280.07 169.605 280.467 169.482 280.792 169.237C281.117 168.989 281.364 168.646 281.533 168.208C281.702 167.767 281.786 167.259 281.786 166.682C281.786 166.112 281.704 165.613 281.538 165.185C281.372 164.754 281.127 164.42 280.802 164.181C280.477 163.939 280.076 163.818 279.599 163.818C279.102 163.818 278.687 163.946 278.356 164.201C278.028 164.453 277.781 164.796 277.615 165.23C277.453 165.661 277.372 166.145 277.372 166.682C277.372 167.225 277.454 167.719 277.62 168.163C277.789 168.604 278.038 168.955 278.366 169.217C278.697 169.476 279.108 169.605 279.599 169.605ZM285.252 170.5V162.864H286.385V164.017H286.465C286.604 163.639 286.856 163.333 287.22 163.097C287.585 162.862 287.996 162.744 288.453 162.744C288.539 162.744 288.647 162.746 288.776 162.749C288.906 162.753 289.003 162.758 289.07 162.764V163.957C289.03 163.947 288.939 163.933 288.796 163.913C288.657 163.889 288.51 163.878 288.354 163.878C287.983 163.878 287.651 163.956 287.36 164.112C287.071 164.264 286.843 164.476 286.673 164.748C286.508 165.016 286.425 165.323 286.425 165.668V170.5H285.252ZM292.708 170.679C292.224 170.679 291.785 170.588 291.39 170.406C290.996 170.22 290.683 169.953 290.451 169.605C290.219 169.254 290.103 168.83 290.103 168.332C290.103 167.895 290.189 167.54 290.361 167.268C290.533 166.993 290.764 166.778 291.052 166.622C291.341 166.466 291.659 166.35 292.007 166.274C292.358 166.195 292.711 166.132 293.066 166.085C293.53 166.026 293.906 165.981 294.194 165.951C294.486 165.918 294.698 165.863 294.831 165.787C294.967 165.711 295.034 165.578 295.034 165.389V165.349C295.034 164.859 294.9 164.478 294.632 164.206C294.367 163.934 293.964 163.798 293.424 163.798C292.864 163.798 292.424 163.921 292.106 164.166C291.788 164.411 291.564 164.673 291.435 164.952L290.321 164.554C290.52 164.09 290.785 163.729 291.117 163.47C291.452 163.208 291.816 163.026 292.211 162.923C292.608 162.817 292.999 162.764 293.384 162.764C293.629 162.764 293.911 162.794 294.229 162.854C294.551 162.91 294.86 163.028 295.159 163.207C295.46 163.386 295.711 163.656 295.909 164.017C296.108 164.378 296.208 164.862 296.208 165.469V170.5H295.034V169.466H294.975C294.895 169.632 294.763 169.809 294.577 169.998C294.391 170.187 294.145 170.348 293.836 170.48C293.528 170.613 293.152 170.679 292.708 170.679ZM292.887 169.625C293.351 169.625 293.742 169.534 294.06 169.352C294.382 169.169 294.623 168.934 294.786 168.646C294.952 168.357 295.034 168.054 295.034 167.736V166.662C294.985 166.722 294.875 166.776 294.706 166.826C294.541 166.872 294.348 166.914 294.13 166.95C293.914 166.983 293.704 167.013 293.498 167.04C293.296 167.063 293.132 167.083 293.006 167.099C292.701 167.139 292.416 167.204 292.151 167.293C291.889 167.379 291.677 167.51 291.515 167.686C291.355 167.858 291.276 168.094 291.276 168.392C291.276 168.8 291.427 169.108 291.728 169.317C292.033 169.522 292.419 169.625 292.887 169.625ZM300.079 170.5L297.753 162.864H298.986L300.636 168.71H300.716L302.346 162.864H303.599L305.21 168.69H305.29L306.94 162.864H308.173L305.846 170.5H304.693L303.023 164.634H302.903L301.233 170.5H300.079Z" fill="black"/>
<path d="M37.3722 80.5455V55.0909H39.0028V80.5455H37.3722ZM42.0753 63.2344C41.9825 62.366 41.5914 61.6899 40.902 61.206C40.2192 60.7221 39.331 60.4801 38.2372 60.4801C37.4683 60.4801 36.8087 60.5961 36.2585 60.8281C35.7083 61.0601 35.2874 61.375 34.9957 61.7727C34.7041 62.1705 34.5549 62.6245 34.5483 63.1349C34.5483 63.5592 34.6444 63.9271 34.8366 64.2386C35.0355 64.5502 35.304 64.8153 35.642 65.0341C35.9801 65.2462 36.3546 65.4252 36.7656 65.571C37.1766 65.7169 37.5909 65.8395 38.0085 65.9389L39.9176 66.4162C40.6866 66.5952 41.4257 66.8371 42.1349 67.142C42.8509 67.447 43.4905 67.8314 44.054 68.2955C44.6241 68.7595 45.0748 69.3196 45.4062 69.9759C45.7377 70.6321 45.9034 71.401 45.9034 72.2827C45.9034 73.4759 45.5985 74.5265 44.9886 75.4347C44.3788 76.3362 43.4972 77.0421 42.3438 77.5526C41.197 78.0563 39.8082 78.3082 38.1776 78.3082C36.5933 78.3082 35.2178 78.063 34.0511 77.5724C32.8911 77.0819 31.983 76.366 31.3267 75.4247C30.6771 74.4834 30.3258 73.3366 30.2727 71.9844H33.902C33.955 72.6937 34.1738 73.2836 34.5582 73.7543C34.9427 74.2249 35.4432 74.5762 36.0597 74.8082C36.6828 75.0402 37.3788 75.1562 38.1477 75.1562C38.9498 75.1562 39.6525 75.0369 40.2557 74.7983C40.8655 74.553 41.3428 74.215 41.6875 73.7841C42.0322 73.3466 42.2079 72.8362 42.2145 72.2528C42.2079 71.7225 42.0521 71.285 41.7472 70.9403C41.4422 70.589 41.0147 70.2973 40.4645 70.0653C39.9209 69.8267 39.2846 69.6146 38.5554 69.429L36.2386 68.8324C34.5616 68.4015 33.2358 67.7486 32.2614 66.8736C31.2936 65.992 30.8097 64.822 30.8097 63.3636C30.8097 62.1638 31.1345 61.1132 31.7841 60.2116C32.4403 59.3101 33.3319 58.6108 34.4588 58.1136C35.5857 57.6098 36.8617 57.358 38.2869 57.358C39.732 57.358 40.9981 57.6098 42.0852 58.1136C43.179 58.6108 44.0374 59.3035 44.6605 60.1918C45.2836 61.0734 45.6051 62.0876 45.625 63.2344H42.0753ZM56.0728 78.2784C54.747 78.2784 53.5605 78.0298 52.5131 77.5327C51.4658 77.0289 50.6339 76.3395 50.0174 75.4645C49.4076 74.5895 49.0827 73.5885 49.043 72.4616H52.6225C52.6888 73.2969 53.0501 73.9796 53.7063 74.5099C54.3626 75.0336 55.1514 75.2955 56.0728 75.2955C56.7953 75.2955 57.4383 75.1297 58.0018 74.7983C58.5652 74.4669 59.0094 74.0062 59.3342 73.4162C59.659 72.8262 59.8181 72.1534 59.8114 71.3977C59.8181 70.6288 59.6557 69.946 59.3242 69.3494C58.9928 68.7528 58.5387 68.2855 57.962 67.9474C57.3853 67.6027 56.7224 67.4304 55.9734 67.4304C55.3635 67.4238 54.7636 67.5365 54.1737 67.7685C53.5837 68.0005 53.1164 68.3054 52.7717 68.6832L49.4407 68.1364L50.5046 57.6364H62.3171V60.7188H53.5572L52.9705 66.1179H53.0898C53.4677 65.6738 54.0013 65.3059 54.6907 65.0142C55.3801 64.7159 56.1358 64.5668 56.9577 64.5668C58.1907 64.5668 59.2911 64.8584 60.2589 65.4418C61.2267 66.0185 61.989 66.8139 62.5458 67.8281C63.1026 68.8423 63.381 70.0024 63.381 71.3082C63.381 72.6539 63.0695 73.8537 62.4464 74.9077C61.8299 75.955 60.9715 76.7803 59.8711 77.3835C58.7773 77.9801 57.5112 78.2784 56.0728 78.2784ZM74.239 78.3878C72.6017 78.3878 71.1964 77.9735 70.0231 77.1449C68.8564 76.3097 67.9582 75.1065 67.3285 73.5355C66.7054 71.9579 66.3938 70.0587 66.3938 67.8381C66.4004 65.6174 66.7153 63.7282 67.3384 62.1705C67.9682 60.6061 68.8664 59.4129 70.033 58.5909C71.2063 57.7689 72.6083 57.358 74.239 57.358C75.8697 57.358 77.2717 57.7689 78.445 58.5909C79.6183 59.4129 80.5165 60.6061 81.1396 62.1705C81.7693 63.7348 82.0842 65.6241 82.0842 67.8381C82.0842 70.0653 81.7693 71.9678 81.1396 73.5455C80.5165 75.1165 79.6183 76.3163 78.445 77.1449C77.2783 77.9735 75.8763 78.3878 74.239 78.3878ZM74.239 75.2756C75.5117 75.2756 76.516 74.6491 77.2518 73.3963C77.9942 72.1368 78.3654 70.2841 78.3654 67.8381C78.3654 66.2206 78.1964 64.8617 77.8583 63.7614C77.5202 62.661 77.043 61.8324 76.4265 61.2756C75.81 60.7121 75.0808 60.4304 74.239 60.4304C72.9729 60.4304 71.9719 61.0601 71.2362 62.3196C70.5004 63.5724 70.1291 65.4119 70.1225 67.8381C70.1159 69.4621 70.2783 70.8277 70.6097 71.9347C70.9478 73.0417 71.4251 73.8769 72.0415 74.4403C72.658 74.9972 73.3905 75.2756 74.239 75.2756ZM88.8604 75.2159L88.7312 76.3097C88.6384 77.1449 88.4727 77.9934 88.234 78.8551C88.002 79.7235 87.7567 80.5223 87.4982 81.2514C87.2397 81.9806 87.0309 82.554 86.8718 82.9716H84.4457C84.5385 82.5672 84.6644 82.017 84.8235 81.321C84.9892 80.625 85.1483 79.8428 85.3008 78.9744C85.4532 78.1061 85.556 77.2244 85.609 76.3295L85.6786 75.2159H88.8604ZM99.6214 57.358C100.596 57.3646 101.544 57.5369 102.465 57.875C103.393 58.2064 104.228 58.75 104.971 59.5057C105.713 60.2547 106.303 61.259 106.741 62.5185C107.178 63.7779 107.397 65.3357 107.397 67.1918C107.404 68.9418 107.218 70.5062 106.84 71.8849C106.469 73.2571 105.935 74.4171 105.239 75.3651C104.543 76.313 103.705 77.0355 102.724 77.5327C101.743 78.0298 100.639 78.2784 99.4126 78.2784C98.1267 78.2784 96.9865 78.0265 95.9922 77.5227C95.0045 77.0189 94.2057 76.3295 93.5959 75.4545C92.986 74.5795 92.6115 73.5786 92.4723 72.4517H96.1016C96.2872 73.2604 96.665 73.9034 97.2351 74.3807C97.8118 74.8513 98.5376 75.0866 99.4126 75.0866C100.825 75.0866 101.912 74.4735 102.674 73.2472C103.436 72.0208 103.817 70.3172 103.817 68.1364H103.678C103.353 68.7197 102.933 69.2235 102.415 69.6477C101.898 70.0653 101.312 70.3868 100.656 70.6122C100.006 70.8376 99.3165 70.9503 98.5874 70.9503C97.3942 70.9503 96.3203 70.6652 95.3658 70.0952C94.4179 69.5251 93.6655 68.7429 93.1087 67.7486C92.5585 66.7543 92.2801 65.6174 92.2734 64.3381C92.2734 63.0123 92.5784 61.8224 93.1882 60.7685C93.8047 59.7079 94.6631 58.8726 95.7635 58.2628C96.8639 57.6463 98.1499 57.3447 99.6214 57.358ZM99.6314 60.3409C98.9155 60.3409 98.2692 60.5166 97.6925 60.8679C97.1224 61.2126 96.6716 61.6832 96.3402 62.2798C96.0154 62.8698 95.853 63.5294 95.853 64.2585C95.8596 64.9811 96.022 65.6373 96.3402 66.2273C96.665 66.8172 97.1058 67.2846 97.6626 67.6293C98.2261 67.974 98.8691 68.1463 99.5916 68.1463C100.129 68.1463 100.629 68.0436 101.093 67.8381C101.557 67.6326 101.961 67.3475 102.306 66.983C102.657 66.6117 102.929 66.1908 103.121 65.7202C103.32 65.2495 103.416 64.7524 103.41 64.2287C103.41 63.5327 103.244 62.8897 102.913 62.2997C102.588 61.7098 102.14 61.2358 101.57 60.8778C101.007 60.5199 100.361 60.3409 99.6314 60.3409ZM117.947 78.2784C116.469 78.2784 115.156 78.0298 114.009 77.5327C112.869 77.0355 111.974 76.3561 111.325 75.4943C110.682 74.6259 110.363 73.6416 110.37 72.5412C110.363 71.6861 110.549 70.9006 110.927 70.1847C111.305 69.4688 111.815 68.8722 112.458 68.3949C113.108 67.911 113.83 67.6027 114.626 67.4702V67.331C113.578 67.099 112.73 66.5653 112.08 65.7301C111.437 64.8883 111.119 63.9171 111.126 62.8168C111.119 61.7694 111.411 60.8348 112.001 60.0128C112.591 59.1908 113.399 58.5445 114.427 58.0739C115.454 57.5966 116.628 57.358 117.947 57.358C119.253 57.358 120.416 57.5966 121.437 58.0739C122.464 58.5445 123.273 59.1908 123.863 60.0128C124.46 60.8348 124.758 61.7694 124.758 62.8168C124.758 63.9171 124.43 64.8883 123.773 65.7301C123.124 66.5653 122.285 67.099 121.258 67.331V67.4702C122.053 67.6027 122.769 67.911 123.406 68.3949C124.049 68.8722 124.559 69.4688 124.937 70.1847C125.321 70.9006 125.513 71.6861 125.513 72.5412C125.513 73.6416 125.189 74.6259 124.539 75.4943C123.889 76.3561 122.995 77.0355 121.854 77.5327C120.721 78.0298 119.418 78.2784 117.947 78.2784ZM117.947 75.4347C118.709 75.4347 119.372 75.3054 119.935 75.0469C120.499 74.7817 120.936 74.4105 121.248 73.9332C121.559 73.456 121.719 72.9058 121.725 72.2827C121.719 71.633 121.549 71.0597 121.218 70.5625C120.893 70.0587 120.446 69.6643 119.876 69.3793C119.312 69.0942 118.669 68.9517 117.947 68.9517C117.218 68.9517 116.568 69.0942 115.998 69.3793C115.428 69.6643 114.977 70.0587 114.646 70.5625C114.321 71.0597 114.162 71.633 114.168 72.2827C114.162 72.9058 114.314 73.456 114.626 73.9332C114.937 74.4039 115.375 74.7718 115.938 75.0369C116.508 75.3021 117.178 75.4347 117.947 75.4347ZM117.947 66.1577C118.57 66.1577 119.12 66.0317 119.597 65.7798C120.081 65.5279 120.462 65.1766 120.741 64.7259C121.019 64.2751 121.162 63.7547 121.168 63.1648C121.162 62.5814 121.022 62.071 120.751 61.6335C120.479 61.1894 120.101 60.848 119.617 60.6094C119.133 60.3641 118.576 60.2415 117.947 60.2415C117.304 60.2415 116.737 60.3641 116.246 60.6094C115.763 60.848 115.385 61.1894 115.113 61.6335C114.848 62.071 114.719 62.5814 114.725 63.1648C114.719 63.7547 114.851 64.2751 115.123 64.7259C115.401 65.17 115.782 65.5213 116.266 65.7798C116.757 66.0317 117.317 66.1577 117.947 66.1577ZM136.309 78.3878C134.672 78.3878 133.267 77.9735 132.093 77.1449C130.927 76.3097 130.029 75.1065 129.399 73.5355C128.776 71.9579 128.464 70.0587 128.464 67.8381C128.471 65.6174 128.786 63.7282 129.409 62.1705C130.038 60.6061 130.937 59.4129 132.103 58.5909C133.277 57.7689 134.679 57.358 136.309 57.358C137.94 57.358 139.342 57.7689 140.515 58.5909C141.689 59.4129 142.587 60.6061 143.21 62.1705C143.84 63.7348 144.154 65.6241 144.154 67.8381C144.154 70.0653 143.84 71.9678 143.21 73.5455C142.587 75.1165 141.689 76.3163 140.515 77.1449C139.349 77.9735 137.947 78.3878 136.309 78.3878ZM136.309 75.2756C137.582 75.2756 138.586 74.6491 139.322 73.3963C140.065 72.1368 140.436 70.2841 140.436 67.8381C140.436 66.2206 140.267 64.8617 139.929 63.7614C139.591 62.661 139.113 61.8324 138.497 61.2756C137.88 60.7121 137.151 60.4304 136.309 60.4304C135.043 60.4304 134.042 61.0601 133.306 62.3196C132.571 63.5724 132.199 65.4119 132.193 67.8381C132.186 69.4621 132.349 70.8277 132.68 71.9347C133.018 73.0417 133.495 73.8769 134.112 74.4403C134.728 74.9972 135.461 75.2756 136.309 75.2756ZM148.922 78.2188C148.319 78.2188 147.802 78.0066 147.371 77.5824C146.94 77.1581 146.728 76.6411 146.735 76.0312C146.728 75.4347 146.94 74.9242 147.371 74.5C147.802 74.0758 148.319 73.8636 148.922 73.8636C149.506 73.8636 150.013 74.0758 150.444 74.5C150.881 74.9242 151.103 75.4347 151.11 76.0312C151.103 76.4356 150.997 76.8035 150.792 77.1349C150.593 77.4664 150.328 77.7315 149.996 77.9304C149.671 78.1226 149.313 78.2188 148.922 78.2188ZM159.35 68.0866C157.653 68.0866 156.327 67.5265 155.373 66.4062C154.418 65.286 153.941 63.7282 153.941 61.733C153.941 59.7377 154.418 58.1932 155.373 57.0994C156.334 55.9991 157.66 55.4489 159.35 55.4489C161.021 55.4489 162.34 55.9957 163.308 57.0895C164.275 58.1832 164.759 59.7311 164.759 61.733C164.759 63.7481 164.275 65.3125 163.308 66.4261C162.34 67.5331 161.021 68.0866 159.35 68.0866ZM159.35 65.7898C160.139 65.7898 160.769 65.455 161.239 64.7855C161.71 64.116 161.945 63.0985 161.945 61.733C161.945 60.3741 161.71 59.3632 161.239 58.7003C160.769 58.0308 160.139 57.696 159.35 57.696C158.568 57.696 157.938 58.0308 157.461 58.7003C156.984 59.3632 156.745 60.3741 156.745 61.733C156.745 63.0852 156.977 64.0994 157.441 64.7756C157.912 65.4517 158.548 65.7898 159.35 65.7898ZM171.754 67.9773C170.833 67.9773 170.008 67.8215 169.278 67.5099C168.556 67.1984 167.979 66.7675 167.548 66.2173C167.124 65.6671 166.905 65.0341 166.892 64.3182H169.587C169.62 64.7623 169.842 65.1269 170.253 65.4119C170.664 65.6903 171.164 65.8295 171.754 65.8295C172.43 65.8295 172.987 65.6406 173.425 65.2628C173.869 64.8783 174.091 64.3878 174.091 63.7912C174.091 63.1946 173.866 62.7008 173.415 62.3097C172.964 61.9119 172.394 61.7131 171.705 61.7131C171.294 61.7131 170.899 61.7893 170.521 61.9418C170.15 62.0876 169.855 62.2898 169.636 62.5483L167.151 62.1108L167.837 55.608H176.03V57.8551H170.114L169.756 60.7585H169.855C170.087 60.4536 170.435 60.2017 170.899 60.0028C171.37 59.7973 171.897 59.6946 172.48 59.6946C173.295 59.6946 174.025 59.8703 174.668 60.2216C175.311 60.5663 175.818 61.0436 176.189 61.6534C176.56 62.2566 176.746 62.946 176.746 63.7216C176.746 64.5502 176.534 65.286 176.109 65.929C175.685 66.5653 175.095 67.0658 174.339 67.4304C173.59 67.795 172.729 67.9773 171.754 67.9773Z" fill="white"/>
</g>
<defs>
<clipPath id="clip0_23_106">
<rect width="388" height="207" rx="10" fill="white"/>
</clipPath>
<clipPath id="clip1_23_106">
<path d="M213 57H410V198C410 214.569 396.569 228 380 228H213V57Z" fill="white"/>
</clipPath>
</defs>
</svg>
