<svg width="50" height="44" viewBox="0 0 50 44" fill="none" xmlns="http://www.w3.org/2000/svg">
<path fill-rule="evenodd" clip-rule="evenodd" d="M49.158 13.2399H38.9242C34.1618 13.2483 30.3037 17.0099 30.2951 21.6534C30.2887 26.3073 34.151 30.0857 38.9242 30.092H49.1666V30.8313C49.1666 38.9495 44.2452 43.75 35.9168 43.75H14.0852C5.75466 43.75 0.833252 38.9495 0.833252 30.8313V13.1498C0.833252 5.03167 5.75466 0.25 14.0852 0.25H35.9082C44.2366 0.25 49.158 5.03167 49.158 13.1498V13.2399ZM12.2872 13.221H25.9172H25.9258H25.943C26.9633 13.2169 27.7882 12.4063 27.7839 11.4093C27.7796 10.4145 26.9461 9.61018 25.9258 9.61437H12.2872C11.2733 9.61855 10.4505 10.4207 10.4462 11.4114C10.4419 12.4063 11.2668 13.2169 12.2872 13.221Z" fill="#FCB45D"/>
</svg>
