<svg width="32" height="32" viewBox="0 0 32 32" fill="none" xmlns="http://www.w3.org/2000/svg">
<path fill-rule="evenodd" clip-rule="evenodd" d="M9.33317 10.3333C8.41269 10.3333 7.6665 11.0795 7.6665 12C7.6665 12.9205 8.41269 13.6667 9.33317 13.6667C10.2537 13.6667 10.9998 12.9205 10.9998 12C10.9998 11.0795 10.2537 10.3333 9.33317 10.3333ZM5.6665 12C5.6665 9.97495 7.30813 8.33333 9.33317 8.33333C11.3582 8.33333 12.9998 9.97495 12.9998 12C12.9998 14.0251 11.3582 15.6667 9.33317 15.6667C7.30813 15.6667 5.6665 14.0251 5.6665 12Z" fill="#667085"/>
<path fill-rule="evenodd" clip-rule="evenodd" d="M13.5275 20.8063C11.8611 22.6723 10.1232 25.2245 8.28577 28.4904C8.01496 28.9717 7.40523 29.1424 6.92389 28.8716C6.44256 28.6007 6.27191 27.9911 6.54271 27.5097C8.41864 24.1755 10.2374 21.4877 12.0357 19.4741C13.8293 17.4655 15.6513 16.0725 17.5453 15.4167C19.4757 14.7481 21.4032 14.8733 23.3036 15.7592C25.1707 16.6295 26.9796 18.2171 28.7761 20.4215C29.1249 20.8496 29.0608 21.4796 28.6327 21.8284C28.2045 22.1773 27.5747 22.1131 27.2257 21.6849C25.5289 19.6028 23.9461 18.2653 22.4587 17.5719C21.0045 16.8941 19.6144 16.8167 18.1999 17.3065C16.7488 17.8091 15.1983 18.9353 13.5275 20.8063Z" fill="#667085"/>
<path fill-rule="evenodd" clip-rule="evenodd" d="M2.18824 4.85491C3.376 3.66715 4.98692 3 6.66659 3H16.3733C16.9255 3 17.3733 3.44772 17.3733 4C17.3733 4.55228 16.9255 5 16.3733 5H6.66659C5.51728 5 4.41508 5.45649 3.60245 6.26912C2.78981 7.08176 2.33325 8.18404 2.33325 9.33333V22.6667C2.33325 23.8159 2.78979 24.918 3.60245 25.7307C4.41513 26.5435 5.51735 27 6.66659 27H22.6666C23.8158 27 24.9181 26.5435 25.7307 25.7307C26.5434 24.918 26.9999 23.8159 26.9999 22.6667V16C26.9999 15.4477 27.4477 15 27.9999 15C28.5522 15 28.9999 15.4477 28.9999 16V22.6667C28.9999 24.3464 28.3327 25.9572 27.145 27.1449C25.9573 28.3327 24.3463 29 22.6666 29H6.66659C4.98684 29 3.37595 28.3327 2.18824 27.1449C1.00052 25.9572 0.333252 24.3464 0.333252 22.6667V9.33333C0.333252 7.65365 1.00049 6.04265 2.18824 4.85491Z" fill="#667085"/>
<path fill-rule="evenodd" clip-rule="evenodd" d="M25 0.106606C25.5523 0.106606 26 0.55432 26 1.10661V11.7733C26 12.3256 25.5523 12.7733 25 12.7733C24.4477 12.7733 24 12.3256 24 11.7733V1.10661C24 0.55432 24.4477 0.106606 25 0.106606Z" fill="#667085"/>
<path fill-rule="evenodd" clip-rule="evenodd" d="M24.2939 0.399497C24.6845 0.00897489 25.3175 0.00897489 25.7081 0.399497L29.9747 4.66617C30.3653 5.05669 30.3653 5.68985 29.9747 6.08038C29.5842 6.4709 28.9511 6.4709 28.5606 6.08038L25.001 2.52081L21.4414 6.08038C21.0509 6.4709 20.4177 6.4709 20.0273 6.08038C19.6367 5.68985 19.6367 5.05669 20.0273 4.66617L24.2939 0.399497Z" fill="#667085"/>
</svg>
