<svg width="98" height="98" viewBox="0 0 98 98" fill="none" xmlns="http://www.w3.org/2000/svg">
<path opacity="0.4" fill-rule="evenodd" clip-rule="evenodd" d="M48.9993 9.18835C22.1922 9.18835 12.6943 19.609 12.6943 49.0049C12.6943 78.3968 22.1922 88.8174 48.9993 88.8174C75.8023 88.8174 85.3042 78.3968 85.3042 49.0049C85.3042 19.609 75.8023 9.18835 48.9993 9.18835Z" fill="#FDC582"/>
<path d="M34.1973 51.8092H63.6789C65.3694 51.8092 66.7414 50.4372 66.7414 48.7467C66.7414 47.0562 65.3694 45.6842 63.6789 45.6842H34.1973C32.5068 45.6842 31.1348 47.0562 31.1348 48.7467C31.1348 50.4372 32.5068 51.8092 34.1973 51.8092Z" fill="#FDC582"/>
<path d="M34.1973 67.1584H63.6789C65.3694 67.1584 66.7414 65.7864 66.7414 64.0959C66.7414 62.4054 65.3694 61.0334 63.6789 61.0334H34.1973C32.5068 61.0334 31.1348 62.4054 31.1348 64.0959C31.1348 65.7864 32.5068 67.1584 34.1973 67.1584Z" fill="#FDC582"/>
<path d="M45.4468 30.3268H34.1973C32.5068 30.3268 31.1348 31.6988 31.1348 33.3893C31.1348 35.0798 32.5068 36.4518 34.1973 36.4518H45.4468C47.1373 36.4518 48.5093 35.0798 48.5093 33.3893C48.5093 31.6988 47.1373 30.3268 45.4468 30.3268Z" fill="#FDC582"/>
</svg>
