<svg width="56" height="56" viewBox="0 0 56 56" fill="none" xmlns="http://www.w3.org/2000/svg">
<path d="M0 14C0 6.26801 6.26801 0 14 0H42C49.732 0 56 6.26801 56 14V42C56 49.732 49.732 56 42 56H14C6.26801 56 0 49.732 0 42V14Z" fill="#F9F9FA"/>
<g clip-path="url(#clip0_162_10736)">
<path d="M24.1496 34.7795L39.0768 30.7178C40.5239 30.3231 40.6966 28.3334 39.3379 27.6983L30.6341 26.52L29.2494 17.6097C28.6121 16.2489 26.6245 16.4237 26.2298 17.8707L22.1681 32.798C21.8372 34.0045 22.9451 35.1084 24.1496 34.7795Z" fill="#4BA582"/>
</g>
<defs>
<clipPath id="clip0_162_10736">
<rect width="19.0543" height="19.0543" fill="white" transform="matrix(-0.707107 0.707107 0.707107 0.707107 28.4736 15)"/>
</clipPath>
</defs>
</svg>
