<svg width="141" height="41" viewBox="0 0 141 41" fill="none" xmlns="http://www.w3.org/2000/svg">
<g clip-path="url(#clip0_14_640)">
<path d="M53.3298 17.0971C53.3298 13.6812 55.6722 11.4185 59.4077 11.4185C63.1432 11.4185 65.4373 13.6026 65.2263 17.2456H54.679C54.7625 20.0151 56.5995 21.6139 59.5132 21.6139C61.7897 21.6139 63.4157 20.6922 63.8156 19.2419H65.134C64.7297 21.3212 62.4093 22.6841 59.5 22.6841C55.7337 22.7146 53.3298 20.5305 53.3298 17.0971ZM54.701 16.3196H63.8552C63.8156 13.8472 62.0446 12.528 59.3858 12.528C56.6435 12.528 54.9339 14.0132 54.701 16.3196Z" fill="black"/>
<path d="M67.3358 7.24249H68.6542V22.5312H67.3358V7.24249Z" fill="black"/>
<path d="M71.3043 7.24249H72.6227V9.65374H71.3043V7.24249ZM71.3043 11.6107H72.6227V22.5312H71.3043V11.6107Z" fill="black"/>
<path d="M76.6394 20.4738V12.6678H74.2355V11.6019H76.6394V8.29957L77.9579 8.0069V11.6107H80.977V12.6678H77.9579V20.1593C77.9579 21.0809 78.4676 21.3343 79.373 21.3343H80.977V22.5268H78.973C77.4832 22.5268 76.6394 21.8803 76.6394 20.4738Z" fill="black"/>
<path d="M81.8911 17.0971C81.8911 13.6812 84.2335 11.4185 87.969 11.4185C91.7045 11.4185 94.0029 13.6026 93.7876 17.2456H83.2403C83.3282 20.0151 85.1608 21.6139 88.0745 21.6139C90.3509 21.6139 91.977 20.6922 92.3769 19.2419H93.6953C93.291 21.3212 90.9706 22.6841 88.0613 22.6841C84.295 22.7146 81.8911 20.5305 81.8911 17.0971ZM83.2623 16.3196H92.4165C92.3769 13.8472 90.6058 12.528 87.947 12.528C85.2047 12.528 83.4996 14.0132 83.2623 16.3196Z" fill="black"/>
<path d="M96.9738 20.4738V12.6678H94.5699V11.6019H96.9738V8.29957L98.2922 8.0069V11.6107H101.307V12.6678H98.2922V20.1593C98.2922 21.0809 98.7976 21.3343 99.7029 21.3343H101.307V22.5268H99.3206C97.8176 22.5268 96.9738 21.8803 96.9738 20.4738Z" fill="black"/>
<path d="M103.091 11.6019H104.273L104.357 13.6987H104.423C104.668 13.0138 105.129 12.4258 105.737 12.0221C106.345 11.6184 107.068 11.4205 107.798 11.4578C108.154 11.4513 108.509 11.4939 108.853 11.5844V12.8206C108.509 12.7287 108.154 12.686 107.798 12.694C107.367 12.6692 106.935 12.7312 106.528 12.8761C106.122 13.0211 105.748 13.2461 105.431 13.5377C105.114 13.8293 104.859 14.1814 104.682 14.5731C104.505 14.9648 104.41 15.3879 104.401 15.8172V22.5268H103.082L103.091 11.6019Z" fill="black"/>
<path d="M110.18 17.6213V11.6019H111.498V17.3898C111.498 20.3252 112.786 21.6051 115.317 21.6051C118.038 21.6051 119.936 19.7617 119.936 16.9923V11.6019H121.255V22.5224H119.976L119.932 19.9452H119.809C118.983 21.6925 117.106 22.6928 114.975 22.6928C112.162 22.7147 110.18 21.3518 110.18 17.6213Z" fill="black"/>
<path d="M122.837 19.1327H124.155C124.155 20.7446 125.72 21.7536 128.229 21.7536C130.488 21.7536 131.982 21.1639 131.982 19.6744C131.982 18.1848 131.015 17.7873 128.08 17.4903C124.748 17.1583 123.245 16.4856 123.245 14.5155C123.245 12.5455 125.188 11.4097 128.141 11.4097C131.239 11.4097 132.865 12.7202 133.032 14.83H131.749C131.6 13.1308 130.145 12.3969 128.141 12.3969C126.137 12.3969 124.546 13.0085 124.546 14.4151C124.546 15.8216 125.684 16.1318 128.299 16.407C131.758 16.7608 133.322 17.2806 133.322 19.5914C133.322 21.4784 131.635 22.7365 128.194 22.7365C124.841 22.7365 122.859 21.3125 122.837 19.1327Z" fill="black"/>
<path d="M136.676 20.4738V12.6678H134.272V11.6019H136.676V8.29957L137.994 8.0069V11.6107H141.013V12.6678H137.994V20.1593C137.994 21.0809 138.499 21.3343 139.409 21.3343H141.013V22.5268H139.009C137.497 22.5268 136.676 21.8803 136.676 20.4738Z" fill="black"/>
<path d="M63.5081 27.2925H64.2859V28.6991H63.5081V27.2925ZM63.5081 29.8348H64.2859V36.2081H63.5081V29.8348Z" fill="#FCB45D"/>
<path d="M65.824 29.8348H66.5843V31.3419H66.659C66.9266 30.8361 67.3338 30.4166 67.8327 30.1327C68.3317 29.8488 68.9017 29.7121 69.476 29.7387C71.1109 29.7387 72.2799 30.5075 72.2799 32.7222V36.2168H71.5064V32.8533C71.5064 31.106 70.7417 30.394 69.309 30.394C68.9498 30.3726 68.5901 30.4268 68.2534 30.5531C67.9166 30.6794 67.6105 30.8748 67.355 31.1267C67.0995 31.3787 66.9004 31.6813 66.7706 32.015C66.6408 32.3486 66.5833 32.7057 66.6019 33.0629V36.2168H65.8284L65.824 29.8348Z" fill="#FCB45D"/>
<path d="M72.9523 29.8348H73.7873L76.0286 34.5088L76.468 35.5266H76.5076L76.9471 34.5088L79.1752 29.8261H80.0102L76.9075 36.2081H76.0725L72.9523 29.8348Z" fill="#FCB45D"/>
<path d="M80.0453 33.0411C80.0453 31.0449 81.4121 29.7388 83.5919 29.7388C85.7717 29.7388 87.1077 31.023 86.989 33.1372H80.8364C80.8847 34.7535 81.9527 35.6839 83.6402 35.6839C84.9586 35.6839 85.9167 35.1422 86.1496 34.2992H86.9143C86.6814 35.5092 85.3278 36.3042 83.627 36.3042C81.4517 36.3042 80.0453 35.033 80.0453 33.0411ZM80.8452 32.6043H86.1892C86.1628 31.1628 85.13 30.3896 83.5787 30.3896C82.0274 30.3896 80.9814 31.2414 80.8628 32.5868L80.8452 32.6043Z" fill="#FCB45D"/>
<path d="M87.8591 34.2249H88.6238C88.6238 35.1684 89.5335 35.7538 90.997 35.7538C92.3154 35.7538 93.1943 35.413 93.1943 34.5438C93.1943 33.6745 92.6274 33.443 90.9179 33.2595C88.971 33.0629 88.0964 32.6742 88.0964 31.5122C88.0964 30.3503 89.2127 29.7038 90.9706 29.7038C92.7812 29.7038 93.7261 30.477 93.8272 31.7001H93.0757C92.9878 30.7085 92.1396 30.2804 90.9706 30.2804C89.8016 30.2804 88.8787 30.6473 88.8787 31.4642C88.8787 32.281 89.5423 32.4689 91.0761 32.6261C93.0932 32.8358 94.0029 33.1416 94.0029 34.487C94.0029 35.5878 93.0185 36.3216 91.0101 36.3216C89.0018 36.3216 87.8943 35.5004 87.8591 34.2249Z" fill="#FCB45D"/>
<path d="M95.9191 35.0112V30.4595H94.5172V29.8348H95.9191V27.9041L96.6969 27.7294V29.8348H98.4548V30.4595H96.6969V34.8277C96.6969 35.365 96.9914 35.5091 97.5187 35.5091H98.4416V36.2081H97.2726C96.4113 36.2081 95.9191 35.8193 95.9191 35.0112Z" fill="#FCB45D"/>
<path d="M99.4875 29.8349H100.252V31.2283H100.318C100.543 30.7603 100.902 30.369 101.35 30.1038C101.798 29.8387 102.315 29.7116 102.836 29.7388C104.08 29.7388 104.963 30.3634 105.258 31.403H105.346C105.557 30.8877 105.924 30.4505 106.397 30.1523C106.869 29.854 107.424 29.7095 107.983 29.7388C109.679 29.7388 110.619 30.6561 110.619 32.5868V36.2081H109.868V32.6829C109.868 31.2196 109.336 30.3852 107.838 30.3852C106.339 30.3852 105.473 31.3768 105.473 32.8577V36.2081H104.686V32.8314C104.686 31.1803 104.01 30.3852 102.683 30.3852C101.153 30.3852 100.292 31.3768 100.292 32.8577V36.2081H99.5051L99.4875 29.8349Z" fill="#FCB45D"/>
<path d="M111.758 33.0411C111.758 31.0449 113.124 29.7388 115.3 29.7388C117.475 29.7388 118.815 31.023 118.697 33.1372H112.544C112.593 34.7535 113.665 35.6839 115.352 35.6839C116.671 35.6839 117.625 35.1422 117.862 34.2992H118.622C118.389 35.5092 117.036 36.3042 115.339 36.3042C113.159 36.3042 111.758 35.033 111.758 33.0411ZM112.557 32.6043H117.897C117.871 31.1628 116.838 30.3896 115.287 30.3896C113.735 30.3896 112.694 31.2414 112.557 32.5868V32.6043Z" fill="#FCB45D"/>
<path d="M119.927 29.8348H120.692V31.3418H120.767C121.035 30.8354 121.443 30.4154 121.942 30.1315C122.442 29.8475 123.013 29.7112 123.588 29.7387C125.223 29.7387 126.392 30.5075 126.392 32.7222V36.2168H125.614V32.8532C125.614 31.1059 124.854 30.3939 123.417 30.3939C123.058 30.3726 122.698 30.4268 122.361 30.553C122.024 30.6793 121.718 30.8748 121.463 31.1267C121.207 31.3786 121.008 31.6813 120.878 32.0149C120.749 32.3486 120.691 32.7057 120.71 33.0629V36.2168H119.936L119.927 29.8348Z" fill="#FCB45D"/>
<path d="M128.444 35.0112V30.4595H127.038V29.8348H128.444V27.9041L129.218 27.7294V29.8348H130.976V30.4595H129.218V34.8277C129.218 35.365 129.512 35.5091 130.044 35.5091H130.963V36.2081H129.798C128.937 36.2081 128.444 35.8193 128.444 35.0112Z" fill="#FCB45D"/>
<path d="M39.7853 8.601C40.2248 9.47464 40.6907 10.4182 41.1038 11.2918C42.1453 7.56574 43.1165 3.7916 43.9779 0C40.2644 1.27988 36.3707 2.87428 32.6571 4.15417C33.8745 4.56478 35.1357 4.78756 36.3531 5.19817C26.5133 16.5555 17.3064 22.6361 6.52176 25.7724C5.90289 22.8378 6.12933 19.7892 7.17506 16.9767C8.22079 14.1643 10.0434 11.702 12.4336 9.87277C14.8237 8.04351 17.6845 6.92145 20.6873 6.63545C23.6902 6.34944 26.7133 6.9111 29.4094 8.25591C29.8489 7.81909 30.2444 7.38227 30.6619 6.94545C30.7894 6.81004 31.0487 6.50863 31.2288 6.31643C28.0993 4.59253 24.536 3.80204 20.966 4.03969C17.396 4.27733 13.9707 5.53302 11.1003 7.65631C8.22997 9.7796 6.03639 12.6804 4.78239 16.0113C3.52838 19.3421 3.26714 22.9617 4.02995 26.4364C2.71154 26.7596 1.39312 27.0436 0 27.31C10.1078 27.0174 22.769 23.4092 35.061 12.991C37.5666 16.3196 38.6619 20.4909 38.1124 24.612C37.563 28.7332 35.4124 32.4768 32.121 35.0418V18.1106C31.5365 18.5474 30.9432 18.9493 30.3631 19.3512C29.427 19.9845 28.4734 20.5874 27.5153 21.1596L27.0758 21.4261V37.6933C26.2708 37.9483 25.4463 38.1382 24.6104 38.2611V22.7846C23.2568 23.498 21.8857 24.1504 20.4969 24.7415L19.7762 25.0429L19.5565 25.1347V38.2174C18.7366 38.0797 17.9285 37.8796 17.1394 37.619V26.0433C16.3967 26.3053 15.6452 26.55 14.8981 26.7815C13.9635 27.0727 13.023 27.329 12.0767 27.5503V34.8408C10.2575 33.3631 8.78473 31.5086 7.76106 29.4068C6.88212 29.5466 5.98121 29.6558 5.08908 29.7431C6.12284 32.157 7.66144 34.3247 9.60272 36.1023C11.544 37.8798 13.8435 39.2264 16.3486 40.0528C18.8536 40.8792 21.5069 41.1664 24.1322 40.8954C26.7575 40.6243 29.2948 39.8012 31.5755 38.4807C33.8562 37.1602 35.8282 35.3725 37.3604 33.2363C38.8927 31.1002 39.9502 28.6644 40.4628 26.0909C40.9753 23.5173 40.9312 20.8648 40.3332 18.3095C39.7353 15.7542 38.5973 13.3546 36.9947 11.27C37.9322 10.4225 38.8625 9.53288 39.7853 8.601Z" fill="#FCB45D"/>
</g>
<defs>
<clipPath id="clip0_14_640">
<rect width="141" height="41" fill="white"/>
</clipPath>
</defs>
</svg>
