<svg width="62" height="62" viewBox="0 0 62 62" fill="none" xmlns="http://www.w3.org/2000/svg">
<g clip-path="url(#clip0_130_5301)">
<path d="M61.0689 23.5007C56.9285 6.89357 40.1083 -3.21325 23.4992 0.928085C6.89699 5.06845 -3.2099 21.8897 0.932387 38.4958C5.07083 55.1049 21.8911 65.2127 38.4953 61.0724C55.1033 56.9319 65.2093 40.1088 61.0689 23.5007Z" fill="#FDC582"/>
<path fill-rule="evenodd" clip-rule="evenodd" d="M33.0186 41.7511L43.295 44.5047C43.4157 44.5374 43.5185 44.6165 43.581 44.7248C43.6435 44.833 43.6607 44.9616 43.6286 45.0825L43.1198 46.9818C43.0871 47.1025 43.0079 47.2053 42.8996 47.2678C42.7914 47.3302 42.6627 47.3473 42.5419 47.3153L32.2655 44.5617C32.1448 44.529 32.042 44.4499 31.9795 44.3417C31.917 44.2334 31.8999 44.1048 31.9319 43.984L32.4408 42.0847C32.4735 41.964 32.5526 41.8612 32.6609 41.7987C32.7692 41.7363 32.8977 41.7191 33.0186 41.7511ZM28.9824 41.7511L18.706 44.5047C18.5853 44.5374 18.4825 44.6165 18.42 44.7248C18.3575 44.833 18.3404 44.9616 18.3724 45.0825L18.8812 46.9818C18.9139 47.1025 18.9931 47.2053 19.1014 47.2678C19.2097 47.3302 19.3383 47.3473 19.4591 47.3153L29.7355 44.5617C29.8562 44.529 29.959 44.4499 30.0215 44.3417C30.084 44.2334 30.1011 44.1048 30.0692 43.984L29.5602 42.0847C29.5275 41.964 29.4484 41.8612 29.3401 41.7987C29.2319 41.7363 29.1033 41.7191 28.9824 41.7511ZM31.0005 16C32.6525 16 34.2674 16.4899 35.6409 17.4077C37.0145 18.3255 38.0851 19.6299 38.7173 21.1562C39.3495 22.6824 39.5149 24.3618 39.1926 25.9821C38.8703 27.6023 38.0748 29.0906 36.9067 30.2587C35.7385 31.4269 34.2503 32.2224 32.63 32.5447C31.0098 32.8669 29.3303 32.7015 27.8041 32.0693C26.2779 31.4372 24.9734 30.3666 24.0556 28.993C23.1378 27.6194 22.6479 26.0046 22.6479 24.3526C22.6479 22.1373 23.5279 20.0128 25.0943 18.4464C26.6608 16.88 28.7853 16 31.0005 16ZM32.7679 21.964C32.4765 21.5637 32.0388 21.2947 31.55 21.2155V20.8876C31.55 20.7419 31.4921 20.6021 31.3891 20.4991C31.286 20.396 31.1462 20.3381 31.0005 20.3381C30.8548 20.3381 30.715 20.396 30.6119 20.4991C30.5089 20.6021 30.451 20.7419 30.451 20.8876V21.2375C30.0052 21.3369 29.6118 21.5973 29.3461 21.9688C29.0804 22.3403 28.9611 22.7968 29.0111 23.2508C29.0611 23.7047 29.2769 24.1243 29.6171 24.4291C29.9573 24.7338 30.398 24.9023 30.8547 24.9023H31.1464C31.3468 24.9023 31.539 24.9819 31.6807 25.1236C31.8224 25.2653 31.902 25.4575 31.902 25.6579C31.902 25.8583 31.8224 26.0504 31.6807 26.1921C31.539 26.3338 31.3468 26.4134 31.1464 26.4134H30.7355C30.6153 26.4144 30.4966 26.3862 30.3896 26.3311C30.2827 26.2761 30.1908 26.1959 30.1217 26.0975C30.0363 25.9796 29.9076 25.9005 29.7639 25.8776C29.6202 25.8547 29.4732 25.8897 29.3554 25.9751C29.2376 26.0605 29.1585 26.1892 29.1355 26.333C29.1126 26.4767 29.1477 26.6236 29.2331 26.7414C29.5245 27.1418 29.9622 27.4108 30.451 27.4901V27.818C30.451 27.9637 30.5089 28.1035 30.6119 28.2066C30.715 28.3096 30.8548 28.3675 31.0005 28.3675C31.1462 28.3675 31.286 28.3096 31.3891 28.2066C31.4921 28.1035 31.55 27.9637 31.55 27.818V27.4681C31.9958 27.3687 32.3892 27.1083 32.6549 26.7368C32.9206 26.3654 33.0399 25.9089 32.9899 25.4549C32.9399 25.0009 32.7241 24.5814 32.384 24.2766C32.0438 23.9718 31.6031 23.8033 31.1464 23.8033H30.8547C30.6543 23.8033 30.4621 23.7237 30.3204 23.582C30.1787 23.4403 30.0991 23.2481 30.0991 23.0478C30.0991 22.8474 30.1787 22.6552 30.3204 22.5135C30.4621 22.3718 30.6543 22.2922 30.8547 22.2922H31.2655C31.3858 22.2912 31.5044 22.3194 31.6114 22.3745C31.7183 22.4295 31.8102 22.5097 31.8793 22.6081C31.9216 22.6665 31.975 22.7159 32.0364 22.7537C32.0977 22.7914 32.166 22.8167 32.2371 22.828C32.3083 22.8394 32.381 22.8366 32.4511 22.8199C32.5212 22.8031 32.5873 22.7728 32.6456 22.7305C32.704 22.6882 32.7534 22.6348 32.7911 22.5734C32.8289 22.5121 32.8541 22.4438 32.8655 22.3727C32.8768 22.3015 32.8741 22.2288 32.8573 22.1587C32.8406 22.0886 32.8102 22.0225 32.7679 21.9642V21.964ZM31.0005 18.2622C29.7959 18.2622 28.6184 18.6194 27.6168 19.2886C26.6152 19.9579 25.8345 20.9091 25.3736 22.022C24.9126 23.1349 24.792 24.3595 25.027 25.541C25.262 26.7224 25.842 27.8077 26.6938 28.6594C27.5456 29.5112 28.6308 30.0913 29.8123 30.3263C30.9937 30.5613 32.2183 30.4407 33.3312 29.9798C34.4441 29.5188 35.3954 28.7382 36.0646 27.7366C36.7339 26.735 37.0911 25.5574 37.0911 24.3528C37.0911 22.7375 36.4494 21.1883 35.3072 20.0461C34.165 18.9039 32.6158 18.2622 31.0005 18.2622ZM27.5518 35.7161C27.869 36.1164 28.101 36.5774 28.2337 37.0706C28.3663 37.5639 28.3968 38.079 28.3232 38.5845L28.0246 40.87L19.5459 43.1419C19.5391 42.0295 19.1897 41.0601 18.3307 40.1361L15.1368 36.7006C14.4095 35.9183 14 35.0246 14 33.9564V20.7537C14.0032 20.1877 14.2303 19.6459 14.6317 19.2468C15.0331 18.8477 15.5761 18.6237 16.1421 18.6237C16.7081 18.6237 17.2511 18.8477 17.6525 19.2468C18.0539 19.6459 18.281 20.1877 18.2842 20.7537V28.6167C17.9959 28.7584 17.7333 28.9472 17.5072 29.1753C16.9666 29.7268 16.6651 30.4691 16.668 31.2414C16.6708 32.0137 16.9779 32.7537 17.5226 33.3012L20.6597 36.4137C20.7627 36.5161 20.9022 36.5735 21.0476 36.5731C21.1929 36.5727 21.3321 36.5145 21.4346 36.4115C21.5371 36.3084 21.5944 36.1689 21.594 36.0236C21.5936 35.8783 21.5355 35.7391 21.4324 35.6366L18.2955 32.5243C17.9554 32.1825 17.7635 31.7206 17.7614 31.2385C17.7593 30.7563 17.9472 30.2928 18.2843 29.9481L18.285 29.9474L18.2857 29.9467L18.2864 29.946L18.2871 29.9453L18.2911 29.941L18.2918 29.9403L18.2924 29.9396L18.2931 29.9389L18.2937 29.9381L18.2944 29.9375L18.2951 29.9368L18.2958 29.9361L18.2965 29.9353L18.2972 29.9346L18.2979 29.934L18.2985 29.9332L18.2992 29.9325C18.3086 29.9226 18.3182 29.9128 18.328 29.903C18.7718 29.4592 19.3731 29.2087 20.0008 29.2062C20.6285 29.2037 21.2317 29.4494 21.6791 29.8897L27.552 35.7163L27.5518 35.7161ZM34.4492 35.7161C34.132 36.1164 33.9 36.5774 33.7673 37.0706C33.6347 37.5639 33.6042 38.079 33.6778 38.5845L33.9765 40.87L42.4551 43.1419C42.4619 42.0295 42.8113 41.0601 43.6703 40.1361L46.8644 36.7006C47.5916 35.9183 48.0009 35.0246 48.0009 33.9564V20.7537C47.9977 20.1877 47.7706 19.6459 47.3693 19.2468C46.9679 18.8477 46.4249 18.6237 45.8589 18.6237C45.2928 18.6237 44.7498 18.8477 44.3484 19.2468C43.9471 19.6459 43.72 20.1877 43.7168 20.7537V28.6167C44.005 28.7584 44.2676 28.9472 44.4938 29.1753C45.0343 29.7268 45.3359 30.4691 45.333 31.2414C45.3301 32.0137 45.0231 32.7537 44.4784 33.3012L41.3413 36.4137C41.2382 36.5161 41.0987 36.5735 40.9534 36.5731C40.8081 36.5727 40.6688 36.5145 40.5664 36.4115C40.4639 36.3084 40.4066 36.1689 40.407 36.0236C40.4074 35.8783 40.4655 35.7391 40.5685 35.6366L43.7056 32.5243C44.0458 32.1826 44.2377 31.7206 44.2397 31.2385C44.2418 30.7563 44.0539 30.2927 43.7166 29.9481L43.716 29.9474L43.7153 29.9467L43.7146 29.946L43.7139 29.9453L43.7099 29.941L43.7093 29.9403L43.7086 29.9396L43.7079 29.9389L43.7072 29.9381L43.7066 29.9375L43.7059 29.9368L43.7052 29.9361L43.7045 29.9353L43.7038 29.9346L43.7031 29.934L43.7025 29.9332L43.7018 29.9325C43.6924 29.9226 43.6828 29.9128 43.6731 29.903C43.2292 29.4592 42.628 29.2087 42.0002 29.2062C41.3725 29.2037 40.7693 29.4494 40.3219 29.8897L34.4492 35.7161Z" fill="white"/>
</g>
<defs>
<clipPath id="clip0_130_5301">
<rect width="62" height="62" fill="white" transform="matrix(1 0 0 -1 0 62)"/>
</clipPath>
</defs>
</svg>
