<svg width="56" height="56" viewBox="0 0 56 56" fill="none" xmlns="http://www.w3.org/2000/svg">
<path d="M0 14C0 6.26801 6.26801 0 14 0H42C49.732 0 56 6.26801 56 14V42C56 49.732 49.732 56 42 56H14C6.26801 56 0 49.732 0 42V14Z" fill="#F9F9FA"/>
<g clip-path="url(#clip0_162_10750)">
<path d="M32.7976 22.1674L17.8704 26.2291C16.4234 26.6238 16.2507 28.6135 17.6094 29.2486L26.3132 30.4269L27.6979 39.3371C28.3351 40.698 30.3228 40.5232 30.7175 39.0762L34.7792 24.1489C35.1101 22.9424 34.0022 21.8385 32.7976 22.1674Z" fill="#FCB45D"/>
</g>
<defs>
<clipPath id="clip0_162_10750">
<rect width="19.0543" height="19.0543" fill="white" transform="matrix(0.707107 -0.707107 -0.707107 -0.707107 28.4736 41.9469)"/>
</clipPath>
</defs>
</svg>
