<svg width="86" height="86" viewBox="0 0 86 86" fill="none" xmlns="http://www.w3.org/2000/svg">
<g clip-path="url(#clip0_57_8452)">
<path d="M60.7058 0V25.2941H85.9999V0H60.7058ZM80.9411 20.2353H65.7646V5.05882H80.9411V20.2353Z" fill="black"/>
<path d="M70.8235 10.1176H75.8823V15.1765H70.8235V10.1176Z" fill="black"/>
<path d="M60.7058 86H85.9999V60.7059H60.7058V86ZM65.7646 65.7647H80.9411V80.9412H65.7646V65.7647Z" fill="black"/>
<path d="M70.8235 70.8235H75.8823V75.8824H70.8235V70.8235Z" fill="black"/>
<path d="M0 86H25.2941V60.7059H0V86ZM5.05882 65.7647H20.2353V80.9412H5.05882V65.7647Z" fill="black"/>
<path d="M10.1177 70.8235H15.1765V75.8824H10.1177V70.8235Z" fill="black"/>
<path d="M30.353 80.9412H43.0001V86H30.353V80.9412Z" fill="black"/>
<path d="M30.353 70.8235H37.9413V75.8824H30.353V70.8235Z" fill="black"/>
<path d="M15.1765 50.5882H20.2353V55.6471H15.1765V50.5882Z" fill="black"/>
<path d="M10.1176 50.5882H5.05882V40.4706H0V55.6471H10.1176V50.5882Z" fill="black"/>
<path d="M80.9411 50.5882H75.8823V55.6471H86V40.4706H80.9411V50.5882Z" fill="black"/>
<path d="M60.7058 50.5882H70.8235V55.6471H60.7058V50.5882Z" fill="black"/>
<path d="M43 50.5882H55.6471V55.6471H43V50.5882Z" fill="black"/>
<path d="M48.0588 80.9412H55.6471V86H48.0588V80.9412Z" fill="black"/>
<path d="M50.5882 70.8235H43V75.8824H55.6471V60.7059H50.5882V70.8235Z" fill="black"/>
<path d="M30.3528 65.7647H42.9999V60.7059H35.4117V50.5882H25.2942V55.6471H30.3528V65.7647Z" fill="black"/>
<path d="M48.0588 10.1176H55.6471V15.1765H48.0588V10.1176Z" fill="black"/>
<path d="M60.7058 30.3529H65.7646V35.4118H60.7058V30.3529Z" fill="black"/>
<path d="M60.7058 40.4706H65.7646V45.5294H60.7058V40.4706Z" fill="black"/>
<path d="M70.8235 45.5294H75.8823V35.4118H86V30.3529H70.8235V45.5294Z" fill="black"/>
<path d="M43 25.2941H50.5882V45.5294H55.6471V20.2353H43V25.2941Z" fill="black"/>
<path d="M20.2354 45.5294H43.0001V40.4706H25.2942V35.4118H20.2354V45.5294Z" fill="black"/>
<path d="M10.1176 45.5294H15.1765V30.3529H0V35.4118H10.1176V45.5294Z" fill="black"/>
<path d="M20.2354 20.2353H25.2942V30.3529H20.2354V20.2353Z" fill="black"/>
<path d="M30.353 30.3529H43.0001V35.4118H30.353V30.3529Z" fill="black"/>
<path d="M35.4119 15.1765H43.0001V10.1176H30.353V25.2941H35.4119V15.1765Z" fill="black"/>
<path d="M43 0H55.6471V5.05882H43V0Z" fill="black"/>
<path d="M5.05882 5.05882H15.1765V0H0V15.1765H5.05882V5.05882Z" fill="black"/>
<path d="M30.353 0H37.9413V5.05882H30.353V0Z" fill="black"/>
<path d="M10.1177 15.1765H25.2941V0H20.2353V10.1176H10.1177V15.1765Z" fill="black"/>
<path d="M0 20.2353H15.1765V25.2941H0V20.2353Z" fill="black"/>
</g>
<defs>
<clipPath id="clip0_57_8452">
<rect width="86" height="86" fill="white"/>
</clipPath>
</defs>
</svg>
