<svg width="56" height="56" viewBox="0 0 56 56" fill="none" xmlns="http://www.w3.org/2000/svg">
<path d="M0 14C0 6.26801 6.26801 0 14 0H42C49.732 0 56 6.26801 56 14V42C56 49.732 49.732 56 42 56H14C6.26801 56 0 49.732 0 42V14Z" fill="#F9F9FA"/>
<path d="M23.1528 21.5555C23.2037 21.6592 23.2373 21.7702 23.2524 21.8843L23.5308 26.0243V26.0243L23.669 28.1051C23.6705 28.3191 23.704 28.5317 23.7687 28.736C23.9356 29.1326 24.3372 29.3846 24.7741 29.367L31.4313 28.9315C31.7196 28.9268 31.998 29.0346 32.2052 29.2313C32.3779 29.3952 32.4894 29.6096 32.5246 29.8402L32.5364 29.9802C32.2609 33.7949 29.4592 36.9767 25.6524 37.798C21.8456 38.6193 17.9419 36.8843 16.0607 33.5349C15.5184 32.5618 15.1797 31.4923 15.0644 30.389C15.0162 30.0624 14.995 29.7325 15.001 29.4025C14.995 25.3127 17.9075 21.777 21.9843 20.9246C22.475 20.8482 22.956 21.1079 23.1528 21.5555Z" fill="#F5B041"/>
<path opacity="0.4" d="M25.87 18.0008C30.4298 18.1168 34.2623 21.3958 34.9999 25.8123L34.9929 25.8449V25.8449L34.9728 25.8923L34.9756 26.0224C34.9651 26.1947 34.8986 26.3605 34.7839 26.4945C34.6645 26.634 34.5013 26.729 34.3215 26.7659L34.2119 26.7809L26.5312 27.2786C26.2757 27.3038 26.0213 27.2214 25.8313 27.052C25.673 26.9107 25.5717 26.7201 25.5431 26.5147L25.0276 18.8451C25.0186 18.8191 25.0186 18.791 25.0276 18.7651C25.0346 18.5537 25.1277 18.3538 25.286 18.2102C25.4443 18.0666 25.6546 17.9912 25.87 18.0008Z" fill="#F5B041"/>
</svg>
