<svg width="28" height="26" viewBox="0 0 28 26" fill="none" xmlns="http://www.w3.org/2000/svg">
<path d="M20.5 23.75L14 19.75L7.5 23.75L8.5 16.25L3 9.75H10.5L14 2.25L18 9.75H25L19 16.25L20.5 23.75Z" stroke="#CAD0D7" stroke-width="2"/>
<path d="M20.5 23.75L14 19.75L7.5 23.75L8.5 16.25L3 9.75H10.5L14 2.25L18 9.75H25L19 16.25L20.5 23.75Z" stroke="#CAD0D7" stroke-width="2"/>
<path d="M20.5 23.75L14 19.75L7.5 23.75L8.5 16.25L3 9.75H10.5L14 2.25L18 9.75H25L19 16.25L20.5 23.75Z" stroke="#CAD0D7" stroke-width="2"/>
</svg>
