<svg width="16" height="20" viewBox="0 0 16 20" fill="none" xmlns="http://www.w3.org/2000/svg">
<path fill-rule="evenodd" clip-rule="evenodd" d="M7.8889 10.6187H7.92089C10.8489 10.6187 13.2299 8.23769 13.2299 5.30969C13.2299 2.38169 10.8489 -0.000305176 7.92089 -0.000305176C4.99189 -0.000305176 2.60989 2.3817 2.60989 5.30669C2.59989 8.2267 4.9669 10.6097 7.8889 10.6187ZM4.03789 5.30969C4.03789 3.16869 5.77989 1.42769 7.92089 1.42769C10.0609 1.42769 11.8019 3.16869 11.8019 5.30969C11.8019 7.44969 10.0609 9.19169 7.92089 9.19169H7.89189C5.75989 9.18369 4.03089 7.4437 4.03789 5.30969Z" fill="black"/>
<path fill-rule="evenodd" clip-rule="evenodd" d="M-0.00012207 16.173C-0.00012207 19.87 5.96188 19.87 7.92088 19.87C11.3199 19.87 15.8399 19.489 15.8399 16.193C15.8399 12.496 9.87988 12.496 7.92088 12.496C4.52088 12.496 -0.00012207 12.877 -0.00012207 16.173ZM1.49988 16.173C1.49988 14.728 3.65988 13.996 7.92088 13.996C12.1809 13.996 14.3399 14.735 14.3399 16.193C14.3399 17.638 12.1809 18.37 7.92088 18.37C3.65988 18.37 1.49988 17.631 1.49988 16.173Z" fill="black"/>
</svg>
