<svg width="40" height="40" viewBox="0 0 40 40" fill="none" xmlns="http://www.w3.org/2000/svg">
<path d="M1.23947 35.2061L19.2616 3.96778C19.5619 3.40995 20.3772 3.40995 20.7205 3.96778L38.7855 35.2061C39.0859 35.7639 38.6997 36.4505 38.056 36.4505H1.92602C1.28238 36.4505 0.896188 35.7639 1.23947 35.2061Z" fill="#FFC043"/>
<path d="M6.25977 33.1465L19.9909 9.37448L33.722 33.1465H6.25977Z" fill="black"/>
<path d="M19.9909 27.3963C20.3342 27.3963 20.6345 27.5251 20.892 27.7825C21.1495 28.04 21.2782 28.3404 21.2782 28.6836C21.2782 29.0269 21.1495 29.3273 20.892 29.5847C20.6345 29.8422 20.3342 29.9709 19.9909 29.9709C19.6476 29.9709 19.3043 29.8422 19.0898 29.5847C18.8323 29.3273 18.7036 29.0269 18.7036 28.6836C18.7036 28.3404 18.8323 28.04 19.0898 27.7825C19.3473 27.5251 19.6476 27.3963 19.9909 27.3963ZM19.004 26.2807L18.8323 17.0551H21.1924L20.9778 26.2807H19.004Z" fill="white"/>
</svg>
